%FSLAX25Y25*%
%MOIN*%
G70*
G01*
G75*
G04 Layer_Color=8388736*
%ADD10R,0.03740X0.03937*%
%ADD11P,0.04454X4X90.0*%
G04:AMPARAMS|DCode=12|XSize=37.4mil|YSize=39.37mil|CornerRadius=0mil|HoleSize=0mil|Usage=FLASHONLY|Rotation=315.000|XOffset=0mil|YOffset=0mil|HoleType=Round|Shape=Rectangle|*
%AMROTATEDRECTD12*
4,1,4,-0.02714,-0.00070,0.00070,0.02714,0.02714,0.00070,-0.00070,-0.02714,-0.02714,-0.00070,0.0*
%
%ADD12ROTATEDRECTD12*%

%ADD13R,0.04200X0.02500*%
G04:AMPARAMS|DCode=14|XSize=106.3mil|YSize=62.99mil|CornerRadius=0mil|HoleSize=0mil|Usage=FLASHONLY|Rotation=225.000|XOffset=0mil|YOffset=0mil|HoleType=Round|Shape=Rectangle|*
%AMROTATEDRECTD14*
4,1,4,0.01531,0.05985,0.05985,0.01531,-0.01531,-0.05985,-0.05985,-0.01531,0.01531,0.05985,0.0*
%
%ADD14ROTATEDRECTD14*%

G04:AMPARAMS|DCode=15|XSize=106.3mil|YSize=62.99mil|CornerRadius=0mil|HoleSize=0mil|Usage=FLASHONLY|Rotation=315.000|XOffset=0mil|YOffset=0mil|HoleType=Round|Shape=Rectangle|*
%AMROTATEDRECTD15*
4,1,4,-0.05985,0.01531,-0.01531,0.05985,0.05985,-0.01531,0.01531,-0.05985,-0.05985,0.01531,0.0*
%
%ADD15ROTATEDRECTD15*%

G04:AMPARAMS|DCode=16|XSize=15.75mil|YSize=33.47mil|CornerRadius=0mil|HoleSize=0mil|Usage=FLASHONLY|Rotation=135.000|XOffset=0mil|YOffset=0mil|HoleType=Round|Shape=Rectangle|*
%AMROTATEDRECTD16*
4,1,4,0.01740,0.00626,-0.00626,-0.01740,-0.01740,-0.00626,0.00626,0.01740,0.01740,0.00626,0.0*
%
%ADD16ROTATEDRECTD16*%

G04:AMPARAMS|DCode=17|XSize=15.75mil|YSize=33.47mil|CornerRadius=0mil|HoleSize=0mil|Usage=FLASHONLY|Rotation=225.000|XOffset=0mil|YOffset=0mil|HoleType=Round|Shape=Rectangle|*
%AMROTATEDRECTD17*
4,1,4,-0.00626,0.01740,0.01740,-0.00626,0.00626,-0.01740,-0.01740,0.00626,-0.00626,0.01740,0.0*
%
%ADD17ROTATEDRECTD17*%

%ADD18R,0.04331X0.02559*%
%ADD19R,0.03150X0.03150*%
%ADD20O,0.03937X0.09843*%
%ADD21O,0.09843X0.03937*%
%ADD22R,0.03937X0.09843*%
%ADD23R,0.03150X0.03150*%
%ADD24R,0.03937X0.03740*%
%ADD25R,0.03602X0.04803*%
%ADD26R,0.15000X0.11000*%
%ADD27R,0.01024X0.00630*%
%ADD28R,0.01024X0.02008*%
%ADD29C,0.01500*%
%ADD30C,0.02000*%
%ADD31C,0.07500*%
%ADD32C,0.04000*%
%ADD33C,0.03000*%
%ADD34C,0.02500*%
%ADD35C,0.05000*%
%ADD36C,0.01000*%
%ADD37C,0.10000*%
%ADD38C,0.11800*%
%ADD39R,0.06496X0.06496*%
%ADD40C,0.06496*%
%ADD41O,0.10000X0.06000*%
%ADD42R,0.10000X0.05500*%
%ADD43R,0.06693X0.06693*%
%ADD44C,0.06693*%
%ADD45R,0.06496X0.06496*%
%ADD46C,0.28000*%
%ADD47R,0.04000X0.07874*%
%ADD48O,0.04000X0.07874*%
%ADD49O,0.03937X0.07874*%
%ADD50O,0.09843X0.06000*%
%ADD51R,0.09843X0.06000*%
%ADD52C,0.16000*%
%ADD53R,0.06000X0.06000*%
%ADD54R,0.06000X0.06000*%
%ADD55C,0.04000*%
%ADD56C,0.05000*%
%ADD57C,0.04500*%
%ADD58C,0.00984*%
%ADD59C,0.01181*%
%ADD60C,0.00787*%
%ADD61C,0.00700*%
%ADD62C,0.00800*%
G04:AMPARAMS|DCode=63|XSize=19.69mil|YSize=62.99mil|CornerRadius=0mil|HoleSize=0mil|Usage=FLASHONLY|Rotation=45.000|XOffset=0mil|YOffset=0mil|HoleType=Round|Shape=Rectangle|*
%AMROTATEDRECTD63*
4,1,4,0.01531,-0.02923,-0.02923,0.01531,-0.01531,0.02923,0.02923,-0.01531,0.01531,-0.02923,0.0*
%
%ADD63ROTATEDRECTD63*%

%ADD64R,0.01000X0.11000*%
%ADD65R,0.10350X0.01000*%
%ADD66R,0.03000X0.01500*%
%ADD67R,0.01500X0.03000*%
%ADD68R,0.01968X0.06299*%
%ADD69R,0.06299X0.01969*%
%ADD70R,0.02000X0.09200*%
%ADD71R,0.24700X0.02000*%
%ADD72R,0.01969X0.06299*%
%ADD73R,0.06299X0.01968*%
%ADD74R,0.04140X0.04337*%
%ADD75P,0.05020X4X90.0*%
G04:AMPARAMS|DCode=76|XSize=41.4mil|YSize=43.37mil|CornerRadius=0mil|HoleSize=0mil|Usage=FLASHONLY|Rotation=315.000|XOffset=0mil|YOffset=0mil|HoleType=Round|Shape=Rectangle|*
%AMROTATEDRECTD76*
4,1,4,-0.02997,-0.00070,0.00070,0.02997,0.02997,0.00070,-0.00070,-0.02997,-0.02997,-0.00070,0.0*
%
%ADD76ROTATEDRECTD76*%

%ADD77R,0.04600X0.02900*%
G04:AMPARAMS|DCode=78|XSize=110.3mil|YSize=66.99mil|CornerRadius=0mil|HoleSize=0mil|Usage=FLASHONLY|Rotation=225.000|XOffset=0mil|YOffset=0mil|HoleType=Round|Shape=Rectangle|*
%AMROTATEDRECTD78*
4,1,4,0.01531,0.06268,0.06268,0.01531,-0.01531,-0.06268,-0.06268,-0.01531,0.01531,0.06268,0.0*
%
%ADD78ROTATEDRECTD78*%

G04:AMPARAMS|DCode=79|XSize=110.3mil|YSize=66.99mil|CornerRadius=0mil|HoleSize=0mil|Usage=FLASHONLY|Rotation=315.000|XOffset=0mil|YOffset=0mil|HoleType=Round|Shape=Rectangle|*
%AMROTATEDRECTD79*
4,1,4,-0.06268,0.01531,-0.01531,0.06268,0.06268,-0.01531,0.01531,-0.06268,-0.06268,0.01531,0.0*
%
%ADD79ROTATEDRECTD79*%

G04:AMPARAMS|DCode=80|XSize=19.75mil|YSize=37.47mil|CornerRadius=0mil|HoleSize=0mil|Usage=FLASHONLY|Rotation=135.000|XOffset=0mil|YOffset=0mil|HoleType=Round|Shape=Rectangle|*
%AMROTATEDRECTD80*
4,1,4,0.02023,0.00626,-0.00626,-0.02023,-0.02023,-0.00626,0.00626,0.02023,0.02023,0.00626,0.0*
%
%ADD80ROTATEDRECTD80*%

G04:AMPARAMS|DCode=81|XSize=19.75mil|YSize=37.47mil|CornerRadius=0mil|HoleSize=0mil|Usage=FLASHONLY|Rotation=225.000|XOffset=0mil|YOffset=0mil|HoleType=Round|Shape=Rectangle|*
%AMROTATEDRECTD81*
4,1,4,-0.00626,0.02023,0.02023,-0.00626,0.00626,-0.02023,-0.02023,0.00626,-0.00626,0.02023,0.0*
%
%ADD81ROTATEDRECTD81*%

%ADD82R,0.04731X0.02959*%
%ADD83R,0.03550X0.03550*%
%ADD84O,0.04337X0.10243*%
%ADD85O,0.10243X0.04337*%
%ADD86R,0.04337X0.10243*%
%ADD87R,0.03550X0.03550*%
%ADD88R,0.04337X0.04140*%
%ADD89R,0.04002X0.05203*%
%ADD90R,0.15400X0.11400*%
%ADD91R,0.01424X0.01030*%
%ADD92R,0.01424X0.02408*%
%ADD93C,0.12200*%
%ADD94O,0.10400X0.06400*%
%ADD95R,0.10400X0.05900*%
%ADD96R,0.07093X0.07093*%
%ADD97C,0.07093*%
%ADD98R,0.06896X0.06896*%
%ADD99C,0.06896*%
%ADD100R,0.06896X0.06896*%
%ADD101C,0.28400*%
%ADD102R,0.04400X0.08274*%
%ADD103O,0.04400X0.08274*%
%ADD104O,0.04337X0.08274*%
%ADD105O,0.10243X0.06400*%
%ADD106R,0.10243X0.06400*%
%ADD107C,0.16400*%
%ADD108R,0.06400X0.06400*%
%ADD109R,0.06400X0.06400*%
%ADD110C,0.04400*%
%ADD111C,0.05400*%
D39*
X280000Y-225000D02*
D03*
Y-25000D02*
D03*
X90000Y-225000D02*
D03*
Y-25000D02*
D03*
D40*
X270000Y-225000D02*
D03*
X280000Y-235000D02*
D03*
X270000D02*
D03*
X280000Y-245000D02*
D03*
X270000D02*
D03*
Y-215000D02*
D03*
X280000D02*
D03*
X270000Y-205000D02*
D03*
X280000D02*
D03*
X270000Y-195000D02*
D03*
X280000D02*
D03*
X270000Y-185000D02*
D03*
X280000D02*
D03*
X270000Y-175000D02*
D03*
X280000D02*
D03*
X270000Y-165000D02*
D03*
X280000D02*
D03*
X270000Y-155000D02*
D03*
X280000D02*
D03*
X270000Y-145000D02*
D03*
X280000D02*
D03*
X270000Y-135000D02*
D03*
X280000D02*
D03*
X270000Y-125000D02*
D03*
X280000D02*
D03*
X270000Y-85000D02*
D03*
X280000D02*
D03*
X270000Y-75000D02*
D03*
X280000D02*
D03*
X270000Y-65000D02*
D03*
X280000D02*
D03*
X270000Y-55000D02*
D03*
X280000D02*
D03*
X270000Y-45000D02*
D03*
X280000D02*
D03*
X270000Y-35000D02*
D03*
X280000D02*
D03*
X270000Y-25000D02*
D03*
X280000Y-95000D02*
D03*
X270000D02*
D03*
X280000Y-105000D02*
D03*
X270000D02*
D03*
X280000Y-115000D02*
D03*
X270000D02*
D03*
X80000Y-225000D02*
D03*
X90000Y-235000D02*
D03*
X80000D02*
D03*
X90000Y-245000D02*
D03*
X80000D02*
D03*
Y-215000D02*
D03*
X90000D02*
D03*
X80000Y-205000D02*
D03*
X90000D02*
D03*
X80000Y-195000D02*
D03*
X90000D02*
D03*
X80000Y-185000D02*
D03*
X90000D02*
D03*
X80000Y-175000D02*
D03*
X90000D02*
D03*
X80000Y-165000D02*
D03*
X90000D02*
D03*
X80000Y-155000D02*
D03*
X90000D02*
D03*
X80000Y-145000D02*
D03*
X90000D02*
D03*
X80000Y-135000D02*
D03*
X90000D02*
D03*
X80000Y-125000D02*
D03*
X90000D02*
D03*
X80000Y-85000D02*
D03*
X90000D02*
D03*
X80000Y-75000D02*
D03*
X90000D02*
D03*
X80000Y-65000D02*
D03*
X90000D02*
D03*
X80000Y-55000D02*
D03*
X90000D02*
D03*
X80000Y-45000D02*
D03*
X90000D02*
D03*
X80000Y-35000D02*
D03*
X90000D02*
D03*
X80000Y-25000D02*
D03*
X90000Y-95000D02*
D03*
X80000D02*
D03*
X90000Y-105000D02*
D03*
X80000D02*
D03*
X90000Y-115000D02*
D03*
X80000D02*
D03*
D74*
X25000Y-11350D02*
D03*
Y-17650D02*
D03*
X203500Y-303150D02*
D03*
Y-296850D02*
D03*
X193279Y-303140D02*
D03*
Y-296841D02*
D03*
X248546Y-296736D02*
D03*
Y-303035D02*
D03*
X263500Y-303150D02*
D03*
Y-296850D02*
D03*
X128500Y-296850D02*
D03*
Y-303150D02*
D03*
X143500Y-303150D02*
D03*
Y-296850D02*
D03*
X233500Y-296850D02*
D03*
Y-303150D02*
D03*
X218500Y-296850D02*
D03*
Y-303150D02*
D03*
X158500Y-296850D02*
D03*
Y-303150D02*
D03*
X169254Y-302882D02*
D03*
Y-296583D02*
D03*
X61000Y-11350D02*
D03*
Y-17650D02*
D03*
X338000Y-197150D02*
D03*
Y-190850D02*
D03*
X348000Y-190850D02*
D03*
Y-197150D02*
D03*
X310500Y-10850D02*
D03*
Y-17150D02*
D03*
X346000Y-10850D02*
D03*
Y-17150D02*
D03*
D75*
X51727Y-123773D02*
D03*
X47273Y-128227D02*
D03*
X51727Y-93773D02*
D03*
X47273Y-98227D02*
D03*
X51727Y-103773D02*
D03*
X47273Y-108227D02*
D03*
X51727Y-113773D02*
D03*
X47273Y-118227D02*
D03*
X51727Y-133773D02*
D03*
X47273Y-138227D02*
D03*
D76*
X34273Y-111227D02*
D03*
X38727Y-106773D02*
D03*
X34273Y-121227D02*
D03*
X38727Y-116773D02*
D03*
X34273Y-141227D02*
D03*
X38727Y-136773D02*
D03*
X34273Y-131227D02*
D03*
X38727Y-126773D02*
D03*
X34273Y-151227D02*
D03*
X38727Y-146773D02*
D03*
D77*
X279558Y-322345D02*
D03*
Y-326045D02*
D03*
Y-329745D02*
D03*
X288258D02*
D03*
Y-322345D02*
D03*
D78*
X169819Y-355819D02*
D03*
X183181Y-369181D02*
D03*
X193319Y-379319D02*
D03*
X206681Y-392681D02*
D03*
D79*
X169819Y-392181D02*
D03*
X183181Y-378819D02*
D03*
X193319Y-369181D02*
D03*
X206681Y-355819D02*
D03*
D80*
X163335Y-369046D02*
D03*
X165145Y-370855D02*
D03*
X166954Y-372665D02*
D03*
X161665Y-377954D02*
D03*
X159855Y-376145D02*
D03*
X158046Y-374335D02*
D03*
X213165Y-379954D02*
D03*
X211355Y-378145D02*
D03*
X209546Y-376335D02*
D03*
X214835Y-371046D02*
D03*
X216645Y-372855D02*
D03*
X218454Y-374665D02*
D03*
D81*
X183546Y-397665D02*
D03*
X185355Y-395855D02*
D03*
X187165Y-394046D02*
D03*
X192454Y-399335D02*
D03*
X190645Y-401145D02*
D03*
X188835Y-402954D02*
D03*
X193454Y-350835D02*
D03*
X191645Y-352645D02*
D03*
X189835Y-354454D02*
D03*
X184546Y-349165D02*
D03*
X186355Y-347355D02*
D03*
X188165Y-345546D02*
D03*
D82*
X219776Y-323260D02*
D03*
Y-327000D02*
D03*
Y-330740D02*
D03*
X229224D02*
D03*
Y-323260D02*
D03*
X249397Y-323373D02*
D03*
Y-327113D02*
D03*
Y-330853D02*
D03*
X258846D02*
D03*
Y-323373D02*
D03*
D83*
X68850Y-427000D02*
D03*
X75150D02*
D03*
X68850Y-435500D02*
D03*
X75150D02*
D03*
X68918Y-416507D02*
D03*
X75217D02*
D03*
X361650Y-253000D02*
D03*
X355350D02*
D03*
X357850Y-123500D02*
D03*
X364150D02*
D03*
X15350D02*
D03*
X21650D02*
D03*
X14350Y-253500D02*
D03*
X20650D02*
D03*
D84*
X22744Y-349605D02*
D03*
X28650D02*
D03*
X34555D02*
D03*
X40461D02*
D03*
X46366D02*
D03*
X52272D02*
D03*
X58177D02*
D03*
X64083D02*
D03*
X69988D02*
D03*
X75894D02*
D03*
X81799D02*
D03*
X87705D02*
D03*
X93610D02*
D03*
Y-400786D02*
D03*
X87705D02*
D03*
X81799D02*
D03*
X75894D02*
D03*
X69988D02*
D03*
X64083D02*
D03*
X58177D02*
D03*
X52272D02*
D03*
X46366D02*
D03*
X40461D02*
D03*
X34555D02*
D03*
X28650D02*
D03*
D85*
X102469Y-354526D02*
D03*
Y-360431D02*
D03*
Y-366337D02*
D03*
Y-372242D02*
D03*
Y-378148D02*
D03*
Y-384053D02*
D03*
Y-389959D02*
D03*
Y-395864D02*
D03*
D86*
X22744Y-400786D02*
D03*
D87*
X50000Y-12350D02*
D03*
Y-18650D02*
D03*
X37500Y-12350D02*
D03*
Y-18650D02*
D03*
X322000Y-11350D02*
D03*
Y-17650D02*
D03*
X334000Y-11350D02*
D03*
Y-17650D02*
D03*
D88*
X55150Y-427000D02*
D03*
X48850D02*
D03*
X55011Y-416881D02*
D03*
X48712D02*
D03*
X48850Y-436000D02*
D03*
X55150D02*
D03*
X362150Y-238000D02*
D03*
X355850D02*
D03*
X357350Y-108500D02*
D03*
X363650D02*
D03*
X14350Y-114500D02*
D03*
X20650D02*
D03*
X13350Y-262000D02*
D03*
X19650D02*
D03*
D89*
X128770Y-281094D02*
D03*
X141663D02*
D03*
D90*
X309116Y-74604D02*
D03*
Y-46506D02*
D03*
D91*
X144538Y-329242D02*
D03*
Y-330621D02*
D03*
D92*
X141979Y-329931D02*
D03*
D93*
X275000Y-275000D02*
D03*
X311000Y-188000D02*
D03*
X101000Y-101000D02*
D03*
X65000Y-188000D02*
D03*
X101000Y-275000D02*
D03*
D94*
X249186Y-366531D02*
D03*
Y-374405D02*
D03*
Y-382279D02*
D03*
Y-390153D02*
D03*
Y-398027D02*
D03*
D95*
Y-405901D02*
D03*
D96*
X343000Y-44500D02*
D03*
Y-417500D02*
D03*
X31500Y-437500D02*
D03*
X32104Y-64319D02*
D03*
D97*
X343000Y-54500D02*
D03*
Y-64500D02*
D03*
Y-427500D02*
D03*
Y-437500D02*
D03*
X31500Y-427500D02*
D03*
Y-417500D02*
D03*
X32104Y-54318D02*
D03*
Y-44319D02*
D03*
D98*
X54000Y-63000D02*
D03*
X361000Y-177500D02*
D03*
D99*
X54000Y-53000D02*
D03*
X344268Y-76972D02*
D03*
X361000Y-187500D02*
D03*
Y-197500D02*
D03*
Y-207500D02*
D03*
D100*
X334268Y-76972D02*
D03*
D101*
X188500Y-374500D02*
D03*
D102*
X176321Y-323241D02*
D03*
D103*
X171320D02*
D03*
D104*
X166321D02*
D03*
D105*
X156299Y-215831D02*
D03*
Y-205831D02*
D03*
Y-195831D02*
D03*
Y-185831D02*
D03*
Y-175831D02*
D03*
Y-165831D02*
D03*
Y-155831D02*
D03*
Y-145831D02*
D03*
Y-135831D02*
D03*
D106*
Y-125831D02*
D03*
D107*
X168008Y-354287D02*
D03*
X208475Y-394367D02*
D03*
Y-354287D02*
D03*
X167233Y-394625D02*
D03*
D108*
X12889Y-230428D02*
D03*
X22889D02*
D03*
X12889Y-220428D02*
D03*
X22889D02*
D03*
X12889Y-210428D02*
D03*
X22889D02*
D03*
X12889Y-200428D02*
D03*
X22889D02*
D03*
X12889Y-190428D02*
D03*
X22889D02*
D03*
X12889Y-180428D02*
D03*
X22889D02*
D03*
X12889Y-170428D02*
D03*
X22889D02*
D03*
X12889Y-160428D02*
D03*
X22889D02*
D03*
X12889Y-150428D02*
D03*
X22889D02*
D03*
D109*
X233038Y-433565D02*
D03*
Y-423565D02*
D03*
X223038Y-433565D02*
D03*
Y-423565D02*
D03*
X213038Y-433565D02*
D03*
Y-423565D02*
D03*
X203038Y-433565D02*
D03*
Y-423565D02*
D03*
X193038Y-433565D02*
D03*
Y-423565D02*
D03*
X183038Y-433565D02*
D03*
Y-423565D02*
D03*
X173038Y-433565D02*
D03*
Y-423565D02*
D03*
X163038Y-433565D02*
D03*
Y-423565D02*
D03*
X153038Y-433565D02*
D03*
Y-423565D02*
D03*
D110*
X161102Y-382446D02*
D03*
X198000Y-402000D02*
D03*
X189189Y-407523D02*
D03*
X180488Y-349220D02*
D03*
X183099Y-344067D02*
D03*
X215159Y-366535D02*
D03*
X194066Y-404446D02*
D03*
X157281Y-378766D02*
D03*
X153198Y-375418D02*
D03*
X187765Y-341110D02*
D03*
X216500Y-309000D02*
D03*
X219635Y-369746D02*
D03*
D111*
X301872Y-10999D02*
D03*
X333494Y-394737D02*
D03*
X123750Y-403085D02*
D03*
X238230Y-333281D02*
D03*
X269095Y-329951D02*
D03*
X223280Y-374125D02*
D03*
X226500Y-314500D02*
D03*
X255500D02*
D03*
X285821Y-313875D02*
D03*
X244146Y-312404D02*
D03*
X149452Y-318606D02*
D03*
X283221Y-303128D02*
D03*
X121000Y-289500D02*
D03*
X289000Y-366000D02*
D03*
X48500Y-422500D02*
D03*
X226000Y-289000D02*
D03*
X252000Y-277000D02*
D03*
X328500Y-332500D02*
D03*
X323000Y-292000D02*
D03*
X356000Y-245000D02*
D03*
X364500Y-115500D02*
D03*
X310500Y-168000D02*
D03*
X322000Y-22500D02*
D03*
X334500Y-26500D02*
D03*
X361500Y-24500D02*
D03*
X50000Y-25000D02*
D03*
X28500Y-27500D02*
D03*
X66500Y-34500D02*
D03*
X60500Y-26000D02*
D03*
X316500Y-36000D02*
D03*
X210500Y-99000D02*
D03*
X200500Y-100000D02*
D03*
X46000Y-309500D02*
D03*
X19000Y-316000D02*
D03*
X15000Y-299000D02*
D03*
X89500Y-329500D02*
D03*
X14000Y-276000D02*
D03*
X33500Y-287500D02*
D03*
X103000Y-303000D02*
D03*
X29000Y-81000D02*
D03*
X42000Y-74000D02*
D03*
X229000Y-337000D02*
D03*
X256000Y-293500D02*
D03*
X242500Y-324000D02*
D03*
M02*
