%FSLAX25Y25*%
%MOIN*%
G70*
G01*
G75*
G04 Layer_Physical_Order=2*
G04 Layer_Color=36540*
%ADD10R,0.03740X0.03937*%
%ADD11P,0.04454X4X90.0*%
G04:AMPARAMS|DCode=12|XSize=37.4mil|YSize=39.37mil|CornerRadius=0mil|HoleSize=0mil|Usage=FLASHONLY|Rotation=315.000|XOffset=0mil|YOffset=0mil|HoleType=Round|Shape=Rectangle|*
%AMROTATEDRECTD12*
4,1,4,-0.02714,-0.00070,0.00070,0.02714,0.02714,0.00070,-0.00070,-0.02714,-0.02714,-0.00070,0.0*
%
%ADD12ROTATEDRECTD12*%

%ADD13R,0.04200X0.02500*%
G04:AMPARAMS|DCode=14|XSize=106.3mil|YSize=62.99mil|CornerRadius=0mil|HoleSize=0mil|Usage=FLASHONLY|Rotation=225.000|XOffset=0mil|YOffset=0mil|HoleType=Round|Shape=Rectangle|*
%AMROTATEDRECTD14*
4,1,4,0.01531,0.05985,0.05985,0.01531,-0.01531,-0.05985,-0.05985,-0.01531,0.01531,0.05985,0.0*
%
%ADD14ROTATEDRECTD14*%

G04:AMPARAMS|DCode=15|XSize=106.3mil|YSize=62.99mil|CornerRadius=0mil|HoleSize=0mil|Usage=FLASHONLY|Rotation=315.000|XOffset=0mil|YOffset=0mil|HoleType=Round|Shape=Rectangle|*
%AMROTATEDRECTD15*
4,1,4,-0.05985,0.01531,-0.01531,0.05985,0.05985,-0.01531,0.01531,-0.05985,-0.05985,0.01531,0.0*
%
%ADD15ROTATEDRECTD15*%

G04:AMPARAMS|DCode=16|XSize=15.75mil|YSize=33.47mil|CornerRadius=0mil|HoleSize=0mil|Usage=FLASHONLY|Rotation=135.000|XOffset=0mil|YOffset=0mil|HoleType=Round|Shape=Rectangle|*
%AMROTATEDRECTD16*
4,1,4,0.01740,0.00626,-0.00626,-0.01740,-0.01740,-0.00626,0.00626,0.01740,0.01740,0.00626,0.0*
%
%ADD16ROTATEDRECTD16*%

G04:AMPARAMS|DCode=17|XSize=15.75mil|YSize=33.47mil|CornerRadius=0mil|HoleSize=0mil|Usage=FLASHONLY|Rotation=225.000|XOffset=0mil|YOffset=0mil|HoleType=Round|Shape=Rectangle|*
%AMROTATEDRECTD17*
4,1,4,-0.00626,0.01740,0.01740,-0.00626,0.00626,-0.01740,-0.01740,0.00626,-0.00626,0.01740,0.0*
%
%ADD17ROTATEDRECTD17*%

%ADD18R,0.04331X0.02559*%
%ADD19R,0.03150X0.03150*%
%ADD20O,0.03937X0.09843*%
%ADD21O,0.09843X0.03937*%
%ADD22R,0.03937X0.09843*%
%ADD23R,0.03150X0.03150*%
%ADD24R,0.03937X0.03740*%
%ADD25R,0.03602X0.04803*%
%ADD26R,0.15000X0.11000*%
%ADD27R,0.01024X0.00630*%
%ADD28R,0.01024X0.02008*%
%ADD29C,0.01500*%
%ADD30C,0.02000*%
%ADD31C,0.07500*%
%ADD32C,0.04000*%
%ADD33C,0.03000*%
%ADD34C,0.02500*%
%ADD35C,0.05000*%
%ADD36C,0.01000*%
%ADD37C,0.10000*%
%ADD38C,0.11800*%
%ADD39R,0.06496X0.06496*%
%ADD40C,0.06496*%
%ADD41O,0.10000X0.06000*%
%ADD42R,0.10000X0.05500*%
%ADD43R,0.06693X0.06693*%
%ADD44C,0.06693*%
%ADD45R,0.06496X0.06496*%
%ADD46C,0.28000*%
%ADD47R,0.04000X0.07874*%
%ADD48O,0.04000X0.07874*%
%ADD49O,0.03937X0.07874*%
%ADD50O,0.09843X0.06000*%
%ADD51R,0.09843X0.06000*%
%ADD52C,0.16000*%
%ADD53R,0.06000X0.06000*%
%ADD54R,0.06000X0.06000*%
%ADD55C,0.04000*%
%ADD56C,0.05000*%
G36*
X363000Y-18392D02*
X362248Y-19051D01*
X361500Y-18952D01*
X360064Y-19142D01*
X358726Y-19696D01*
X357577Y-20577D01*
X356696Y-21726D01*
X356142Y-23064D01*
X355953Y-24500D01*
X356142Y-25936D01*
X356696Y-27274D01*
X357577Y-28423D01*
X358726Y-29304D01*
X360064Y-29858D01*
X361500Y-30048D01*
X362248Y-29949D01*
X363000Y-30608D01*
Y-110168D01*
X361726Y-110696D01*
X360577Y-111577D01*
X359696Y-112726D01*
X359142Y-114064D01*
X358952Y-115500D01*
X359142Y-116936D01*
X359696Y-118274D01*
X360577Y-119423D01*
X361726Y-120304D01*
X363000Y-120832D01*
Y-173252D01*
X362250D01*
Y-177500D01*
X361000D01*
Y-178750D01*
X356752D01*
Y-181748D01*
X356752D01*
X356752Y-182904D01*
X356561Y-183061D01*
X355780Y-184012D01*
X355200Y-185097D01*
X354842Y-186275D01*
X354722Y-187500D01*
X354842Y-188725D01*
X355200Y-189903D01*
X355780Y-190988D01*
X356561Y-191939D01*
X356634Y-192000D01*
Y-193000D01*
X356561Y-193061D01*
X355780Y-194012D01*
X355200Y-195097D01*
X354842Y-196275D01*
X354722Y-197500D01*
X354842Y-198725D01*
X355200Y-199903D01*
X355780Y-200988D01*
X356561Y-201939D01*
X356634Y-202000D01*
Y-203000D01*
X356561Y-203061D01*
X355780Y-204012D01*
X355200Y-205097D01*
X354842Y-206275D01*
X354722Y-207500D01*
X354842Y-208725D01*
X355200Y-209903D01*
X355780Y-210988D01*
X356561Y-211939D01*
X357512Y-212720D01*
X358597Y-213300D01*
X359775Y-213658D01*
X361000Y-213778D01*
X362225Y-213658D01*
X363000Y-214232D01*
Y-442293D01*
X362500Y-442500D01*
Y-442500D01*
X362500Y-442500D01*
X348276D01*
X347849Y-441596D01*
X348302Y-441043D01*
X348892Y-439940D01*
X349255Y-438744D01*
X349377Y-437500D01*
X349255Y-436256D01*
X348892Y-435060D01*
X348302Y-433957D01*
X347509Y-432991D01*
Y-432009D01*
X348302Y-431043D01*
X348892Y-429940D01*
X349255Y-428744D01*
X349377Y-427500D01*
X349255Y-426256D01*
X348892Y-425060D01*
X348702Y-424704D01*
X349216Y-423846D01*
X349346D01*
Y-411154D01*
X336653D01*
Y-423846D01*
X336784D01*
X337298Y-424704D01*
X337108Y-425060D01*
X336745Y-426256D01*
X336623Y-427500D01*
X336745Y-428744D01*
X337108Y-429940D01*
X337698Y-431043D01*
X338491Y-432009D01*
Y-432991D01*
X337698Y-433957D01*
X337108Y-435060D01*
X336745Y-436256D01*
X336623Y-437500D01*
X336745Y-438744D01*
X337108Y-439940D01*
X337698Y-441043D01*
X338152Y-441596D01*
X337724Y-442500D01*
X191115D01*
X190732Y-441576D01*
X192744Y-439565D01*
X239038D01*
Y-429565D01*
Y-417565D01*
X221287D01*
X217073Y-417038D01*
X216935Y-415994D01*
X216532Y-415021D01*
X215891Y-414185D01*
X211853Y-410147D01*
X211017Y-409506D01*
X210044Y-409103D01*
X209000Y-408965D01*
X209000Y-408965D01*
X197944D01*
X197623Y-408019D01*
X197632Y-408012D01*
X198433Y-406967D01*
X198937Y-405751D01*
X199061Y-404808D01*
X199513Y-404621D01*
X200140Y-404140D01*
X200621Y-403513D01*
X200720Y-403273D01*
X201692Y-403040D01*
X201990Y-403294D01*
X203466Y-404199D01*
X205065Y-404861D01*
X206749Y-405265D01*
X208475Y-405401D01*
X210201Y-405265D01*
X211885Y-404861D01*
X213485Y-404199D01*
X214961Y-403294D01*
X216277Y-402169D01*
X217402Y-400853D01*
X218307Y-399377D01*
X218969Y-397777D01*
X219373Y-396093D01*
X219509Y-394367D01*
X219373Y-392641D01*
X218969Y-390957D01*
X218307Y-389358D01*
X217402Y-387881D01*
X216277Y-386565D01*
X214961Y-385440D01*
X213485Y-384536D01*
X211885Y-383873D01*
X210201Y-383469D01*
X208475Y-383333D01*
X206749Y-383469D01*
X205065Y-383873D01*
X203466Y-384536D01*
X203379Y-384589D01*
X202686Y-383868D01*
X203254Y-383018D01*
X204240Y-381020D01*
X204956Y-378909D01*
X205391Y-376724D01*
X205537Y-374500D01*
X205391Y-372276D01*
X204956Y-370091D01*
X204240Y-367980D01*
X203254Y-365982D01*
X202295Y-364547D01*
X202989Y-363826D01*
X203466Y-364119D01*
X205065Y-364781D01*
X206749Y-365186D01*
X208475Y-365321D01*
X210201Y-365186D01*
X211650Y-364838D01*
X212032Y-365285D01*
X215159D01*
Y-367488D01*
X215035Y-367785D01*
X212429D01*
X212538Y-368048D01*
X213019Y-368675D01*
X213646Y-369155D01*
X214375Y-369458D01*
X214593Y-369741D01*
X214592Y-369746D01*
X214764Y-371052D01*
X215268Y-372268D01*
X216069Y-373312D01*
X217113Y-374114D01*
X217766Y-374384D01*
X217921Y-375561D01*
X218475Y-376899D01*
X219357Y-378048D01*
X220506Y-378930D01*
X221844Y-379484D01*
X223280Y-379673D01*
X224715Y-379484D01*
X226053Y-378930D01*
X227202Y-378048D01*
X228084Y-376899D01*
X228638Y-375561D01*
X228827Y-374125D01*
X228638Y-372690D01*
X228084Y-371352D01*
X227202Y-370203D01*
X226053Y-369321D01*
X224715Y-368767D01*
X224546Y-368745D01*
X224506Y-368441D01*
X224003Y-367225D01*
X223201Y-366180D01*
X222157Y-365379D01*
X220940Y-364875D01*
X219635Y-364703D01*
X218330Y-364875D01*
X217808Y-365091D01*
X217779Y-365022D01*
X217298Y-364395D01*
X216671Y-363914D01*
X215942Y-363612D01*
X215907Y-363608D01*
X215623Y-362649D01*
X216277Y-362090D01*
X217402Y-360773D01*
X218307Y-359297D01*
X218969Y-357697D01*
X219373Y-356013D01*
X219509Y-354287D01*
X219373Y-352561D01*
X218969Y-350878D01*
X218307Y-349278D01*
X217402Y-347802D01*
X216277Y-346485D01*
X214961Y-345361D01*
X213485Y-344456D01*
X211885Y-343793D01*
X210201Y-343389D01*
X208475Y-343253D01*
X206749Y-343389D01*
X205065Y-343793D01*
X203466Y-344456D01*
X201990Y-345361D01*
X200673Y-346485D01*
X199548Y-347802D01*
X198644Y-349278D01*
X197981Y-350878D01*
X197577Y-352561D01*
X197441Y-354287D01*
X197577Y-356013D01*
X197981Y-357697D01*
X198644Y-359297D01*
X199018Y-359908D01*
X198297Y-360601D01*
X197018Y-359746D01*
X195020Y-358760D01*
X192909Y-358044D01*
X190724Y-357609D01*
X188500Y-357464D01*
X186276Y-357609D01*
X184091Y-358044D01*
X181980Y-358760D01*
X179982Y-359746D01*
X178129Y-360984D01*
X177774Y-361295D01*
X177010Y-360650D01*
X177839Y-359297D01*
X178502Y-357697D01*
X178906Y-356013D01*
X179042Y-354287D01*
X179006Y-353831D01*
X179238Y-353270D01*
Y-349220D01*
X181738D01*
Y-351949D01*
X182001Y-351840D01*
X182628Y-351360D01*
X183109Y-350733D01*
X183411Y-350003D01*
X183514Y-349220D01*
X183493Y-349058D01*
X184404Y-348938D01*
X185620Y-348435D01*
X186665Y-347633D01*
X187466Y-346589D01*
X187653Y-346139D01*
X187765Y-346154D01*
X189070Y-345982D01*
X190286Y-345478D01*
X191331Y-344677D01*
X192132Y-343632D01*
X192636Y-342416D01*
X192808Y-341110D01*
X192636Y-339805D01*
X192132Y-338589D01*
X191331Y-337544D01*
X190286Y-336743D01*
X189070Y-336239D01*
X187765Y-336067D01*
X186460Y-336239D01*
X185243Y-336743D01*
X184199Y-337544D01*
X183397Y-338589D01*
X183211Y-339039D01*
X183099Y-339024D01*
X181793Y-339196D01*
X180577Y-339700D01*
X179533Y-340501D01*
X178731Y-341546D01*
X178227Y-342762D01*
X178056Y-344067D01*
X178227Y-345373D01*
X178731Y-346589D01*
X178827Y-346713D01*
X178349Y-347080D01*
X177872Y-347702D01*
X176872Y-347728D01*
X175810Y-346485D01*
X174494Y-345361D01*
X173017Y-344456D01*
X171418Y-343793D01*
X169734Y-343389D01*
X168008Y-343253D01*
X166282Y-343389D01*
X164598Y-343793D01*
X162999Y-344456D01*
X161522Y-345361D01*
X160206Y-346485D01*
X159081Y-347802D01*
X158177Y-349278D01*
X157514Y-350878D01*
X157110Y-352561D01*
X156974Y-354287D01*
X157110Y-356013D01*
X157514Y-357697D01*
X158177Y-359297D01*
X159081Y-360773D01*
X160206Y-362090D01*
X161522Y-363214D01*
X162999Y-364119D01*
X164598Y-364781D01*
X166282Y-365186D01*
X168008Y-365321D01*
X169734Y-365186D01*
X171418Y-364781D01*
X173017Y-364119D01*
X174445Y-363244D01*
X175090Y-364008D01*
X174984Y-364129D01*
X173746Y-365982D01*
X172760Y-367980D01*
X172044Y-370091D01*
X171609Y-372276D01*
X171464Y-374500D01*
X171609Y-376724D01*
X172044Y-378909D01*
X172760Y-381020D01*
X173746Y-383018D01*
X174984Y-384871D01*
X176453Y-386547D01*
X178129Y-388016D01*
X179982Y-389254D01*
X181980Y-390240D01*
X184091Y-390956D01*
X186276Y-391391D01*
X188500Y-391536D01*
X190724Y-391391D01*
X192909Y-390956D01*
X195020Y-390240D01*
X197018Y-389254D01*
X197939Y-388639D01*
X198660Y-389332D01*
X198644Y-389358D01*
X197981Y-390957D01*
X197577Y-392641D01*
X197441Y-394367D01*
X197577Y-396093D01*
X197981Y-397777D01*
X198138Y-398156D01*
X197638Y-399022D01*
X197217Y-399077D01*
X196487Y-399379D01*
X195931Y-399806D01*
X195371Y-399574D01*
X194066Y-399402D01*
X192760Y-399574D01*
X191544Y-400078D01*
X190500Y-400879D01*
X189698Y-401924D01*
X189453Y-402515D01*
X189189Y-402480D01*
X187884Y-402652D01*
X186668Y-403156D01*
X185623Y-403957D01*
X184822Y-405001D01*
X184318Y-406218D01*
X184146Y-407523D01*
X184237Y-408214D01*
X183578Y-408965D01*
X66171D01*
X35034Y-377829D01*
Y-326671D01*
X46758Y-314948D01*
X47436Y-314858D01*
X48774Y-314304D01*
X49923Y-313423D01*
X50804Y-312274D01*
X51358Y-310936D01*
X51547Y-309500D01*
X51358Y-308064D01*
X50804Y-306726D01*
X49923Y-305577D01*
X48774Y-304696D01*
X47436Y-304142D01*
X46000Y-303953D01*
X44564Y-304142D01*
X43226Y-304696D01*
X42077Y-305577D01*
X41196Y-306726D01*
X40642Y-308064D01*
X40453Y-309500D01*
X40492Y-309802D01*
X29958Y-320336D01*
X29035Y-319953D01*
Y-300000D01*
X28897Y-298956D01*
X28494Y-297983D01*
X27853Y-297147D01*
X24534Y-293829D01*
Y-288280D01*
X25533Y-288231D01*
X25616Y-289068D01*
X26073Y-290576D01*
X26816Y-291966D01*
X27816Y-293184D01*
X29034Y-294184D01*
X30424Y-294927D01*
X31932Y-295384D01*
X33500Y-295539D01*
X67670D01*
X80316Y-308184D01*
X80316Y-308184D01*
X81534Y-309184D01*
D01*
D01*
Y-309184D01*
X81534Y-309184D01*
D01*
D01*
X81534D01*
X81534Y-309184D01*
D01*
X81534D01*
Y-309184D01*
X82924Y-309927D01*
X84432Y-310384D01*
X86000Y-310539D01*
X102500D01*
X104068Y-310384D01*
X105576Y-309927D01*
X106966Y-309184D01*
X108184Y-308184D01*
X109184Y-306966D01*
X109927Y-305576D01*
X110384Y-304068D01*
X110539Y-302500D01*
X110384Y-300932D01*
X109927Y-299424D01*
X109184Y-298034D01*
X108184Y-296816D01*
X106966Y-295816D01*
X105576Y-295073D01*
X104068Y-294616D01*
X102500Y-294461D01*
X89330D01*
X76684Y-281816D01*
X75466Y-280816D01*
X74076Y-280073D01*
X72568Y-279616D01*
X71000Y-279461D01*
X71000Y-279461D01*
X33500D01*
X31932Y-279616D01*
X30424Y-280073D01*
X29034Y-280816D01*
X27816Y-281816D01*
X26816Y-283034D01*
X26073Y-284424D01*
X25616Y-285932D01*
X25533Y-286769D01*
X24534Y-286720D01*
Y-253500D01*
X24397Y-252456D01*
X23994Y-251483D01*
X23353Y-250647D01*
X13000Y-240294D01*
Y-236428D01*
X28889D01*
Y-226428D01*
Y-216428D01*
Y-206428D01*
Y-196428D01*
Y-186428D01*
Y-176428D01*
Y-166428D01*
Y-156428D01*
Y-153301D01*
X29266Y-152596D01*
X29652Y-151323D01*
X29783Y-150000D01*
Y-136000D01*
X29664Y-134795D01*
X29652Y-134677D01*
X29266Y-133404D01*
X28931Y-132778D01*
X28640Y-132232D01*
X28488Y-132047D01*
X27796Y-131204D01*
X22783Y-126190D01*
Y-82925D01*
X23764Y-82730D01*
X24196Y-83774D01*
X25077Y-84923D01*
X26226Y-85804D01*
X27564Y-86358D01*
X29000Y-86547D01*
X30436Y-86358D01*
X31774Y-85804D01*
X32923Y-84923D01*
X33804Y-83774D01*
X34358Y-82436D01*
X34547Y-81000D01*
X34358Y-79564D01*
X33804Y-78226D01*
X32923Y-77077D01*
X31774Y-76196D01*
X30436Y-75642D01*
X29000Y-75453D01*
X27564Y-75642D01*
X26226Y-76196D01*
X25077Y-77077D01*
X24196Y-78226D01*
X23764Y-79270D01*
X22783Y-79075D01*
Y-30652D01*
X22952Y-30582D01*
X23730Y-30318D01*
X24577Y-31423D01*
X25726Y-32304D01*
X27064Y-32858D01*
X28500Y-33048D01*
X29936Y-32858D01*
X31274Y-32304D01*
X32423Y-31423D01*
X33304Y-30274D01*
X33858Y-28936D01*
X34047Y-27500D01*
X33858Y-26064D01*
X33304Y-24726D01*
X32423Y-23577D01*
X31274Y-22696D01*
X29936Y-22142D01*
X29302Y-22058D01*
X28981Y-21111D01*
X30810Y-19283D01*
X46848D01*
X46918Y-19452D01*
X47182Y-20230D01*
X46077Y-21077D01*
X45196Y-22226D01*
X44642Y-23564D01*
X44453Y-25000D01*
X44642Y-26436D01*
X45196Y-27774D01*
X46077Y-28923D01*
X47226Y-29804D01*
X48564Y-30358D01*
X50000Y-30547D01*
X51436Y-30358D01*
X52774Y-29804D01*
X53923Y-28923D01*
X54505Y-28163D01*
X55497Y-28294D01*
X55696Y-28774D01*
X56577Y-29923D01*
X57726Y-30804D01*
X59064Y-31358D01*
X60500Y-31547D01*
X60852Y-31501D01*
X61460Y-32294D01*
X61142Y-33064D01*
X60953Y-34500D01*
X61142Y-35936D01*
X61696Y-37274D01*
X62577Y-38423D01*
X63726Y-39304D01*
X65064Y-39858D01*
X66500Y-40047D01*
X67936Y-39858D01*
X69274Y-39304D01*
X70423Y-38423D01*
X71304Y-37274D01*
X71858Y-35936D01*
X72048Y-34500D01*
X71858Y-33064D01*
X71304Y-31726D01*
X70423Y-30577D01*
X69274Y-29696D01*
X67936Y-29142D01*
X66500Y-28953D01*
X66148Y-28999D01*
X65540Y-28205D01*
X65858Y-27436D01*
X66048Y-26000D01*
X65858Y-24564D01*
X65304Y-23226D01*
X64423Y-22077D01*
X63274Y-21196D01*
X61936Y-20642D01*
X60500Y-20452D01*
X59064Y-20642D01*
X57726Y-21196D01*
X56577Y-22077D01*
X55995Y-22837D01*
X55003Y-22706D01*
X54804Y-22226D01*
X53923Y-21077D01*
X52818Y-20230D01*
X53082Y-19452D01*
X53152Y-19283D01*
X75634D01*
X75971Y-20224D01*
X75561Y-20561D01*
X74780Y-21512D01*
X74200Y-22597D01*
X73842Y-23775D01*
X73722Y-25000D01*
X73842Y-26225D01*
X74200Y-27403D01*
X74780Y-28488D01*
X75561Y-29439D01*
X75634Y-29500D01*
Y-30500D01*
X75561Y-30561D01*
X74780Y-31512D01*
X74200Y-32597D01*
X73842Y-33775D01*
X73722Y-35000D01*
X73842Y-36225D01*
X74200Y-37403D01*
X74780Y-38488D01*
X75561Y-39439D01*
X75634Y-39500D01*
Y-40500D01*
X75561Y-40561D01*
X74780Y-41512D01*
X74200Y-42597D01*
X73842Y-43775D01*
X73722Y-45000D01*
X73842Y-46225D01*
X74200Y-47403D01*
X74780Y-48488D01*
X75561Y-49439D01*
X75634Y-49500D01*
Y-50500D01*
X75561Y-50561D01*
X74780Y-51512D01*
X74200Y-52597D01*
X73842Y-53775D01*
X73722Y-55000D01*
X73842Y-56225D01*
X74200Y-57403D01*
X74780Y-58488D01*
X75561Y-59439D01*
X75634Y-59500D01*
Y-60500D01*
X75561Y-60561D01*
X74780Y-61512D01*
X74200Y-62597D01*
X73842Y-63775D01*
X73722Y-65000D01*
X73842Y-66225D01*
X74200Y-67403D01*
X74780Y-68488D01*
X75561Y-69439D01*
X75634Y-69500D01*
Y-70500D01*
X75561Y-70561D01*
X74780Y-71512D01*
X74200Y-72597D01*
X73842Y-73775D01*
X73722Y-75000D01*
X73842Y-76225D01*
X74200Y-77403D01*
X74780Y-78488D01*
X75561Y-79439D01*
X75634Y-79500D01*
Y-80500D01*
X75561Y-80561D01*
X74780Y-81512D01*
X74200Y-82597D01*
X73842Y-83775D01*
X73722Y-85000D01*
X73842Y-86225D01*
X74200Y-87403D01*
X74780Y-88488D01*
X75561Y-89439D01*
X75634Y-89500D01*
Y-90500D01*
X75561Y-90561D01*
X74780Y-91512D01*
X74200Y-92597D01*
X73842Y-93775D01*
X73722Y-95000D01*
X73842Y-96225D01*
X74200Y-97403D01*
X74780Y-98488D01*
X75561Y-99439D01*
X75634Y-99500D01*
Y-100500D01*
X75561Y-100561D01*
X74780Y-101512D01*
X74200Y-102597D01*
X73842Y-103775D01*
X73722Y-105000D01*
X73842Y-106225D01*
X74200Y-107403D01*
X74780Y-108488D01*
X75561Y-109439D01*
X75634Y-109500D01*
Y-110500D01*
X75561Y-110561D01*
X74780Y-111512D01*
X74200Y-112597D01*
X73842Y-113775D01*
X73722Y-115000D01*
X73842Y-116225D01*
X74200Y-117403D01*
X74780Y-118488D01*
X75561Y-119439D01*
X75634Y-119500D01*
Y-120500D01*
X75561Y-120561D01*
X74780Y-121512D01*
X74200Y-122597D01*
X73842Y-123775D01*
X73722Y-125000D01*
X73842Y-126225D01*
X74200Y-127403D01*
X74780Y-128488D01*
X75561Y-129439D01*
X75634Y-129500D01*
Y-130500D01*
X75561Y-130561D01*
X74780Y-131512D01*
X74200Y-132597D01*
X73842Y-133775D01*
X73722Y-135000D01*
X73842Y-136225D01*
X74200Y-137403D01*
X74780Y-138488D01*
X75561Y-139439D01*
X75634Y-139500D01*
Y-140500D01*
X75561Y-140561D01*
X74780Y-141512D01*
X74200Y-142597D01*
X73842Y-143775D01*
X73722Y-145000D01*
X73842Y-146225D01*
X74200Y-147403D01*
X74780Y-148488D01*
X75561Y-149439D01*
X75634Y-149500D01*
Y-150500D01*
X75561Y-150561D01*
X74780Y-151512D01*
X74200Y-152597D01*
X73842Y-153775D01*
X73722Y-155000D01*
X73842Y-156225D01*
X74200Y-157403D01*
X74780Y-158488D01*
X75561Y-159439D01*
X75634Y-159500D01*
Y-160500D01*
X75561Y-160561D01*
X74780Y-161512D01*
X74200Y-162597D01*
X73842Y-163775D01*
X73722Y-165000D01*
X73842Y-166225D01*
X74200Y-167403D01*
X74780Y-168488D01*
X75561Y-169439D01*
X75634Y-169500D01*
Y-170500D01*
X75561Y-170561D01*
X74780Y-171512D01*
X74200Y-172597D01*
X73842Y-173775D01*
X73722Y-175000D01*
X73842Y-176225D01*
X74200Y-177403D01*
X74780Y-178488D01*
X75561Y-179439D01*
X75634Y-179500D01*
Y-180500D01*
X75561Y-180561D01*
X74780Y-181512D01*
X74200Y-182597D01*
X73856Y-183729D01*
X73616Y-183753D01*
X72777Y-183670D01*
X72436Y-183031D01*
X71324Y-181676D01*
X69968Y-180564D01*
X68422Y-179738D01*
X66745Y-179229D01*
X65000Y-179057D01*
X63255Y-179229D01*
X61578Y-179738D01*
X60031Y-180564D01*
X58676Y-181676D01*
X57564Y-183031D01*
X56738Y-184578D01*
X56229Y-186255D01*
X56057Y-188000D01*
X56229Y-189745D01*
X56738Y-191422D01*
X57564Y-192968D01*
X58676Y-194324D01*
X60031Y-195436D01*
X61578Y-196262D01*
X63255Y-196771D01*
X65000Y-196943D01*
X66745Y-196771D01*
X68422Y-196262D01*
X69968Y-195436D01*
X71324Y-194324D01*
X72436Y-192968D01*
X73262Y-191422D01*
X73771Y-189745D01*
X73846Y-188987D01*
X74524Y-188625D01*
X74819Y-188535D01*
X75561Y-189439D01*
X75634Y-189500D01*
Y-190500D01*
X75561Y-190561D01*
X74780Y-191512D01*
X74200Y-192597D01*
X73842Y-193775D01*
X73722Y-195000D01*
X73842Y-196225D01*
X74200Y-197403D01*
X74780Y-198488D01*
X75561Y-199439D01*
X75634Y-199500D01*
Y-200500D01*
X75561Y-200561D01*
X74780Y-201512D01*
X74200Y-202597D01*
X73842Y-203775D01*
X73722Y-205000D01*
X73842Y-206225D01*
X74200Y-207403D01*
X74780Y-208488D01*
X75561Y-209439D01*
X75634Y-209500D01*
Y-210500D01*
X75561Y-210561D01*
X74780Y-211512D01*
X74200Y-212597D01*
X73842Y-213775D01*
X73722Y-215000D01*
X73842Y-216225D01*
X74200Y-217403D01*
X74780Y-218488D01*
X75561Y-219439D01*
X75634Y-219500D01*
Y-220500D01*
X75561Y-220561D01*
X74780Y-221512D01*
X74200Y-222597D01*
X73842Y-223775D01*
X73722Y-225000D01*
X73842Y-226225D01*
X74200Y-227403D01*
X74780Y-228488D01*
X75561Y-229439D01*
X75634Y-229500D01*
Y-230500D01*
X75561Y-230561D01*
X74780Y-231512D01*
X74200Y-232597D01*
X73842Y-233775D01*
X73722Y-235000D01*
X73842Y-236225D01*
X74200Y-237403D01*
X74780Y-238488D01*
X75561Y-239439D01*
X75634Y-239500D01*
Y-240500D01*
X75561Y-240561D01*
X74780Y-241512D01*
X74200Y-242597D01*
X73842Y-243775D01*
X73722Y-245000D01*
X73842Y-246225D01*
X74200Y-247403D01*
X74780Y-248488D01*
X75561Y-249439D01*
X76512Y-250220D01*
X77597Y-250800D01*
X78775Y-251158D01*
X80000Y-251278D01*
X81225Y-251158D01*
X82403Y-250800D01*
X83488Y-250220D01*
X84439Y-249439D01*
X84500Y-249366D01*
X85500D01*
X85561Y-249439D01*
X86512Y-250220D01*
X87597Y-250800D01*
X88775Y-251158D01*
X90000Y-251278D01*
X91225Y-251158D01*
X92403Y-250800D01*
X93488Y-250220D01*
X94439Y-249439D01*
X95220Y-248488D01*
X95800Y-247403D01*
X96158Y-246225D01*
X96278Y-245000D01*
X96158Y-243775D01*
X95800Y-242597D01*
X95220Y-241512D01*
X94439Y-240561D01*
X94366Y-240500D01*
Y-239500D01*
X94439Y-239439D01*
X95220Y-238488D01*
X95800Y-237403D01*
X96158Y-236225D01*
X96278Y-235000D01*
X96158Y-233775D01*
X95800Y-232597D01*
X95538Y-232106D01*
X96052Y-231248D01*
X96248D01*
Y-218752D01*
X96052D01*
X95538Y-217894D01*
X95800Y-217403D01*
X96158Y-216225D01*
X96278Y-215000D01*
X96158Y-213775D01*
X95800Y-212597D01*
X95220Y-211512D01*
X94439Y-210561D01*
X94366Y-210500D01*
Y-209500D01*
X94439Y-209439D01*
X95220Y-208488D01*
X95800Y-207403D01*
X96158Y-206225D01*
X96278Y-205000D01*
X96158Y-203775D01*
X95800Y-202597D01*
X95220Y-201512D01*
X94439Y-200561D01*
X94366Y-200500D01*
Y-199500D01*
X94439Y-199439D01*
X95220Y-198488D01*
X95800Y-197403D01*
X96158Y-196225D01*
X96278Y-195000D01*
X96158Y-193775D01*
X95800Y-192597D01*
X95220Y-191512D01*
X94439Y-190561D01*
X94366Y-190500D01*
Y-189500D01*
X94439Y-189439D01*
X95220Y-188488D01*
X95800Y-187403D01*
X96158Y-186225D01*
X96278Y-185000D01*
X96158Y-183775D01*
X95800Y-182597D01*
X95220Y-181512D01*
X94439Y-180561D01*
X94366Y-180500D01*
Y-179500D01*
X94439Y-179439D01*
X95220Y-178488D01*
X95800Y-177403D01*
X96158Y-176225D01*
X96278Y-175000D01*
X96158Y-173775D01*
X95800Y-172597D01*
X95220Y-171512D01*
X94439Y-170561D01*
X94366Y-170500D01*
Y-169500D01*
X94439Y-169439D01*
X95220Y-168488D01*
X95800Y-167403D01*
X96158Y-166225D01*
X96278Y-165000D01*
X96158Y-163775D01*
X95800Y-162597D01*
X95220Y-161512D01*
X94439Y-160561D01*
X94366Y-160500D01*
Y-159500D01*
X94439Y-159439D01*
X95220Y-158488D01*
X95800Y-157403D01*
X96158Y-156225D01*
X96278Y-155000D01*
X96158Y-153775D01*
X95800Y-152597D01*
X95220Y-151512D01*
X94439Y-150561D01*
X94366Y-150500D01*
Y-149500D01*
X94439Y-149439D01*
X95220Y-148488D01*
X95800Y-147403D01*
X96158Y-146225D01*
X96278Y-145000D01*
X96158Y-143775D01*
X95800Y-142597D01*
X95220Y-141512D01*
X94439Y-140561D01*
X94366Y-140500D01*
Y-139500D01*
X94439Y-139439D01*
X95220Y-138488D01*
X95800Y-137403D01*
X96158Y-136225D01*
X96278Y-135000D01*
X96158Y-133775D01*
X95800Y-132597D01*
X95220Y-131512D01*
X94439Y-130561D01*
X94366Y-130500D01*
Y-129500D01*
X94439Y-129439D01*
X95220Y-128488D01*
X95800Y-127403D01*
X96158Y-126225D01*
X96278Y-125000D01*
X96158Y-123775D01*
X95800Y-122597D01*
X95220Y-121512D01*
X94439Y-120561D01*
X94366Y-120500D01*
Y-119500D01*
X94439Y-119439D01*
X95220Y-118488D01*
X95800Y-117403D01*
X96158Y-116225D01*
X96278Y-115000D01*
X96158Y-113775D01*
X95800Y-112597D01*
X95220Y-111512D01*
X94439Y-110561D01*
X94366Y-110500D01*
Y-109500D01*
X94439Y-109439D01*
X95220Y-108488D01*
D01*
D01*
X96031Y-108436D01*
X97578Y-109262D01*
X99255Y-109771D01*
X101000Y-109943D01*
X102745Y-109771D01*
X104422Y-109262D01*
X105968Y-108436D01*
X107324Y-107324D01*
X108436Y-105968D01*
X109262Y-104422D01*
X109771Y-102745D01*
X109943Y-101000D01*
X109771Y-99255D01*
X109262Y-97578D01*
X108436Y-96031D01*
X107324Y-94676D01*
X105968Y-93564D01*
X104422Y-92738D01*
X102745Y-92229D01*
X101000Y-92057D01*
X99255Y-92229D01*
X97578Y-92738D01*
X96780Y-93164D01*
X95856Y-92781D01*
X95800Y-92597D01*
X95220Y-91512D01*
X94439Y-90561D01*
X94366Y-90500D01*
Y-89500D01*
X94439Y-89439D01*
X95220Y-88488D01*
X95800Y-87403D01*
X96158Y-86225D01*
X96278Y-85000D01*
X96158Y-83775D01*
X95800Y-82597D01*
X95220Y-81512D01*
X94439Y-80561D01*
X94366Y-80500D01*
Y-79500D01*
X94439Y-79439D01*
X95220Y-78488D01*
X95800Y-77403D01*
X96158Y-76225D01*
X96278Y-75000D01*
X96158Y-73775D01*
X95800Y-72597D01*
X95220Y-71512D01*
X94439Y-70561D01*
X94366Y-70500D01*
Y-69500D01*
X94439Y-69439D01*
X95220Y-68488D01*
X95800Y-67403D01*
X96158Y-66225D01*
X96278Y-65000D01*
X96158Y-63775D01*
X95800Y-62597D01*
X95220Y-61512D01*
X94439Y-60561D01*
X94366Y-60500D01*
Y-59500D01*
X94439Y-59439D01*
X95220Y-58488D01*
X95800Y-57403D01*
X96158Y-56225D01*
X96278Y-55000D01*
X96158Y-53775D01*
X95800Y-52597D01*
X95220Y-51512D01*
X94439Y-50561D01*
X94366Y-50500D01*
Y-49500D01*
X94439Y-49439D01*
X95220Y-48488D01*
X95800Y-47403D01*
X96158Y-46225D01*
X96278Y-45000D01*
X96158Y-43775D01*
X95800Y-42597D01*
X95220Y-41512D01*
X94439Y-40561D01*
X94366Y-40500D01*
Y-39500D01*
X94439Y-39439D01*
X95220Y-38488D01*
X95800Y-37403D01*
X96158Y-36225D01*
X96278Y-35000D01*
X96158Y-33775D01*
X95800Y-32597D01*
X95538Y-32106D01*
X96052Y-31248D01*
X96248D01*
Y-21808D01*
X97172Y-21425D01*
X98090Y-22344D01*
Y-32659D01*
X98209Y-33864D01*
X98221Y-33982D01*
X98607Y-35255D01*
X99234Y-36427D01*
X100077Y-37455D01*
X110056Y-47435D01*
X111084Y-48278D01*
X112257Y-48905D01*
X113529Y-49291D01*
X114852Y-49421D01*
X116176Y-49291D01*
X116202Y-49283D01*
X177717D01*
Y-119691D01*
X168691Y-128717D01*
X165960D01*
X164961Y-128816D01*
X164500Y-128397D01*
X164220Y-127477D01*
Y-119831D01*
X148378D01*
Y-131831D01*
X148378D01*
X148378Y-132832D01*
X148242Y-133087D01*
X147856Y-134359D01*
X147726Y-135682D01*
X147856Y-137006D01*
X148242Y-138278D01*
X148869Y-139451D01*
X149712Y-140478D01*
X150115Y-140809D01*
Y-141568D01*
X149365Y-142481D01*
X148808Y-143524D01*
X148465Y-144655D01*
X148349Y-145831D01*
X148465Y-147007D01*
X148808Y-148138D01*
X149365Y-149180D01*
X150115Y-150094D01*
X150403Y-150331D01*
Y-151331D01*
X150115Y-151567D01*
X149365Y-152481D01*
X148808Y-153524D01*
X148465Y-154655D01*
X148349Y-155831D01*
X148465Y-157007D01*
X148808Y-158138D01*
X149365Y-159180D01*
X150115Y-160094D01*
X150403Y-160331D01*
Y-161331D01*
X150115Y-161567D01*
X149365Y-162481D01*
X148808Y-163523D01*
X148465Y-164655D01*
X148349Y-165831D01*
X148465Y-167007D01*
X148808Y-168138D01*
X149365Y-169180D01*
X150115Y-170094D01*
X150403Y-170331D01*
Y-171331D01*
X150115Y-171567D01*
X149365Y-172481D01*
X148808Y-173523D01*
X148465Y-174654D01*
X148349Y-175831D01*
X148465Y-177007D01*
X148808Y-178138D01*
X149365Y-179180D01*
X150115Y-180094D01*
X150403Y-180331D01*
Y-181331D01*
X150115Y-181568D01*
X149365Y-182481D01*
X148808Y-183523D01*
X148465Y-184654D01*
X148349Y-185831D01*
X148465Y-187007D01*
X148808Y-188138D01*
X149365Y-189180D01*
X150115Y-190094D01*
X150403Y-190331D01*
Y-191331D01*
X150115Y-191568D01*
X149365Y-192481D01*
X148808Y-193524D01*
X148465Y-194655D01*
X148349Y-195831D01*
X148465Y-197007D01*
X148808Y-198138D01*
X149365Y-199180D01*
X150115Y-200094D01*
X150403Y-200331D01*
Y-201331D01*
X150115Y-201568D01*
X149365Y-202481D01*
X148808Y-203523D01*
X148465Y-204655D01*
X148349Y-205831D01*
X148465Y-207007D01*
X148808Y-208138D01*
X149365Y-209180D01*
X150115Y-210094D01*
X150403Y-210331D01*
Y-211331D01*
X150115Y-211567D01*
X149365Y-212481D01*
X148808Y-213524D01*
X148465Y-214654D01*
X148349Y-215831D01*
X148465Y-217007D01*
X148808Y-218138D01*
X149365Y-219180D01*
X150115Y-220094D01*
X151028Y-220844D01*
X152071Y-221401D01*
X153202Y-221744D01*
X154378Y-221860D01*
X158221D01*
X159397Y-221744D01*
X160528Y-221401D01*
X161570Y-220844D01*
X162484Y-220094D01*
X163233Y-219180D01*
X163791Y-218138D01*
X164134Y-217007D01*
X164250Y-215831D01*
X164134Y-214654D01*
X163791Y-213524D01*
X163233Y-212481D01*
X162484Y-211567D01*
X162195Y-211331D01*
Y-210331D01*
X162484Y-210094D01*
X163233Y-209180D01*
X163791Y-208138D01*
X164134Y-207007D01*
X164250Y-205831D01*
X164134Y-204655D01*
X163791Y-203523D01*
X163233Y-202481D01*
X162484Y-201568D01*
X162195Y-201331D01*
Y-200331D01*
X162484Y-200094D01*
X163233Y-199180D01*
X163791Y-198138D01*
X164134Y-197007D01*
X164250Y-195831D01*
X164134Y-194655D01*
X163791Y-193524D01*
X163233Y-192481D01*
X162484Y-191568D01*
X162195Y-191331D01*
Y-190331D01*
X162484Y-190094D01*
X163233Y-189180D01*
X163791Y-188138D01*
X164134Y-187007D01*
X164250Y-185831D01*
X164134Y-184654D01*
X163791Y-183523D01*
X163233Y-182481D01*
X162484Y-181568D01*
X162195Y-181331D01*
Y-180331D01*
X162484Y-180094D01*
X163233Y-179180D01*
X163791Y-178138D01*
X164134Y-177007D01*
X164250Y-175831D01*
X164134Y-174654D01*
X163791Y-173523D01*
X163233Y-172481D01*
X162484Y-171567D01*
X162195Y-171331D01*
Y-170331D01*
X162484Y-170094D01*
X163233Y-169180D01*
X163791Y-168138D01*
X164134Y-167007D01*
X164250Y-165831D01*
X164134Y-164655D01*
X163791Y-163523D01*
X163233Y-162481D01*
X162484Y-161567D01*
X162195Y-161331D01*
Y-160331D01*
X162484Y-160094D01*
X163233Y-159180D01*
X163791Y-158138D01*
X164134Y-157007D01*
X164250Y-155831D01*
X164134Y-154655D01*
X163791Y-153524D01*
X163233Y-152481D01*
X162484Y-151567D01*
X162195Y-151331D01*
Y-150331D01*
X162484Y-150094D01*
X163233Y-149180D01*
X163791Y-148138D01*
X164134Y-147007D01*
X164250Y-145831D01*
X164134Y-144655D01*
X163791Y-143524D01*
X163683Y-143323D01*
X164197Y-142465D01*
X165810D01*
X167015Y-142346D01*
X167133Y-142335D01*
X167305Y-142283D01*
X171500D01*
X172705Y-142164D01*
X172823Y-142152D01*
X174096Y-141766D01*
X175268Y-141140D01*
X176296Y-140296D01*
X189296Y-127296D01*
X190140Y-126268D01*
X190766Y-125096D01*
X191152Y-123823D01*
X191283Y-122500D01*
Y-49283D01*
X233000D01*
X234205Y-49164D01*
X234323Y-49152D01*
X235596Y-48766D01*
X235596Y-48766D01*
X235596Y-48766D01*
X236768Y-48140D01*
X237796Y-47296D01*
X237796Y-47296D01*
X237796Y-47296D01*
X243309Y-41783D01*
X265984D01*
X266426Y-42680D01*
X266289Y-42858D01*
X265920Y-43750D01*
X270000D01*
Y-46250D01*
X265920D01*
X266289Y-47142D01*
X266970Y-48030D01*
X267325Y-48302D01*
X267383Y-48493D01*
X267313Y-49352D01*
X266512Y-49780D01*
X265561Y-50561D01*
X264780Y-51512D01*
X264200Y-52597D01*
X263842Y-53775D01*
X263722Y-55000D01*
X263842Y-56225D01*
X264200Y-57403D01*
X264780Y-58488D01*
X265561Y-59439D01*
X265634Y-59500D01*
Y-60500D01*
X265561Y-60561D01*
X264780Y-61512D01*
X264200Y-62597D01*
X263842Y-63775D01*
X263722Y-65000D01*
X263842Y-66225D01*
X264200Y-67403D01*
X264780Y-68488D01*
X265561Y-69439D01*
X265634Y-69500D01*
Y-70500D01*
X265561Y-70561D01*
X264780Y-71512D01*
X264200Y-72597D01*
X263842Y-73775D01*
X263722Y-75000D01*
X263842Y-76225D01*
X264200Y-77403D01*
X264780Y-78488D01*
X265561Y-79439D01*
X265634Y-79500D01*
Y-80500D01*
X265561Y-80561D01*
X264780Y-81512D01*
X264200Y-82597D01*
X263842Y-83775D01*
X263722Y-85000D01*
X263842Y-86225D01*
X264200Y-87403D01*
X264780Y-88488D01*
X265561Y-89439D01*
X265634Y-89500D01*
Y-90500D01*
X265561Y-90561D01*
X264780Y-91512D01*
X264200Y-92597D01*
X263842Y-93775D01*
X263722Y-95000D01*
X263842Y-96225D01*
X264200Y-97403D01*
X264780Y-98488D01*
X265561Y-99439D01*
X265634Y-99500D01*
Y-100500D01*
X265561Y-100561D01*
X264780Y-101512D01*
X264200Y-102597D01*
X263842Y-103775D01*
X263722Y-105000D01*
X263842Y-106225D01*
X264200Y-107403D01*
X264780Y-108488D01*
X265561Y-109439D01*
X265634Y-109500D01*
Y-110500D01*
X265561Y-110561D01*
X264780Y-111512D01*
X264200Y-112597D01*
X263842Y-113775D01*
X263722Y-115000D01*
X263842Y-116225D01*
X264200Y-117403D01*
X264780Y-118488D01*
X265561Y-119439D01*
X265634Y-119500D01*
Y-120500D01*
X265561Y-120561D01*
X264780Y-121512D01*
X264200Y-122597D01*
X263842Y-123775D01*
X263722Y-125000D01*
X263842Y-126225D01*
X264200Y-127403D01*
X264780Y-128488D01*
X265561Y-129439D01*
X265634Y-129500D01*
Y-130500D01*
X265561Y-130561D01*
X264780Y-131512D01*
X264200Y-132597D01*
X263842Y-133775D01*
X263722Y-135000D01*
X263842Y-136225D01*
X264200Y-137403D01*
X264780Y-138488D01*
X265561Y-139439D01*
X265634Y-139500D01*
Y-140500D01*
X265561Y-140561D01*
X264780Y-141512D01*
X264200Y-142597D01*
X263842Y-143775D01*
X263722Y-145000D01*
X263842Y-146225D01*
X264200Y-147403D01*
X264780Y-148488D01*
X265561Y-149439D01*
X265634Y-149500D01*
Y-150500D01*
X265561Y-150561D01*
X264780Y-151512D01*
X264200Y-152597D01*
X263842Y-153775D01*
X263722Y-155000D01*
X263842Y-156225D01*
X264200Y-157403D01*
X264780Y-158488D01*
X265561Y-159439D01*
X265634Y-159500D01*
Y-160500D01*
X265561Y-160561D01*
X264780Y-161512D01*
X264200Y-162597D01*
X263842Y-163775D01*
X263722Y-165000D01*
X263842Y-166225D01*
X264200Y-167403D01*
X264780Y-168488D01*
X265561Y-169439D01*
X265634Y-169500D01*
Y-170500D01*
X265561Y-170561D01*
X264780Y-171512D01*
X264200Y-172597D01*
X263842Y-173775D01*
X263722Y-175000D01*
X263842Y-176225D01*
X264200Y-177403D01*
X264780Y-178488D01*
X265561Y-179439D01*
X265634Y-179500D01*
Y-180500D01*
X265561Y-180561D01*
X264780Y-181512D01*
X264200Y-182597D01*
X263842Y-183775D01*
X263722Y-185000D01*
X263842Y-186225D01*
X264200Y-187403D01*
X264780Y-188488D01*
X265561Y-189439D01*
X265634Y-189500D01*
Y-190500D01*
X265561Y-190561D01*
X264780Y-191512D01*
X264200Y-192597D01*
X263842Y-193775D01*
X263722Y-195000D01*
X263842Y-196225D01*
X264200Y-197403D01*
X264780Y-198488D01*
X265561Y-199439D01*
X265634Y-199500D01*
Y-200500D01*
X265561Y-200561D01*
X264780Y-201512D01*
X264200Y-202597D01*
X263842Y-203775D01*
X263722Y-205000D01*
X263842Y-206225D01*
X264200Y-207403D01*
X264780Y-208488D01*
X265561Y-209439D01*
X265634Y-209500D01*
Y-210500D01*
X265561Y-210561D01*
X264780Y-211512D01*
X264200Y-212597D01*
X263842Y-213775D01*
X263722Y-215000D01*
X263842Y-216225D01*
X264200Y-217403D01*
X264780Y-218488D01*
X265561Y-219439D01*
X265634Y-219500D01*
Y-220500D01*
X265561Y-220561D01*
X264780Y-221512D01*
X264200Y-222597D01*
X263842Y-223775D01*
X263722Y-225000D01*
X263842Y-226225D01*
X264200Y-227403D01*
X264780Y-228488D01*
X265561Y-229439D01*
X265634Y-229500D01*
Y-230500D01*
X265561Y-230561D01*
X264780Y-231512D01*
X264200Y-232597D01*
X263842Y-233775D01*
X263722Y-235000D01*
X263842Y-236225D01*
X264200Y-237403D01*
X264780Y-238488D01*
X265561Y-239439D01*
X265634Y-239500D01*
Y-240500D01*
X265561Y-240561D01*
X264780Y-241512D01*
X264200Y-242597D01*
X263842Y-243775D01*
X263722Y-245000D01*
X263842Y-246225D01*
X264200Y-247403D01*
X264780Y-248488D01*
X265561Y-249439D01*
X266512Y-250220D01*
X267597Y-250800D01*
X268775Y-251158D01*
X270000Y-251278D01*
X271225Y-251158D01*
X272403Y-250800D01*
X273488Y-250220D01*
X274439Y-249439D01*
X274500Y-249366D01*
X275500D01*
X275561Y-249439D01*
X276512Y-250220D01*
X277597Y-250800D01*
X278775Y-251158D01*
X280000Y-251278D01*
X281225Y-251158D01*
X282403Y-250800D01*
X283488Y-250220D01*
X284439Y-249439D01*
X285220Y-248488D01*
X285800Y-247403D01*
X286158Y-246225D01*
X286278Y-245000D01*
X286158Y-243775D01*
X285800Y-242597D01*
X285220Y-241512D01*
X284439Y-240561D01*
X284366Y-240500D01*
Y-239500D01*
X284439Y-239439D01*
X285220Y-238488D01*
X285800Y-237403D01*
X286158Y-236225D01*
X286278Y-235000D01*
X286158Y-233775D01*
X285800Y-232597D01*
X285538Y-232106D01*
X286052Y-231248D01*
X286248D01*
Y-218752D01*
X286052D01*
X285538Y-217894D01*
X285800Y-217403D01*
X286158Y-216225D01*
X286278Y-215000D01*
X286158Y-213775D01*
X285800Y-212597D01*
X285220Y-211512D01*
X284439Y-210561D01*
X284366Y-210500D01*
Y-209500D01*
X284439Y-209439D01*
X285220Y-208488D01*
X285800Y-207403D01*
X286158Y-206225D01*
X286278Y-205000D01*
X286158Y-203775D01*
X285800Y-202597D01*
X285220Y-201512D01*
X284439Y-200561D01*
X284366Y-200500D01*
Y-199500D01*
X284439Y-199439D01*
X285220Y-198488D01*
X285800Y-197403D01*
X286158Y-196225D01*
X286278Y-195000D01*
X286158Y-193775D01*
X285800Y-192597D01*
X285220Y-191512D01*
X284439Y-190561D01*
X284366Y-190500D01*
Y-189500D01*
X284439Y-189439D01*
X285220Y-188488D01*
X285800Y-187403D01*
X286158Y-186225D01*
X286278Y-185000D01*
X286158Y-183775D01*
X285800Y-182597D01*
X285220Y-181512D01*
X284439Y-180561D01*
X284366Y-180500D01*
Y-179500D01*
X284439Y-179439D01*
X285220Y-178488D01*
X285800Y-177403D01*
X286158Y-176225D01*
X286278Y-175000D01*
X286158Y-173775D01*
X285800Y-172597D01*
X285220Y-171512D01*
X284439Y-170561D01*
X284366Y-170500D01*
Y-169500D01*
X284439Y-169439D01*
X285220Y-168488D01*
X285800Y-167403D01*
X286158Y-166225D01*
X286278Y-165000D01*
X286158Y-163775D01*
X285800Y-162597D01*
X285220Y-161512D01*
X284439Y-160561D01*
X284366Y-160500D01*
Y-159500D01*
X284439Y-159439D01*
X285220Y-158488D01*
X285800Y-157403D01*
X286158Y-156225D01*
X286278Y-155000D01*
X286158Y-153775D01*
X285800Y-152597D01*
X285220Y-151512D01*
X284439Y-150561D01*
X284366Y-150500D01*
Y-149500D01*
X284439Y-149439D01*
X285220Y-148488D01*
X285800Y-147403D01*
X286158Y-146225D01*
X286278Y-145000D01*
X286158Y-143775D01*
X285800Y-142597D01*
X285220Y-141512D01*
X284439Y-140561D01*
X284366Y-140500D01*
Y-139500D01*
X284439Y-139439D01*
X285220Y-138488D01*
X285800Y-137403D01*
X286158Y-136225D01*
X286278Y-135000D01*
X286158Y-133775D01*
X285800Y-132597D01*
X285220Y-131512D01*
X284439Y-130561D01*
X284366Y-130500D01*
Y-129500D01*
X284439Y-129439D01*
X285220Y-128488D01*
X285800Y-127403D01*
X286158Y-126225D01*
X286278Y-125000D01*
X286158Y-123775D01*
X285800Y-122597D01*
X285220Y-121512D01*
X284439Y-120561D01*
X284366Y-120500D01*
Y-119500D01*
X284439Y-119439D01*
X285220Y-118488D01*
X285800Y-117403D01*
X286158Y-116225D01*
X286278Y-115000D01*
X286158Y-113775D01*
X285800Y-112597D01*
X285220Y-111512D01*
X284439Y-110561D01*
X284366Y-110500D01*
Y-109500D01*
X284439Y-109439D01*
X285220Y-108488D01*
X285800Y-107403D01*
X286158Y-106225D01*
X286278Y-105000D01*
X286158Y-103775D01*
X285800Y-102597D01*
X285220Y-101512D01*
X284439Y-100561D01*
X284366Y-100500D01*
Y-99500D01*
X284439Y-99439D01*
X285220Y-98488D01*
X285800Y-97403D01*
X286158Y-96225D01*
X286278Y-95000D01*
X286158Y-93775D01*
X285800Y-92597D01*
X285220Y-91512D01*
X284439Y-90561D01*
X284366Y-90500D01*
Y-89500D01*
X284439Y-89439D01*
X285220Y-88488D01*
X285800Y-87403D01*
X286158Y-86225D01*
X286278Y-85000D01*
X286158Y-83775D01*
X285800Y-82597D01*
X285220Y-81512D01*
X284439Y-80561D01*
X284366Y-80500D01*
Y-79500D01*
X284439Y-79439D01*
X285220Y-78488D01*
X285800Y-77403D01*
X286158Y-76225D01*
X286278Y-75000D01*
X286158Y-73775D01*
X285800Y-72597D01*
X285220Y-71512D01*
X284439Y-70561D01*
X284366Y-70500D01*
Y-69500D01*
X284439Y-69439D01*
X285220Y-68488D01*
X285800Y-67403D01*
X286158Y-66225D01*
X286278Y-65000D01*
X286158Y-63775D01*
X285800Y-62597D01*
X285220Y-61512D01*
X284439Y-60561D01*
X284366Y-60500D01*
Y-59500D01*
X284439Y-59439D01*
X285220Y-58488D01*
X285800Y-57403D01*
X286158Y-56225D01*
X286278Y-55000D01*
X286158Y-53775D01*
X285800Y-52597D01*
X285220Y-51512D01*
X284439Y-50561D01*
X283488Y-49780D01*
X282687Y-49352D01*
X282617Y-48493D01*
X282675Y-48302D01*
X283030Y-48030D01*
X283711Y-47142D01*
X284080Y-46250D01*
X280000D01*
Y-43750D01*
X284080D01*
X283711Y-42858D01*
X283574Y-42680D01*
X284016Y-41783D01*
X285690D01*
X289461Y-45553D01*
Y-212500D01*
X289461Y-212500D01*
X289616Y-214068D01*
X290073Y-215576D01*
X290816Y-216966D01*
X291816Y-218184D01*
X301961Y-228330D01*
Y-372363D01*
X301961Y-372363D01*
X302116Y-373931D01*
X302573Y-375439D01*
X303316Y-376829D01*
X304316Y-378047D01*
X326503Y-400234D01*
X327721Y-401234D01*
X329111Y-401977D01*
X330619Y-402434D01*
X332188Y-402589D01*
X333756Y-402434D01*
X335264Y-401977D01*
X336654Y-401234D01*
X337872Y-400234D01*
X338871Y-399016D01*
X339614Y-397626D01*
X340072Y-396118D01*
X340226Y-394550D01*
X340072Y-392982D01*
X339614Y-391474D01*
X338871Y-390084D01*
X337872Y-388866D01*
X318039Y-369033D01*
Y-296125D01*
X318986Y-295803D01*
X319077Y-295923D01*
X320226Y-296804D01*
X321564Y-297358D01*
X323000Y-297548D01*
X324436Y-297358D01*
X325774Y-296804D01*
X326923Y-295923D01*
X327804Y-294774D01*
X328358Y-293436D01*
X328548Y-292000D01*
X328358Y-290564D01*
X327804Y-289226D01*
X326923Y-288077D01*
X325774Y-287196D01*
X324436Y-286642D01*
X323000Y-286453D01*
X321564Y-286642D01*
X320226Y-287196D01*
X319077Y-288077D01*
X318986Y-288197D01*
X318039Y-287875D01*
Y-225000D01*
X318039Y-225000D01*
X317884Y-223432D01*
X317427Y-221924D01*
X316684Y-220534D01*
X315684Y-219316D01*
X305539Y-209170D01*
Y-196145D01*
X306396Y-195631D01*
X307578Y-196262D01*
X309255Y-196771D01*
X311000Y-196943D01*
X312745Y-196771D01*
X314422Y-196262D01*
X315968Y-195436D01*
X317324Y-194324D01*
X318436Y-192968D01*
X319262Y-191422D01*
X319771Y-189745D01*
X319943Y-188000D01*
X319771Y-186255D01*
X319262Y-184578D01*
X318436Y-183031D01*
X317324Y-181676D01*
X315968Y-180564D01*
X314422Y-179738D01*
X312745Y-179229D01*
X311000Y-179057D01*
X309255Y-179229D01*
X307578Y-179738D01*
X306396Y-180369D01*
X305539Y-179855D01*
Y-172125D01*
X306486Y-171803D01*
X306577Y-171923D01*
X307726Y-172804D01*
X309064Y-173358D01*
X310500Y-173547D01*
X311936Y-173358D01*
X313274Y-172804D01*
X314423Y-171923D01*
X315304Y-170774D01*
X315858Y-169436D01*
X316048Y-168000D01*
X315858Y-166564D01*
X315304Y-165226D01*
X314423Y-164077D01*
X313274Y-163196D01*
X311936Y-162642D01*
X310500Y-162452D01*
X309064Y-162642D01*
X307726Y-163196D01*
X306577Y-164077D01*
X306486Y-164197D01*
X305539Y-163875D01*
Y-44000D01*
X305384Y-42432D01*
X304927Y-40924D01*
X304184Y-39534D01*
X303184Y-38316D01*
X301966Y-37316D01*
X300576Y-36573D01*
X299269Y-36176D01*
X293296Y-30204D01*
X292268Y-29360D01*
X291096Y-28734D01*
X289823Y-28348D01*
X289705Y-28336D01*
X288500Y-28217D01*
X286248D01*
Y-18752D01*
X273752D01*
Y-18948D01*
X272894Y-19462D01*
X272403Y-19200D01*
X271225Y-18842D01*
X270000Y-18722D01*
X268775Y-18842D01*
X267597Y-19200D01*
X266512Y-19780D01*
X265561Y-20561D01*
X264780Y-21512D01*
X264200Y-22597D01*
X263842Y-23775D01*
X263722Y-25000D01*
X263842Y-26225D01*
X264200Y-27403D01*
X263711Y-28217D01*
X240500D01*
X239295Y-28336D01*
X239177Y-28348D01*
X237904Y-28734D01*
X236732Y-29360D01*
X236167Y-29824D01*
X235704Y-30204D01*
X234424Y-31484D01*
X233500Y-31101D01*
Y-6500D01*
X234500Y-5500D01*
X298448D01*
X298770Y-6447D01*
X297949Y-7077D01*
X297067Y-8225D01*
X296513Y-9563D01*
X296324Y-10999D01*
X296513Y-12435D01*
X297067Y-13773D01*
X297949Y-14922D01*
X299098Y-15803D01*
X300436Y-16358D01*
X301872Y-16547D01*
X303308Y-16358D01*
X304645Y-15803D01*
X305794Y-14922D01*
X306676Y-13773D01*
X307230Y-12435D01*
X307419Y-10999D01*
X307230Y-9563D01*
X306676Y-8225D01*
X305794Y-7077D01*
X304974Y-6447D01*
X305295Y-5500D01*
X363000D01*
Y-18392D01*
D02*
G37*
%LPC*%
G36*
X229771Y-315750D02*
X227750D01*
Y-317771D01*
X228265Y-317557D01*
X228996Y-316996D01*
X229557Y-316265D01*
X229771Y-315750D01*
D02*
G37*
G36*
X254250D02*
X252229D01*
X252443Y-316265D01*
X253004Y-316996D01*
X253735Y-317557D01*
X254250Y-317771D01*
Y-315750D01*
D02*
G37*
G36*
X258771D02*
X256750D01*
Y-317771D01*
X257265Y-317557D01*
X257996Y-316996D01*
X258557Y-316265D01*
X258771Y-315750D01*
D02*
G37*
G36*
X244146Y-306856D02*
X242710Y-307045D01*
X241373Y-307599D01*
X240224Y-308481D01*
X239342Y-309630D01*
X238788Y-310968D01*
X238599Y-312404D01*
X238788Y-313839D01*
X239342Y-315177D01*
X240224Y-316326D01*
X241373Y-317208D01*
X242140Y-317526D01*
X242009Y-318517D01*
X241064Y-318642D01*
X239726Y-319196D01*
X238577Y-320077D01*
X237696Y-321226D01*
X237142Y-322564D01*
X236952Y-324000D01*
X237142Y-325436D01*
X237696Y-326774D01*
X237805Y-326916D01*
X237423Y-327840D01*
X236795Y-327923D01*
X235457Y-328477D01*
X234308Y-329359D01*
X233426Y-330508D01*
X232872Y-331846D01*
X232860Y-331938D01*
X231936Y-332320D01*
X231774Y-332196D01*
X230436Y-331642D01*
X229000Y-331452D01*
X227564Y-331642D01*
X226226Y-332196D01*
X225077Y-333077D01*
X224196Y-334226D01*
X223642Y-335564D01*
X223452Y-337000D01*
X223642Y-338436D01*
X224196Y-339774D01*
X225077Y-340923D01*
X226226Y-341804D01*
X227564Y-342358D01*
X229000Y-342547D01*
X230436Y-342358D01*
X231774Y-341804D01*
X232923Y-340923D01*
X233804Y-339774D01*
X234358Y-338436D01*
X234370Y-338344D01*
X235294Y-337961D01*
X235457Y-338086D01*
X236795Y-338640D01*
X238230Y-338829D01*
X239666Y-338640D01*
X241004Y-338086D01*
X242153Y-337204D01*
X243035Y-336055D01*
X243589Y-334717D01*
X243778Y-333281D01*
X243589Y-331846D01*
X243035Y-330508D01*
X242925Y-330365D01*
X243308Y-329441D01*
X243936Y-329358D01*
X245274Y-328804D01*
X246423Y-327923D01*
X247304Y-326774D01*
X247858Y-325436D01*
X248047Y-324000D01*
X247858Y-322564D01*
X247304Y-321226D01*
X246423Y-320077D01*
X245274Y-319196D01*
X244506Y-318878D01*
X244637Y-317886D01*
X245582Y-317762D01*
X246920Y-317208D01*
X248069Y-316326D01*
X248951Y-315177D01*
X249505Y-313839D01*
X249694Y-312404D01*
X249505Y-310968D01*
X248951Y-309630D01*
X248069Y-308481D01*
X246920Y-307599D01*
X245582Y-307045D01*
X244146Y-306856D01*
D02*
G37*
G36*
X149452Y-313058D02*
X148017Y-313247D01*
X146679Y-313801D01*
X145530Y-314683D01*
X144648Y-315832D01*
X144094Y-317170D01*
X143905Y-318606D01*
X144094Y-320041D01*
X144648Y-321379D01*
X145530Y-322528D01*
X146679Y-323410D01*
X148017Y-323964D01*
X149452Y-324153D01*
X150888Y-323964D01*
X152226Y-323410D01*
X153375Y-322528D01*
X154257Y-321379D01*
X154811Y-320041D01*
X155000Y-318606D01*
X154811Y-317170D01*
X154257Y-315832D01*
X153375Y-314683D01*
X152226Y-313801D01*
X150888Y-313247D01*
X149452Y-313058D01*
D02*
G37*
G36*
X225250Y-315750D02*
X223229D01*
X223443Y-316265D01*
X224004Y-316996D01*
X224735Y-317557D01*
X225250Y-317771D01*
Y-315750D01*
D02*
G37*
G36*
X216500Y-303957D02*
X215195Y-304129D01*
X213978Y-304632D01*
X212934Y-305434D01*
X212133Y-306478D01*
X211629Y-307695D01*
X211457Y-309000D01*
X211629Y-310305D01*
X212133Y-311522D01*
X212934Y-312566D01*
X213978Y-313368D01*
X215195Y-313871D01*
X216500Y-314043D01*
X217805Y-313871D01*
X219022Y-313368D01*
X220066Y-312566D01*
X220867Y-311522D01*
X221371Y-310305D01*
X221543Y-309000D01*
X221371Y-307695D01*
X220867Y-306478D01*
X220066Y-305434D01*
X219022Y-304632D01*
X217805Y-304129D01*
X216500Y-303957D01*
D02*
G37*
G36*
X225250Y-311229D02*
X224735Y-311443D01*
X224004Y-312004D01*
X223443Y-312735D01*
X223229Y-313250D01*
X225250D01*
Y-311229D01*
D02*
G37*
G36*
X227750D02*
Y-313250D01*
X229771D01*
X229557Y-312735D01*
X228996Y-312004D01*
X228265Y-311443D01*
X227750Y-311229D01*
D02*
G37*
G36*
X284571Y-315125D02*
X282551D01*
X282764Y-315640D01*
X283325Y-316371D01*
X284056Y-316932D01*
X284571Y-317145D01*
Y-315125D01*
D02*
G37*
G36*
X289092D02*
X287071D01*
Y-317145D01*
X287586Y-316932D01*
X288317Y-316371D01*
X288878Y-315640D01*
X289092Y-315125D01*
D02*
G37*
G36*
X171320Y-316261D02*
X170015Y-316433D01*
X168817Y-316929D01*
X167618Y-316432D01*
X166321Y-316261D01*
X165024Y-316432D01*
X163815Y-316933D01*
X162777Y-317729D01*
X161980Y-318767D01*
X161480Y-319976D01*
X161309Y-321273D01*
Y-325210D01*
X161480Y-326507D01*
X161980Y-327715D01*
X162777Y-328753D01*
X163815Y-329550D01*
X165024Y-330050D01*
X166321Y-330221D01*
X167618Y-330050D01*
X168817Y-329553D01*
X170015Y-330049D01*
X171320Y-330221D01*
X171648Y-330178D01*
X181321D01*
Y-316304D01*
X171648D01*
X171320Y-316261D01*
D02*
G37*
G36*
X127021Y-404335D02*
X125000D01*
Y-406355D01*
X125515Y-406142D01*
X126246Y-405581D01*
X126807Y-404850D01*
X127021Y-404335D01*
D02*
G37*
G36*
X153198Y-370375D02*
X151893Y-370547D01*
X150677Y-371051D01*
X149632Y-371852D01*
X148831Y-372897D01*
X148327Y-374113D01*
X148155Y-375418D01*
X148327Y-376724D01*
X148831Y-377940D01*
X149632Y-378984D01*
X150677Y-379786D01*
X151893Y-380290D01*
X152536Y-380374D01*
X152914Y-381287D01*
X153715Y-382332D01*
X154760Y-383133D01*
X155976Y-383637D01*
X157281Y-383809D01*
X158360Y-383667D01*
X158481Y-383959D01*
X158962Y-384586D01*
X159589Y-385067D01*
X159983Y-385230D01*
X160140Y-386218D01*
X159431Y-386823D01*
X158306Y-388140D01*
X157402Y-389616D01*
X156739Y-391216D01*
X156335Y-392899D01*
X156199Y-394625D01*
X156335Y-396352D01*
X156739Y-398035D01*
X157402Y-399635D01*
X158306Y-401111D01*
X159431Y-402428D01*
X160747Y-403552D01*
X162224Y-404457D01*
X163823Y-405120D01*
X165507Y-405524D01*
X167233Y-405659D01*
X168959Y-405524D01*
X170643Y-405120D01*
X172242Y-404457D01*
X173719Y-403552D01*
X175035Y-402428D01*
X176160Y-401111D01*
X177064Y-399635D01*
X177727Y-398035D01*
X178131Y-396352D01*
X178267Y-394625D01*
X178131Y-392899D01*
X177727Y-391216D01*
X177064Y-389616D01*
X176160Y-388140D01*
X175035Y-386823D01*
X173719Y-385699D01*
X172242Y-384794D01*
X170643Y-384132D01*
X168959Y-383727D01*
X167233Y-383592D01*
X165507Y-383727D01*
X165330Y-383770D01*
X165152Y-383696D01*
X161102D01*
Y-382001D01*
X161649Y-381287D01*
X161687Y-381196D01*
X163831D01*
X163722Y-380933D01*
X163241Y-380307D01*
X162615Y-379826D01*
X162207Y-379657D01*
X162325Y-378766D01*
X162153Y-377460D01*
X161649Y-376244D01*
X160847Y-375200D01*
X159803Y-374398D01*
X158587Y-373894D01*
X157944Y-373810D01*
X157566Y-372897D01*
X156764Y-371852D01*
X155720Y-371051D01*
X154504Y-370547D01*
X153198Y-370375D01*
D02*
G37*
G36*
X251186Y-360502D02*
X247186D01*
X246010Y-360618D01*
X244879Y-360961D01*
X243837Y-361518D01*
X242923Y-362268D01*
X242173Y-363181D01*
X241616Y-364224D01*
X241273Y-365355D01*
X241157Y-366531D01*
X241273Y-367707D01*
X241616Y-368838D01*
X242173Y-369881D01*
X242655Y-370468D01*
X242173Y-371055D01*
X241616Y-372098D01*
X241273Y-373229D01*
X241157Y-374405D01*
X241273Y-375581D01*
X241616Y-376712D01*
X242173Y-377754D01*
X242655Y-378342D01*
X242173Y-378929D01*
X241616Y-379972D01*
X241273Y-381103D01*
X241157Y-382279D01*
X241273Y-383455D01*
X241616Y-384586D01*
X242173Y-385629D01*
X242655Y-386216D01*
X242173Y-386803D01*
X241616Y-387846D01*
X241273Y-388977D01*
X241157Y-390153D01*
X241273Y-391329D01*
X241616Y-392460D01*
X242173Y-393502D01*
X242655Y-394090D01*
X242173Y-394677D01*
X241616Y-395720D01*
X241273Y-396851D01*
X241157Y-398027D01*
X241273Y-399203D01*
X241616Y-400334D01*
X242173Y-401376D01*
X242923Y-402290D01*
X243186Y-402506D01*
Y-404651D01*
X255186D01*
Y-402506D01*
X255449Y-402290D01*
X256199Y-401376D01*
X256756Y-400334D01*
X257099Y-399203D01*
X257215Y-398027D01*
X257099Y-396851D01*
X256756Y-395720D01*
X256199Y-394677D01*
X255717Y-394090D01*
X256199Y-393502D01*
X256756Y-392460D01*
X257099Y-391329D01*
X257215Y-390153D01*
X257099Y-388977D01*
X256756Y-387846D01*
X256199Y-386803D01*
X255717Y-386216D01*
X256199Y-385629D01*
X256756Y-384586D01*
X257099Y-383455D01*
X257215Y-382279D01*
X257099Y-381103D01*
X256756Y-379972D01*
X256199Y-378929D01*
X255717Y-378342D01*
X256199Y-377754D01*
X256756Y-376712D01*
X257099Y-375581D01*
X257215Y-374405D01*
X257099Y-373229D01*
X256756Y-372098D01*
X256199Y-371055D01*
X255717Y-370468D01*
X256199Y-369881D01*
X256756Y-368838D01*
X257099Y-367707D01*
X257215Y-366531D01*
X257099Y-365355D01*
X256756Y-364224D01*
X256199Y-363181D01*
X255449Y-362268D01*
X254536Y-361518D01*
X253493Y-360961D01*
X252362Y-360618D01*
X251186Y-360502D01*
D02*
G37*
G36*
X247936Y-407151D02*
X243186D01*
Y-409651D01*
X247936D01*
Y-407151D01*
D02*
G37*
G36*
X255186D02*
X250436D01*
Y-409651D01*
X255186D01*
Y-407151D01*
D02*
G37*
G36*
X122500Y-404335D02*
X120479D01*
X120693Y-404850D01*
X121254Y-405581D01*
X121985Y-406142D01*
X122500Y-406355D01*
Y-404335D01*
D02*
G37*
G36*
X328500Y-326953D02*
X327064Y-327142D01*
X325726Y-327696D01*
X324577Y-328577D01*
X323696Y-329726D01*
X323142Y-331064D01*
X322953Y-332500D01*
X323142Y-333936D01*
X323696Y-335274D01*
X324577Y-336423D01*
X325726Y-337304D01*
X327064Y-337858D01*
X328500Y-338048D01*
X329936Y-337858D01*
X331274Y-337304D01*
X332423Y-336423D01*
X333304Y-335274D01*
X333858Y-333936D01*
X334048Y-332500D01*
X333858Y-331064D01*
X333304Y-329726D01*
X332423Y-328577D01*
X331274Y-327696D01*
X329936Y-327142D01*
X328500Y-326953D01*
D02*
G37*
G36*
X269095Y-324404D02*
X267659Y-324593D01*
X266321Y-325147D01*
X265172Y-326028D01*
X264290Y-327177D01*
X263736Y-328515D01*
X263547Y-329951D01*
X263736Y-331387D01*
X264290Y-332725D01*
X265172Y-333874D01*
X266321Y-334755D01*
X267659Y-335310D01*
X269095Y-335499D01*
X270531Y-335310D01*
X271868Y-334755D01*
X273017Y-333874D01*
X273899Y-332725D01*
X274453Y-331387D01*
X274642Y-329951D01*
X274453Y-328515D01*
X273899Y-327177D01*
X273017Y-326028D01*
X271868Y-325147D01*
X270531Y-324593D01*
X269095Y-324404D01*
D02*
G37*
G36*
X89500Y-323953D02*
X88064Y-324142D01*
X86726Y-324696D01*
X85577Y-325577D01*
X84696Y-326726D01*
X84142Y-328064D01*
X83952Y-329500D01*
X84142Y-330936D01*
X84696Y-332274D01*
X85577Y-333423D01*
X86726Y-334304D01*
X88064Y-334858D01*
X89500Y-335048D01*
X90936Y-334858D01*
X92274Y-334304D01*
X93423Y-333423D01*
X94304Y-332274D01*
X94858Y-330936D01*
X95047Y-329500D01*
X94858Y-328064D01*
X94304Y-326726D01*
X93423Y-325577D01*
X92274Y-324696D01*
X90936Y-324142D01*
X89500Y-323953D01*
D02*
G37*
G36*
X122500Y-399814D02*
X121985Y-400028D01*
X121254Y-400589D01*
X120693Y-401320D01*
X120479Y-401835D01*
X122500D01*
Y-399814D01*
D02*
G37*
G36*
X125000D02*
Y-401835D01*
X127021D01*
X126807Y-401320D01*
X126246Y-400589D01*
X125515Y-400028D01*
X125000Y-399814D01*
D02*
G37*
G36*
X289000Y-360453D02*
X287564Y-360642D01*
X286226Y-361196D01*
X285077Y-362077D01*
X284196Y-363226D01*
X283642Y-364564D01*
X283453Y-366000D01*
X283642Y-367436D01*
X284196Y-368774D01*
X285077Y-369923D01*
X286226Y-370804D01*
X287564Y-371358D01*
X289000Y-371548D01*
X290436Y-371358D01*
X291774Y-370804D01*
X292923Y-369923D01*
X293804Y-368774D01*
X294358Y-367436D01*
X294548Y-366000D01*
X294358Y-364564D01*
X293804Y-363226D01*
X292923Y-362077D01*
X291774Y-361196D01*
X290436Y-360642D01*
X289000Y-360453D01*
D02*
G37*
G36*
X254250Y-311229D02*
X253735Y-311443D01*
X253004Y-312004D01*
X252443Y-312735D01*
X252229Y-313250D01*
X254250D01*
Y-311229D01*
D02*
G37*
G36*
X52750Y-64250D02*
X49752D01*
Y-67248D01*
X52750D01*
Y-64250D01*
D02*
G37*
G36*
X58248D02*
X55250D01*
Y-67248D01*
X58248D01*
Y-64250D01*
D02*
G37*
G36*
X54000Y-46722D02*
X52775Y-46842D01*
X51597Y-47200D01*
X50512Y-47780D01*
X49561Y-48561D01*
X48780Y-49512D01*
X48200Y-50597D01*
X47842Y-51775D01*
X47722Y-53000D01*
X47842Y-54225D01*
X48200Y-55403D01*
X48780Y-56488D01*
X49561Y-57439D01*
X49752Y-57596D01*
X49752Y-58752D01*
X49752D01*
Y-61750D01*
X58248D01*
Y-58752D01*
X58248D01*
X58248Y-57596D01*
X58439Y-57439D01*
X59220Y-56488D01*
X59800Y-55403D01*
X60158Y-54225D01*
X60278Y-53000D01*
X60158Y-51775D01*
X59800Y-50597D01*
X59220Y-49512D01*
X58439Y-48561D01*
X57488Y-47780D01*
X56403Y-47200D01*
X55225Y-46842D01*
X54000Y-46722D01*
D02*
G37*
G36*
X210500Y-93453D02*
X209064Y-93642D01*
X207726Y-94196D01*
X206577Y-95077D01*
X205696Y-96226D01*
X205672Y-96283D01*
X204681Y-96414D01*
X204423Y-96077D01*
X203274Y-95196D01*
X201936Y-94642D01*
X200500Y-94453D01*
X199064Y-94642D01*
X197726Y-95196D01*
X196577Y-96077D01*
X195696Y-97226D01*
X195142Y-98564D01*
X194952Y-100000D01*
X195142Y-101436D01*
X195696Y-102774D01*
X196577Y-103923D01*
X197726Y-104804D01*
X199064Y-105358D01*
X200500Y-105547D01*
X201936Y-105358D01*
X203274Y-104804D01*
X204423Y-103923D01*
X205304Y-102774D01*
X205328Y-102717D01*
X206319Y-102586D01*
X206577Y-102923D01*
X207726Y-103804D01*
X209064Y-104358D01*
X210500Y-104548D01*
X211936Y-104358D01*
X213274Y-103804D01*
X214423Y-102923D01*
X215304Y-101774D01*
X215858Y-100436D01*
X216048Y-99000D01*
X215858Y-97564D01*
X215304Y-96226D01*
X214423Y-95077D01*
X213274Y-94196D01*
X211936Y-93642D01*
X210500Y-93453D01*
D02*
G37*
G36*
X349346Y-38154D02*
X336653D01*
Y-50846D01*
X336784D01*
X337298Y-51704D01*
X337108Y-52060D01*
X336745Y-53256D01*
X336623Y-54500D01*
X336745Y-55744D01*
X337108Y-56940D01*
X337698Y-58043D01*
X338491Y-59009D01*
Y-59991D01*
X337698Y-60957D01*
X337108Y-62060D01*
X336745Y-63256D01*
X336623Y-64500D01*
X336745Y-65744D01*
X337108Y-66940D01*
X337698Y-68043D01*
X338491Y-69009D01*
X339432Y-69782D01*
X339360Y-69985D01*
X338965Y-70723D01*
X328020D01*
Y-83220D01*
X340516D01*
Y-83023D01*
X341374Y-82509D01*
X341865Y-82772D01*
X343043Y-83129D01*
X344268Y-83250D01*
X345493Y-83129D01*
X346671Y-82772D01*
X347756Y-82192D01*
X348707Y-81411D01*
X349488Y-80460D01*
X350068Y-79374D01*
X350426Y-78196D01*
X350546Y-76972D01*
X350426Y-75747D01*
X350068Y-74569D01*
X349488Y-73484D01*
X348707Y-72532D01*
X347756Y-71751D01*
X346671Y-71171D01*
X346206Y-71030D01*
X346108Y-70035D01*
X346543Y-69802D01*
X347509Y-69009D01*
X348302Y-68043D01*
X348892Y-66940D01*
X349255Y-65744D01*
X349377Y-64500D01*
X349255Y-63256D01*
X348892Y-62060D01*
X348302Y-60957D01*
X347509Y-59991D01*
Y-59009D01*
X348302Y-58043D01*
X348892Y-56940D01*
X349255Y-55744D01*
X349377Y-54500D01*
X349255Y-53256D01*
X348892Y-52060D01*
X348702Y-51704D01*
X349216Y-50846D01*
X349346D01*
Y-38154D01*
D02*
G37*
G36*
X32104Y-37941D02*
X30860Y-38064D01*
X29664Y-38427D01*
X28561Y-39016D01*
X27595Y-39809D01*
X26802Y-40776D01*
X26212Y-41878D01*
X25849Y-43074D01*
X25727Y-44319D01*
X25849Y-45563D01*
X26212Y-46759D01*
X26802Y-47861D01*
X27595Y-48828D01*
Y-49809D01*
X26802Y-50776D01*
X26212Y-51878D01*
X25849Y-53074D01*
X25727Y-54318D01*
X25849Y-55563D01*
X26212Y-56759D01*
X26402Y-57114D01*
X25888Y-57972D01*
X25758D01*
Y-70665D01*
X36528D01*
X37084Y-71496D01*
X36642Y-72564D01*
X36452Y-74000D01*
X36642Y-75436D01*
X37196Y-76774D01*
X38077Y-77923D01*
X39226Y-78804D01*
X40564Y-79358D01*
X42000Y-79548D01*
X43436Y-79358D01*
X44774Y-78804D01*
X45923Y-77923D01*
X46804Y-76774D01*
X47358Y-75436D01*
X47548Y-74000D01*
X47358Y-72564D01*
X46804Y-71226D01*
X45923Y-70077D01*
X44774Y-69196D01*
X43436Y-68642D01*
X42000Y-68453D01*
X40564Y-68642D01*
X39282Y-69173D01*
X38450Y-68617D01*
Y-57972D01*
X38320D01*
X37806Y-57114D01*
X37996Y-56759D01*
X38359Y-55563D01*
X38481Y-54318D01*
X38359Y-53074D01*
X37996Y-51878D01*
X37406Y-50776D01*
X36613Y-49809D01*
Y-48828D01*
X37406Y-47861D01*
X37996Y-46759D01*
X38359Y-45563D01*
X38481Y-44319D01*
X38359Y-43074D01*
X37996Y-41878D01*
X37406Y-40776D01*
X36613Y-39809D01*
X35647Y-39016D01*
X34544Y-38427D01*
X33348Y-38064D01*
X32104Y-37941D01*
D02*
G37*
G36*
X317750Y-32729D02*
Y-34750D01*
X319771D01*
X319557Y-34235D01*
X318996Y-33504D01*
X318265Y-32943D01*
X317750Y-32729D01*
D02*
G37*
G36*
X334500Y-20953D02*
X333064Y-21142D01*
X331726Y-21696D01*
X330577Y-22577D01*
X329696Y-23726D01*
X329142Y-25064D01*
X328953Y-26500D01*
X329142Y-27936D01*
X329696Y-29274D01*
X330577Y-30423D01*
X331726Y-31304D01*
X333064Y-31858D01*
X334500Y-32048D01*
X335936Y-31858D01*
X337274Y-31304D01*
X338423Y-30423D01*
X339304Y-29274D01*
X339858Y-27936D01*
X340048Y-26500D01*
X339858Y-25064D01*
X339304Y-23726D01*
X338423Y-22577D01*
X337274Y-21696D01*
X335936Y-21142D01*
X334500Y-20953D01*
D02*
G37*
G36*
X322000Y-16952D02*
X320564Y-17142D01*
X319226Y-17696D01*
X318077Y-18577D01*
X317196Y-19726D01*
X316642Y-21064D01*
X316453Y-22500D01*
X316642Y-23936D01*
X317196Y-25274D01*
X318077Y-26423D01*
X319226Y-27304D01*
X320564Y-27858D01*
X322000Y-28047D01*
X323436Y-27858D01*
X324774Y-27304D01*
X325923Y-26423D01*
X326804Y-25274D01*
X327358Y-23936D01*
X327548Y-22500D01*
X327358Y-21064D01*
X326804Y-19726D01*
X325923Y-18577D01*
X324774Y-17696D01*
X323436Y-17142D01*
X322000Y-16952D01*
D02*
G37*
G36*
X315250Y-37250D02*
X313229D01*
X313443Y-37765D01*
X314004Y-38496D01*
X314735Y-39057D01*
X315250Y-39271D01*
Y-37250D01*
D02*
G37*
G36*
X319771D02*
X317750D01*
Y-39271D01*
X318265Y-39057D01*
X318996Y-38496D01*
X319557Y-37765D01*
X319771Y-37250D01*
D02*
G37*
G36*
X315250Y-32729D02*
X314735Y-32943D01*
X314004Y-33504D01*
X313443Y-34235D01*
X313229Y-34750D01*
X315250D01*
Y-32729D01*
D02*
G37*
G36*
X283221Y-297581D02*
X281785Y-297770D01*
X280447Y-298324D01*
X279298Y-299205D01*
X278417Y-300354D01*
X277863Y-301692D01*
X277674Y-303128D01*
X277863Y-304564D01*
X278417Y-305902D01*
X279298Y-307051D01*
X280447Y-307932D01*
X281785Y-308487D01*
X283221Y-308676D01*
X284657Y-308487D01*
X285995Y-307932D01*
X287144Y-307051D01*
X288025Y-305902D01*
X288579Y-304564D01*
X288768Y-303128D01*
X288579Y-301692D01*
X288025Y-300354D01*
X287144Y-299205D01*
X285995Y-298324D01*
X284657Y-297770D01*
X283221Y-297581D01*
D02*
G37*
G36*
X256000Y-287952D02*
X254564Y-288142D01*
X253226Y-288696D01*
X252077Y-289577D01*
X251196Y-290726D01*
X250642Y-292064D01*
X250452Y-293500D01*
X250642Y-294936D01*
X251196Y-296274D01*
X252077Y-297423D01*
X253226Y-298304D01*
X254564Y-298858D01*
X256000Y-299047D01*
X257436Y-298858D01*
X258774Y-298304D01*
X259923Y-297423D01*
X260804Y-296274D01*
X261358Y-294936D01*
X261547Y-293500D01*
X261358Y-292064D01*
X260804Y-290726D01*
X259923Y-289577D01*
X258774Y-288696D01*
X257436Y-288142D01*
X256000Y-287952D01*
D02*
G37*
G36*
X121000Y-283952D02*
X119564Y-284142D01*
X118226Y-284696D01*
X117077Y-285577D01*
X116196Y-286726D01*
X115642Y-288064D01*
X115453Y-289500D01*
X115642Y-290936D01*
X116196Y-292274D01*
X117077Y-293423D01*
X118226Y-294304D01*
X119564Y-294858D01*
X121000Y-295047D01*
X122436Y-294858D01*
X123774Y-294304D01*
X124923Y-293423D01*
X125804Y-292274D01*
X126358Y-290936D01*
X126548Y-289500D01*
X126358Y-288064D01*
X125804Y-286726D01*
X124923Y-285577D01*
X123774Y-284696D01*
X122436Y-284142D01*
X121000Y-283952D01*
D02*
G37*
G36*
X256750Y-311229D02*
Y-313250D01*
X258771D01*
X258557Y-312735D01*
X257996Y-312004D01*
X257265Y-311443D01*
X256750Y-311229D01*
D02*
G37*
G36*
X284571Y-310604D02*
X284056Y-310818D01*
X283325Y-311379D01*
X282764Y-312110D01*
X282551Y-312625D01*
X284571D01*
Y-310604D01*
D02*
G37*
G36*
X287071D02*
Y-312625D01*
X289092D01*
X288878Y-312110D01*
X288317Y-311379D01*
X287586Y-310818D01*
X287071Y-310604D01*
D02*
G37*
G36*
X252000Y-271452D02*
X250564Y-271642D01*
X249226Y-272196D01*
X248077Y-273077D01*
X247196Y-274226D01*
X246642Y-275564D01*
X246452Y-277000D01*
X246642Y-278436D01*
X247196Y-279774D01*
X248077Y-280923D01*
X249226Y-281804D01*
X250564Y-282358D01*
X252000Y-282547D01*
X253436Y-282358D01*
X254774Y-281804D01*
X255923Y-280923D01*
X256804Y-279774D01*
X257358Y-278436D01*
X257547Y-277000D01*
X257358Y-275564D01*
X256804Y-274226D01*
X255923Y-273077D01*
X254774Y-272196D01*
X253436Y-271642D01*
X252000Y-271452D01*
D02*
G37*
G36*
X356000Y-239453D02*
X354564Y-239642D01*
X353226Y-240196D01*
X352077Y-241077D01*
X351196Y-242226D01*
X350642Y-243564D01*
X350452Y-245000D01*
X350642Y-246436D01*
X351196Y-247774D01*
X352077Y-248923D01*
X353226Y-249804D01*
X354564Y-250358D01*
X356000Y-250548D01*
X357436Y-250358D01*
X358774Y-249804D01*
X359923Y-248923D01*
X360804Y-247774D01*
X361358Y-246436D01*
X361547Y-245000D01*
X361358Y-243564D01*
X360804Y-242226D01*
X359923Y-241077D01*
X358774Y-240196D01*
X357436Y-239642D01*
X356000Y-239453D01*
D02*
G37*
G36*
X359750Y-173252D02*
X356752D01*
Y-176250D01*
X359750D01*
Y-173252D01*
D02*
G37*
G36*
X226000Y-283453D02*
X224564Y-283642D01*
X223226Y-284196D01*
X222077Y-285077D01*
X221196Y-286226D01*
X220642Y-287564D01*
X220452Y-289000D01*
X220642Y-290436D01*
X221196Y-291774D01*
X222077Y-292923D01*
X223226Y-293804D01*
X224564Y-294358D01*
X226000Y-294548D01*
X227436Y-294358D01*
X228774Y-293804D01*
X229923Y-292923D01*
X230804Y-291774D01*
X231358Y-290436D01*
X231547Y-289000D01*
X231358Y-287564D01*
X230804Y-286226D01*
X229923Y-285077D01*
X228774Y-284196D01*
X227436Y-283642D01*
X226000Y-283453D01*
D02*
G37*
G36*
X101000Y-266057D02*
X99255Y-266229D01*
X97578Y-266738D01*
X96031Y-267564D01*
X94676Y-268676D01*
X93564Y-270031D01*
X92738Y-271578D01*
X92229Y-273255D01*
X92057Y-275000D01*
X92229Y-276745D01*
X92738Y-278422D01*
X93564Y-279969D01*
X94676Y-281324D01*
X96031Y-282436D01*
X97578Y-283262D01*
X99255Y-283771D01*
X101000Y-283943D01*
X102745Y-283771D01*
X104422Y-283262D01*
X105968Y-282436D01*
X107324Y-281324D01*
X108436Y-279969D01*
X109262Y-278422D01*
X109771Y-276745D01*
X109943Y-275000D01*
X109771Y-273255D01*
X109262Y-271578D01*
X108436Y-270031D01*
X107324Y-268676D01*
X105968Y-267564D01*
X104422Y-266738D01*
X102745Y-266229D01*
X101000Y-266057D01*
D02*
G37*
G36*
X275000D02*
X273255Y-266229D01*
X271578Y-266738D01*
X270031Y-267564D01*
X268676Y-268676D01*
X267564Y-270031D01*
X266738Y-271578D01*
X266229Y-273255D01*
X266057Y-275000D01*
X266229Y-276745D01*
X266738Y-278422D01*
X267564Y-279969D01*
X268676Y-281324D01*
X270031Y-282436D01*
X271578Y-283262D01*
X273255Y-283771D01*
X275000Y-283943D01*
X276745Y-283771D01*
X278422Y-283262D01*
X279969Y-282436D01*
X281324Y-281324D01*
X282436Y-279969D01*
X283262Y-278422D01*
X283771Y-276745D01*
X283943Y-275000D01*
X283771Y-273255D01*
X283262Y-271578D01*
X282436Y-270031D01*
X281324Y-268676D01*
X279969Y-267564D01*
X278422Y-266738D01*
X276745Y-266229D01*
X275000Y-266057D01*
D02*
G37*
%LPD*%
D29*
X201365Y-405366D02*
X201548D01*
X198000Y-402000D02*
X201365Y-405366D01*
X156380Y-387099D02*
X156449D01*
X249161Y-411629D02*
X249186Y-411604D01*
D30*
X215159Y-365053D02*
X217409Y-362803D01*
X215159Y-366535D02*
Y-365053D01*
X6344Y-180211D02*
X11711D01*
X6344Y-239345D02*
Y-180211D01*
Y-239345D02*
X20500Y-253500D01*
X11000Y-381000D02*
X40224Y-410224D01*
Y-423224D02*
Y-410224D01*
Y-423224D02*
X60500Y-443500D01*
X203038Y-423565D02*
Y-419038D01*
X201000Y-417000D02*
X203038Y-419038D01*
X213038Y-423565D02*
Y-417038D01*
X209000Y-413000D02*
X213038Y-417038D01*
X64500Y-413000D02*
X209000D01*
X172500Y-434103D02*
X173038Y-433565D01*
X75500Y-439500D02*
X170000D01*
X172500Y-437000D01*
Y-434103D01*
X60500Y-443500D02*
X183103D01*
X193038Y-433565D01*
X11000Y-381000D02*
Y-303500D01*
X14000Y-378000D02*
X75500Y-439500D01*
X61000Y-417000D02*
X201000D01*
X11711Y-180211D02*
X12000Y-180500D01*
X31000Y-379500D02*
X64500Y-413000D01*
X31000Y-379500D02*
Y-324500D01*
X46000Y-309500D02*
X46500Y-309000D01*
X31000Y-324500D02*
X31500D01*
X46000Y-310000D01*
X25000Y-381000D02*
X61000Y-417000D01*
X25000Y-381000D02*
Y-300000D01*
X14000Y-378000D02*
Y-321000D01*
X18000Y-317000D01*
X11000Y-303500D02*
X15000Y-299500D01*
X20500Y-295500D02*
Y-253500D01*
Y-295500D02*
X25000Y-300000D01*
D31*
X154508Y-135682D02*
X165810D01*
X165960Y-135533D01*
Y-135500D02*
X171500D01*
X270000Y-35000D02*
X280000D01*
X288500D01*
X297500Y-44000D01*
X298000Y-44500D01*
X240500Y-35000D02*
X270000D01*
X233000Y-42500D02*
X240500Y-35000D01*
X16000Y-24500D02*
X28000Y-12500D01*
X16000Y-129000D02*
Y-24500D01*
Y-129000D02*
X23000Y-136000D01*
Y-150000D02*
Y-136000D01*
X184500Y-122500D02*
Y-42500D01*
X233000D01*
X28000Y-12500D02*
X97839D01*
X115503Y-42500D02*
X184500D01*
X97839Y-12500D02*
X104873Y-19534D01*
Y-32659D02*
Y-19534D01*
Y-32659D02*
X114852Y-42638D01*
X171500Y-135500D02*
X184500Y-122500D01*
D32*
X156449Y-387099D02*
X161102Y-382446D01*
X270500Y-55000D02*
X280000D01*
D37*
X310000Y-372363D02*
X332188Y-394550D01*
X310000Y-372363D02*
Y-225000D01*
X297500Y-212500D02*
X310000Y-225000D01*
X297500Y-212500D02*
Y-44000D01*
X33500Y-287500D02*
X71000D01*
X86000Y-302500D01*
X102500D01*
D39*
X54000Y-63000D02*
D03*
X361000Y-177500D02*
D03*
D40*
X270000Y-55000D02*
D03*
X280000D02*
D03*
X270000Y-45000D02*
D03*
X280000D02*
D03*
X270000Y-35000D02*
D03*
X280000D02*
D03*
D42*
X249186Y-405901D02*
D03*
D50*
X156299Y-135831D02*
D03*
D53*
X12889Y-180428D02*
D03*
X22889Y-150428D02*
D03*
D54*
X213038Y-423565D02*
D03*
X203038D02*
D03*
X193038Y-433565D02*
D03*
X173038D02*
D03*
D55*
X161102Y-382446D02*
D03*
X198000Y-402000D02*
D03*
X180488Y-349220D02*
D03*
X215159Y-366535D02*
D03*
D56*
X333494Y-394737D02*
D03*
X123750Y-403085D02*
D03*
X226500Y-314500D02*
D03*
X255500D02*
D03*
X285821Y-313875D02*
D03*
X316500Y-36000D02*
D03*
X46000Y-309500D02*
D03*
X19000Y-316000D02*
D03*
X15000Y-299000D02*
D03*
X33500Y-287500D02*
D03*
X103000Y-303000D02*
D03*
M02*
