%FSLAX25Y25*%
%MOIN*%
G70*
G01*
G75*
G04 Layer_Color=9218505*
%ADD10R,0.03740X0.03937*%
%ADD11P,0.04454X4X90.0*%
G04:AMPARAMS|DCode=12|XSize=37.4mil|YSize=39.37mil|CornerRadius=0mil|HoleSize=0mil|Usage=FLASHONLY|Rotation=315.000|XOffset=0mil|YOffset=0mil|HoleType=Round|Shape=Rectangle|*
%AMROTATEDRECTD12*
4,1,4,-0.02714,-0.00070,0.00070,0.02714,0.02714,0.00070,-0.00070,-0.02714,-0.02714,-0.00070,0.0*
%
%ADD12ROTATEDRECTD12*%

%ADD13R,0.04200X0.02500*%
G04:AMPARAMS|DCode=14|XSize=106.3mil|YSize=62.99mil|CornerRadius=0mil|HoleSize=0mil|Usage=FLASHONLY|Rotation=225.000|XOffset=0mil|YOffset=0mil|HoleType=Round|Shape=Rectangle|*
%AMROTATEDRECTD14*
4,1,4,0.01531,0.05985,0.05985,0.01531,-0.01531,-0.05985,-0.05985,-0.01531,0.01531,0.05985,0.0*
%
%ADD14ROTATEDRECTD14*%

G04:AMPARAMS|DCode=15|XSize=106.3mil|YSize=62.99mil|CornerRadius=0mil|HoleSize=0mil|Usage=FLASHONLY|Rotation=315.000|XOffset=0mil|YOffset=0mil|HoleType=Round|Shape=Rectangle|*
%AMROTATEDRECTD15*
4,1,4,-0.05985,0.01531,-0.01531,0.05985,0.05985,-0.01531,0.01531,-0.05985,-0.05985,0.01531,0.0*
%
%ADD15ROTATEDRECTD15*%

G04:AMPARAMS|DCode=16|XSize=15.75mil|YSize=33.47mil|CornerRadius=0mil|HoleSize=0mil|Usage=FLASHONLY|Rotation=135.000|XOffset=0mil|YOffset=0mil|HoleType=Round|Shape=Rectangle|*
%AMROTATEDRECTD16*
4,1,4,0.01740,0.00626,-0.00626,-0.01740,-0.01740,-0.00626,0.00626,0.01740,0.01740,0.00626,0.0*
%
%ADD16ROTATEDRECTD16*%

G04:AMPARAMS|DCode=17|XSize=15.75mil|YSize=33.47mil|CornerRadius=0mil|HoleSize=0mil|Usage=FLASHONLY|Rotation=225.000|XOffset=0mil|YOffset=0mil|HoleType=Round|Shape=Rectangle|*
%AMROTATEDRECTD17*
4,1,4,-0.00626,0.01740,0.01740,-0.00626,0.00626,-0.01740,-0.01740,0.00626,-0.00626,0.01740,0.0*
%
%ADD17ROTATEDRECTD17*%

%ADD18R,0.04331X0.02559*%
%ADD19R,0.03150X0.03150*%
%ADD20O,0.03937X0.09843*%
%ADD21O,0.09843X0.03937*%
%ADD22R,0.03937X0.09843*%
%ADD23R,0.03150X0.03150*%
%ADD24R,0.03937X0.03740*%
%ADD25R,0.03602X0.04803*%
%ADD26R,0.15000X0.11000*%
%ADD27R,0.01024X0.00630*%
%ADD28R,0.01024X0.02008*%
%ADD29C,0.01500*%
%ADD30C,0.02000*%
%ADD31C,0.07500*%
%ADD32C,0.04000*%
%ADD33C,0.03000*%
%ADD34C,0.02500*%
%ADD35C,0.05000*%
%ADD36C,0.01000*%
%ADD37C,0.10000*%
%ADD38C,0.11800*%
%ADD39R,0.06496X0.06496*%
%ADD40C,0.06496*%
%ADD41O,0.10000X0.06000*%
%ADD42R,0.10000X0.05500*%
%ADD43R,0.06693X0.06693*%
%ADD44C,0.06693*%
%ADD45R,0.06496X0.06496*%
%ADD46C,0.28000*%
%ADD47R,0.04000X0.07874*%
%ADD48O,0.04000X0.07874*%
%ADD49O,0.03937X0.07874*%
%ADD50O,0.09843X0.06000*%
%ADD51R,0.09843X0.06000*%
%ADD52C,0.16000*%
%ADD53R,0.06000X0.06000*%
%ADD54R,0.06000X0.06000*%
%ADD55C,0.04000*%
%ADD56C,0.05000*%
%ADD57C,0.04500*%
%ADD58C,0.00984*%
%ADD59C,0.01181*%
%ADD60C,0.00787*%
%ADD61C,0.00700*%
%ADD62C,0.00800*%
G04:AMPARAMS|DCode=63|XSize=19.69mil|YSize=62.99mil|CornerRadius=0mil|HoleSize=0mil|Usage=FLASHONLY|Rotation=45.000|XOffset=0mil|YOffset=0mil|HoleType=Round|Shape=Rectangle|*
%AMROTATEDRECTD63*
4,1,4,0.01531,-0.02923,-0.02923,0.01531,-0.01531,0.02923,0.02923,-0.01531,0.01531,-0.02923,0.0*
%
%ADD63ROTATEDRECTD63*%

%ADD64R,0.01000X0.11000*%
%ADD65R,0.10350X0.01000*%
%ADD66R,0.03000X0.01500*%
%ADD67R,0.01500X0.03000*%
%ADD68R,0.01968X0.06299*%
%ADD69R,0.06299X0.01969*%
%ADD70R,0.02000X0.09200*%
%ADD71R,0.24700X0.02000*%
%ADD72R,0.01969X0.06299*%
%ADD73R,0.06299X0.01968*%
%ADD74R,0.04140X0.04337*%
%ADD75P,0.05020X4X90.0*%
G04:AMPARAMS|DCode=76|XSize=41.4mil|YSize=43.37mil|CornerRadius=0mil|HoleSize=0mil|Usage=FLASHONLY|Rotation=315.000|XOffset=0mil|YOffset=0mil|HoleType=Round|Shape=Rectangle|*
%AMROTATEDRECTD76*
4,1,4,-0.02997,-0.00070,0.00070,0.02997,0.02997,0.00070,-0.00070,-0.02997,-0.02997,-0.00070,0.0*
%
%ADD76ROTATEDRECTD76*%

%ADD77R,0.04600X0.02900*%
G04:AMPARAMS|DCode=78|XSize=110.3mil|YSize=66.99mil|CornerRadius=0mil|HoleSize=0mil|Usage=FLASHONLY|Rotation=225.000|XOffset=0mil|YOffset=0mil|HoleType=Round|Shape=Rectangle|*
%AMROTATEDRECTD78*
4,1,4,0.01531,0.06268,0.06268,0.01531,-0.01531,-0.06268,-0.06268,-0.01531,0.01531,0.06268,0.0*
%
%ADD78ROTATEDRECTD78*%

G04:AMPARAMS|DCode=79|XSize=110.3mil|YSize=66.99mil|CornerRadius=0mil|HoleSize=0mil|Usage=FLASHONLY|Rotation=315.000|XOffset=0mil|YOffset=0mil|HoleType=Round|Shape=Rectangle|*
%AMROTATEDRECTD79*
4,1,4,-0.06268,0.01531,-0.01531,0.06268,0.06268,-0.01531,0.01531,-0.06268,-0.06268,0.01531,0.0*
%
%ADD79ROTATEDRECTD79*%

G04:AMPARAMS|DCode=80|XSize=19.75mil|YSize=37.47mil|CornerRadius=0mil|HoleSize=0mil|Usage=FLASHONLY|Rotation=135.000|XOffset=0mil|YOffset=0mil|HoleType=Round|Shape=Rectangle|*
%AMROTATEDRECTD80*
4,1,4,0.02023,0.00626,-0.00626,-0.02023,-0.02023,-0.00626,0.00626,0.02023,0.02023,0.00626,0.0*
%
%ADD80ROTATEDRECTD80*%

G04:AMPARAMS|DCode=81|XSize=19.75mil|YSize=37.47mil|CornerRadius=0mil|HoleSize=0mil|Usage=FLASHONLY|Rotation=225.000|XOffset=0mil|YOffset=0mil|HoleType=Round|Shape=Rectangle|*
%AMROTATEDRECTD81*
4,1,4,-0.00626,0.02023,0.02023,-0.00626,0.00626,-0.02023,-0.02023,0.00626,-0.00626,0.02023,0.0*
%
%ADD81ROTATEDRECTD81*%

%ADD82R,0.04731X0.02959*%
%ADD83R,0.03550X0.03550*%
%ADD84O,0.04337X0.10243*%
%ADD85O,0.10243X0.04337*%
%ADD86R,0.04337X0.10243*%
%ADD87R,0.03550X0.03550*%
%ADD88R,0.04337X0.04140*%
%ADD89R,0.04002X0.05203*%
%ADD90R,0.15400X0.11400*%
%ADD91R,0.01424X0.01030*%
%ADD92R,0.01424X0.02408*%
%ADD93C,0.12200*%
%ADD94O,0.10400X0.06400*%
%ADD95R,0.10400X0.05900*%
%ADD96R,0.07093X0.07093*%
%ADD97C,0.07093*%
%ADD98R,0.06896X0.06896*%
%ADD99C,0.06896*%
%ADD100R,0.06896X0.06896*%
%ADD101C,0.28400*%
%ADD102R,0.04400X0.08274*%
%ADD103O,0.04400X0.08274*%
%ADD104O,0.04337X0.08274*%
%ADD105O,0.10243X0.06400*%
%ADD106R,0.10243X0.06400*%
%ADD107C,0.16400*%
%ADD108R,0.06400X0.06400*%
%ADD109R,0.06400X0.06400*%
%ADD110C,0.04400*%
%ADD111C,0.05400*%
D36*
X365419Y-162044D02*
Y-167042D01*
X364419Y-168042D01*
X362420D01*
X361420Y-167042D01*
Y-162044D01*
X355422Y-163044D02*
X356422Y-162044D01*
X358421D01*
X359421Y-163044D01*
Y-164043D01*
X358421Y-165043D01*
X356422D01*
X355422Y-166043D01*
Y-167042D01*
X356422Y-168042D01*
X358421D01*
X359421Y-167042D01*
X353423Y-168042D02*
X351424D01*
X352423D01*
Y-162044D01*
X353423Y-163044D01*
D61*
X141038Y-430563D02*
Y-427231D01*
X141704Y-426565D01*
X143037D01*
X143704Y-427231D01*
Y-430563D01*
X145037Y-426565D02*
X146370D01*
X145703D01*
Y-430563D01*
X145037Y-429897D01*
X28934Y-137002D02*
Y-140334D01*
X28267Y-141001D01*
X26934D01*
X26268Y-140334D01*
Y-137002D01*
X22269D02*
X23602Y-137669D01*
X24935Y-139002D01*
Y-140334D01*
X24269Y-141001D01*
X22936D01*
X22269Y-140334D01*
Y-139668D01*
X22936Y-139002D01*
X24935D01*
D62*
X366000Y-212500D02*
Y-172500D01*
X356000Y-212500D02*
X366000D01*
X356000D02*
Y-172500D01*
X366000D01*
D66*
X357500Y-171749D02*
D03*
M02*
