%FSLAX25Y25*%
%MOIN*%
G70*
G01*
G75*
G04 Layer_Physical_Order=1*
G04 Layer_Color=255*
%ADD10R,0.03740X0.03937*%
%ADD11P,0.04454X4X90.0*%
G04:AMPARAMS|DCode=12|XSize=37.4mil|YSize=39.37mil|CornerRadius=0mil|HoleSize=0mil|Usage=FLASHONLY|Rotation=315.000|XOffset=0mil|YOffset=0mil|HoleType=Round|Shape=Rectangle|*
%AMROTATEDRECTD12*
4,1,4,-0.02714,-0.00070,0.00070,0.02714,0.02714,0.00070,-0.00070,-0.02714,-0.02714,-0.00070,0.0*
%
%ADD12ROTATEDRECTD12*%

%ADD13R,0.04200X0.02500*%
G04:AMPARAMS|DCode=14|XSize=106.3mil|YSize=62.99mil|CornerRadius=0mil|HoleSize=0mil|Usage=FLASHONLY|Rotation=225.000|XOffset=0mil|YOffset=0mil|HoleType=Round|Shape=Rectangle|*
%AMROTATEDRECTD14*
4,1,4,0.01531,0.05985,0.05985,0.01531,-0.01531,-0.05985,-0.05985,-0.01531,0.01531,0.05985,0.0*
%
%ADD14ROTATEDRECTD14*%

G04:AMPARAMS|DCode=15|XSize=106.3mil|YSize=62.99mil|CornerRadius=0mil|HoleSize=0mil|Usage=FLASHONLY|Rotation=315.000|XOffset=0mil|YOffset=0mil|HoleType=Round|Shape=Rectangle|*
%AMROTATEDRECTD15*
4,1,4,-0.05985,0.01531,-0.01531,0.05985,0.05985,-0.01531,0.01531,-0.05985,-0.05985,0.01531,0.0*
%
%ADD15ROTATEDRECTD15*%

G04:AMPARAMS|DCode=16|XSize=15.75mil|YSize=33.47mil|CornerRadius=0mil|HoleSize=0mil|Usage=FLASHONLY|Rotation=135.000|XOffset=0mil|YOffset=0mil|HoleType=Round|Shape=Rectangle|*
%AMROTATEDRECTD16*
4,1,4,0.01740,0.00626,-0.00626,-0.01740,-0.01740,-0.00626,0.00626,0.01740,0.01740,0.00626,0.0*
%
%ADD16ROTATEDRECTD16*%

G04:AMPARAMS|DCode=17|XSize=15.75mil|YSize=33.47mil|CornerRadius=0mil|HoleSize=0mil|Usage=FLASHONLY|Rotation=225.000|XOffset=0mil|YOffset=0mil|HoleType=Round|Shape=Rectangle|*
%AMROTATEDRECTD17*
4,1,4,-0.00626,0.01740,0.01740,-0.00626,0.00626,-0.01740,-0.01740,0.00626,-0.00626,0.01740,0.0*
%
%ADD17ROTATEDRECTD17*%

%ADD18R,0.04331X0.02559*%
%ADD19R,0.03150X0.03150*%
%ADD20O,0.03937X0.09843*%
%ADD21O,0.09843X0.03937*%
%ADD22R,0.03937X0.09843*%
%ADD23R,0.03150X0.03150*%
%ADD24R,0.03937X0.03740*%
%ADD25R,0.03602X0.04803*%
%ADD26R,0.15000X0.11000*%
%ADD27R,0.01024X0.00630*%
%ADD28R,0.01024X0.02008*%
%ADD29C,0.02500*%
%ADD30C,0.01500*%
%ADD31C,0.02000*%
%ADD32C,0.07500*%
%ADD33C,0.04000*%
%ADD34C,0.03000*%
%ADD35C,0.05000*%
%ADD36C,0.01000*%
%ADD37C,0.10000*%
%ADD38C,0.11800*%
%ADD39R,0.06496X0.06496*%
%ADD40C,0.06496*%
%ADD41O,0.10000X0.06000*%
%ADD42R,0.10000X0.06000*%
%ADD43R,0.06693X0.06693*%
%ADD44C,0.06693*%
%ADD45R,0.06496X0.06496*%
%ADD46C,0.28000*%
%ADD47R,0.04000X0.07874*%
%ADD48O,0.04000X0.07874*%
%ADD49O,0.03937X0.07874*%
%ADD50O,0.09843X0.06000*%
%ADD51R,0.09843X0.06000*%
%ADD52C,0.16000*%
%ADD53R,0.06000X0.06000*%
%ADD54R,0.06000X0.06000*%
%ADD55C,0.04000*%
%ADD56C,0.05000*%
G36*
X220927Y-286875D02*
X220642Y-287564D01*
X220452Y-289000D01*
X220476Y-289175D01*
X217769Y-291882D01*
X213630D01*
Y-301819D01*
X215630D01*
Y-301900D01*
X221370D01*
Y-301819D01*
X223370D01*
Y-301420D01*
X228630D01*
Y-301819D01*
Y-308118D01*
X229285D01*
X229575Y-309075D01*
X228886Y-309535D01*
X227936Y-309142D01*
X226500Y-308952D01*
X225064Y-309142D01*
X223726Y-309696D01*
X222577Y-310577D01*
X221696Y-311726D01*
X221142Y-313064D01*
X220953Y-314500D01*
X221142Y-315936D01*
X221696Y-317274D01*
X222317Y-318083D01*
X221875Y-318980D01*
X214610D01*
Y-324098D01*
X214366Y-324199D01*
X213534Y-323644D01*
Y-311773D01*
X214034Y-311390D01*
X214431Y-311194D01*
X214987Y-311620D01*
X215250Y-311729D01*
Y-309000D01*
X216500D01*
Y-307750D01*
X219229D01*
X219121Y-307487D01*
X218758Y-307015D01*
X219185Y-306150D01*
X219209Y-306118D01*
X221370D01*
Y-304400D01*
X215630D01*
Y-306113D01*
X214987Y-306380D01*
X214360Y-306860D01*
X213879Y-307487D01*
X213577Y-308217D01*
X213576Y-308224D01*
X212610Y-308483D01*
X212353Y-308147D01*
X208370Y-304164D01*
Y-298181D01*
X206370D01*
Y-298100D01*
X203500D01*
Y-296850D01*
X202250D01*
Y-293816D01*
X201894Y-292958D01*
X208809Y-286043D01*
X220372D01*
X220927Y-286875D01*
D02*
G37*
G36*
X258302Y-280394D02*
X268552Y-290644D01*
Y-298181D01*
X268370D01*
Y-298181D01*
X266370D01*
Y-298100D01*
X260630D01*
Y-298181D01*
X258630D01*
Y-298218D01*
X254091D01*
X253649Y-297321D01*
X254214Y-296585D01*
X254247Y-296562D01*
X254750Y-296771D01*
Y-293500D01*
Y-290229D01*
X254235Y-290443D01*
X253504Y-291004D01*
X252943Y-291735D01*
X252929Y-291768D01*
X243676D01*
Y-294316D01*
X243445Y-294492D01*
X239969Y-297969D01*
X239317Y-298818D01*
X238642Y-298589D01*
X238370Y-298477D01*
Y-291882D01*
X231659D01*
X231104Y-291050D01*
X231358Y-290436D01*
X231547Y-289000D01*
X231358Y-287564D01*
X231073Y-286875D01*
X231628Y-286043D01*
X248000D01*
X249305Y-285871D01*
X250522Y-285367D01*
X251566Y-284566D01*
X254013Y-282119D01*
X254774Y-281804D01*
X255923Y-280923D01*
X256723Y-279879D01*
X257013Y-279860D01*
X258302Y-280394D01*
D02*
G37*
G36*
X238370Y-308118D02*
X238370D01*
X238713Y-308461D01*
Y-311534D01*
X238599Y-312404D01*
X238788Y-313839D01*
X239342Y-315177D01*
X240224Y-316326D01*
X241373Y-317208D01*
X242692Y-317755D01*
X244124Y-319186D01*
X244026Y-320181D01*
X243750Y-320365D01*
Y-324000D01*
X242500D01*
Y-325250D01*
X239229D01*
X239443Y-325765D01*
X240004Y-326496D01*
X240006Y-326498D01*
X239748Y-327464D01*
X238817Y-327587D01*
X238406Y-327757D01*
X238230Y-327734D01*
X238034Y-327760D01*
X237282Y-327100D01*
Y-308118D01*
X238370D01*
D01*
D02*
G37*
G36*
X177554Y-340321D02*
X177518Y-340368D01*
X177409Y-340631D01*
X180138D01*
Y-343130D01*
X177409D01*
X177518Y-343393D01*
X177958Y-343968D01*
X177828Y-344959D01*
X176922Y-345654D01*
X176539Y-346154D01*
X175544Y-346258D01*
X174494Y-345361D01*
X173017Y-344456D01*
X171418Y-343793D01*
X169734Y-343389D01*
X168008Y-343253D01*
X167643Y-343282D01*
X167224Y-342374D01*
X170175Y-339424D01*
X177111D01*
X177554Y-340321D01*
D02*
G37*
G36*
X270345Y-333222D02*
X270860Y-333008D01*
X271591Y-332447D01*
X272152Y-331716D01*
X272505Y-330865D01*
X272548Y-330537D01*
X273414Y-330037D01*
X273771Y-330185D01*
X274458Y-330276D01*
Y-330295D01*
X274602D01*
X274881Y-330331D01*
X276458D01*
Y-331995D01*
X279565D01*
X279947Y-332919D01*
X274862Y-338004D01*
X274261Y-338787D01*
X273883Y-339700D01*
X273754Y-340679D01*
Y-353530D01*
X257225Y-370059D01*
X256422Y-369463D01*
X256756Y-368838D01*
X257099Y-367707D01*
X257215Y-366531D01*
X257099Y-365355D01*
X256756Y-364224D01*
X256199Y-363181D01*
X255449Y-362268D01*
X254536Y-361518D01*
X253493Y-360961D01*
X252362Y-360618D01*
X251186Y-360502D01*
X247186D01*
X246010Y-360618D01*
X245109Y-360891D01*
X244305Y-360296D01*
Y-350679D01*
X244177Y-349700D01*
X243799Y-348788D01*
X243198Y-348005D01*
X237282Y-342089D01*
Y-339462D01*
X238034Y-338803D01*
X238230Y-338829D01*
X239666Y-338640D01*
X241004Y-338086D01*
X242153Y-337204D01*
X243035Y-336055D01*
X243462Y-335023D01*
X244232D01*
Y-335133D01*
X264012D01*
Y-333337D01*
X265326Y-332024D01*
X266323Y-332089D01*
X266599Y-332447D01*
X267330Y-333008D01*
X267845Y-333222D01*
Y-329951D01*
X270345D01*
Y-333222D01*
D02*
G37*
G36*
X20130Y-5480D02*
Y-6382D01*
X20130D01*
Y-16319D01*
X22130D01*
Y-16400D01*
X27870D01*
Y-16385D01*
X32925D01*
Y-16925D01*
Y-23224D01*
X33885D01*
X34006Y-23517D01*
X34647Y-24353D01*
X40976Y-30682D01*
X40593Y-31606D01*
X36087D01*
X36081Y-31603D01*
X35037Y-31466D01*
X33993Y-31603D01*
X33986Y-31606D01*
X31319D01*
X30275Y-31743D01*
X29302Y-32146D01*
X28939Y-32425D01*
X28466Y-32787D01*
X28466Y-32787D01*
X21777Y-39476D01*
X21136Y-40312D01*
X20733Y-41285D01*
X20596Y-42329D01*
X20596Y-42329D01*
Y-59715D01*
X20596Y-59715D01*
X20733Y-60759D01*
X21136Y-61732D01*
X21777Y-62568D01*
X25758Y-66548D01*
Y-70665D01*
X36528D01*
X37084Y-71496D01*
X36642Y-72564D01*
X36452Y-74000D01*
X36642Y-75436D01*
X37196Y-76774D01*
X38077Y-77923D01*
X39226Y-78804D01*
X40564Y-79358D01*
X42000Y-79548D01*
X43436Y-79358D01*
X44774Y-78804D01*
X45777Y-78035D01*
X51453D01*
X51836Y-78958D01*
X24647Y-106147D01*
X24006Y-106983D01*
X23603Y-107956D01*
X23465Y-109000D01*
X23465Y-109000D01*
Y-111630D01*
X21900D01*
Y-114500D01*
X19400D01*
Y-111630D01*
X19319D01*
Y-109630D01*
X9382D01*
Y-119370D01*
X10776D01*
Y-128075D01*
X26224D01*
Y-125481D01*
X29777Y-121929D01*
X30777D01*
X31290Y-122442D01*
X33389Y-120343D01*
X35157Y-122111D01*
X33058Y-124210D01*
X33730Y-124882D01*
X31770Y-126842D01*
X33184Y-128257D01*
X33127Y-128314D01*
X35157Y-130343D01*
X34273Y-131227D01*
X35157Y-132111D01*
X33058Y-134210D01*
X33730Y-134882D01*
X31770Y-136843D01*
X33184Y-138257D01*
X33127Y-138314D01*
X35157Y-140343D01*
X34273Y-141227D01*
X35157Y-142111D01*
X33058Y-144210D01*
X33730Y-144883D01*
X31770Y-146843D01*
X33184Y-148257D01*
X33127Y-148314D01*
X35157Y-150343D01*
X34273Y-151227D01*
X35157Y-152111D01*
X33058Y-154210D01*
X33388Y-154540D01*
X29813Y-158115D01*
X28889Y-157733D01*
Y-156428D01*
Y-144428D01*
X16889D01*
Y-146428D01*
X14139D01*
Y-150428D01*
X12889D01*
Y-151678D01*
X8889D01*
Y-154428D01*
X6889D01*
Y-166428D01*
Y-176428D01*
Y-186428D01*
Y-196428D01*
Y-206428D01*
Y-216428D01*
Y-226428D01*
Y-236428D01*
X28889D01*
Y-234210D01*
X34072D01*
X35051Y-234082D01*
X35963Y-233704D01*
X36746Y-233102D01*
X36747Y-233102D01*
X36746Y-233102D01*
X59675Y-210174D01*
X60276Y-209391D01*
X60654Y-208479D01*
X60654Y-208479D01*
X60654Y-208479D01*
X60782Y-207500D01*
Y-196860D01*
X61586Y-196265D01*
X63255Y-196771D01*
X65000Y-196943D01*
X66724Y-196773D01*
X67466Y-197445D01*
Y-241329D01*
X59329Y-249465D01*
X25224D01*
Y-248925D01*
X9776D01*
Y-257130D01*
X8382D01*
Y-266870D01*
X18319D01*
Y-264870D01*
X18400D01*
Y-262000D01*
Y-259130D01*
X18385D01*
Y-258075D01*
X25224D01*
Y-257535D01*
X61000D01*
X61000Y-257535D01*
X62044Y-257397D01*
X63017Y-256994D01*
X63853Y-256353D01*
X73187Y-247019D01*
X74157Y-247262D01*
X74200Y-247403D01*
X74780Y-248488D01*
X75561Y-249439D01*
X76512Y-250220D01*
X77597Y-250800D01*
X78775Y-251158D01*
X80000Y-251278D01*
X81225Y-251158D01*
X82403Y-250800D01*
X83488Y-250220D01*
X84439Y-249439D01*
X84500Y-249366D01*
X85500D01*
X85561Y-249439D01*
X86512Y-250220D01*
X87597Y-250800D01*
X88775Y-251158D01*
X90000Y-251278D01*
X91225Y-251158D01*
X92403Y-250800D01*
X93488Y-250220D01*
X94439Y-249439D01*
X95220Y-248488D01*
X95800Y-247403D01*
X96158Y-246225D01*
X96278Y-245000D01*
X96158Y-243775D01*
X95800Y-242597D01*
X95220Y-241512D01*
X94439Y-240561D01*
X94366Y-240500D01*
Y-239500D01*
X94439Y-239439D01*
X95220Y-238488D01*
X95800Y-237403D01*
X96158Y-236225D01*
X96278Y-235000D01*
X96158Y-233775D01*
X95800Y-232597D01*
X95538Y-232106D01*
X96052Y-231248D01*
X96248D01*
Y-218752D01*
X96052D01*
X95538Y-217894D01*
X95800Y-217403D01*
X96158Y-216225D01*
X96223Y-215564D01*
X97164Y-215227D01*
X106713Y-224776D01*
Y-249224D01*
X62219Y-293719D01*
X62110Y-293860D01*
X61969Y-293969D01*
X50333Y-305604D01*
X49923Y-305577D01*
X48774Y-304696D01*
X47436Y-304142D01*
X46000Y-303953D01*
X44564Y-304142D01*
X43226Y-304696D01*
X42077Y-305577D01*
X41196Y-306726D01*
X40642Y-308064D01*
X40453Y-309500D01*
X40642Y-310936D01*
X41196Y-312274D01*
X42077Y-313423D01*
X42104Y-313833D01*
X40224Y-315713D01*
X27500D01*
X26390Y-315859D01*
X25384Y-316276D01*
X25319Y-316239D01*
X24426Y-315074D01*
X24358Y-314564D01*
X23804Y-313226D01*
X22923Y-312077D01*
X21774Y-311196D01*
X20436Y-310642D01*
X19000Y-310453D01*
X17564Y-310642D01*
X16226Y-311196D01*
X15077Y-312077D01*
X14196Y-313226D01*
X13642Y-314564D01*
X13453Y-316000D01*
X13642Y-317436D01*
X14196Y-318774D01*
X15077Y-319923D01*
X16226Y-320804D01*
X17564Y-321358D01*
X18666Y-321503D01*
X18987Y-322450D01*
X8992Y-332446D01*
X8311Y-333333D01*
X7883Y-334367D01*
X7737Y-335477D01*
Y-390065D01*
X7737Y-390065D01*
X7737D01*
X7883Y-391174D01*
X8311Y-392208D01*
X8992Y-393096D01*
X17776Y-401879D01*
Y-408707D01*
X27713D01*
Y-408707D01*
X27793Y-408637D01*
X28650Y-408750D01*
X29947Y-408579D01*
X31155Y-408078D01*
X31602Y-407735D01*
X32050Y-408078D01*
X33258Y-408579D01*
X34555Y-408750D01*
X35852Y-408579D01*
X37061Y-408078D01*
X37085Y-408060D01*
X38058Y-408291D01*
X38042Y-408260D01*
X38226Y-408641D01*
X38226Y-408641D01*
X38226D01*
X37425Y-409686D01*
X36921Y-410902D01*
X36749Y-412208D01*
Y-416428D01*
X35752Y-416494D01*
X35735Y-416365D01*
X35297Y-415308D01*
X34600Y-414400D01*
X33692Y-413703D01*
X32750Y-413313D01*
Y-417500D01*
X31500D01*
Y-418750D01*
X27313D01*
X27703Y-419692D01*
X28400Y-420600D01*
X28713Y-420840D01*
X28632Y-421837D01*
X27957Y-422198D01*
X26991Y-422991D01*
X26198Y-423957D01*
X25608Y-425060D01*
X25245Y-426256D01*
X25123Y-427500D01*
X25245Y-428744D01*
X25608Y-429940D01*
X25798Y-430296D01*
X25284Y-431153D01*
X25154D01*
Y-442834D01*
X5414Y-442853D01*
X4707Y-442146D01*
X4961Y-9426D01*
X5070Y-5341D01*
X20130Y-5480D01*
D02*
G37*
G36*
X323969Y-194531D02*
X324857Y-195212D01*
X325890Y-195641D01*
X327000Y-195787D01*
X333130D01*
Y-195819D01*
X335130D01*
Y-195900D01*
X340870D01*
Y-195819D01*
X342870D01*
D01*
X342870D01*
X343130Y-196079D01*
Y-202118D01*
X352870D01*
Y-201535D01*
X356228D01*
X356561Y-201939D01*
X357512Y-202720D01*
X358313Y-203148D01*
X358383Y-204007D01*
X358325Y-204198D01*
X357970Y-204470D01*
X357289Y-205358D01*
X356920Y-206250D01*
X361000D01*
Y-208750D01*
X356920D01*
X357289Y-209642D01*
X357970Y-210530D01*
X358858Y-211211D01*
X359891Y-211639D01*
X361000Y-211785D01*
X361461Y-211724D01*
X362213Y-212383D01*
Y-219224D01*
X360724Y-220713D01*
X312776D01*
X306287Y-214224D01*
Y-196545D01*
X307144Y-196031D01*
X307578Y-196262D01*
X309255Y-196771D01*
X311000Y-196943D01*
X312745Y-196771D01*
X314422Y-196262D01*
X315968Y-195436D01*
X317324Y-194324D01*
X318436Y-192968D01*
X319262Y-191422D01*
X319352Y-191127D01*
X320322Y-190884D01*
X323969Y-194531D01*
D02*
G37*
G36*
X365500Y-229135D02*
Y-233130D01*
X357181D01*
Y-235130D01*
X357100D01*
Y-238000D01*
X355850D01*
Y-239250D01*
X352882D01*
Y-240870D01*
X354262D01*
X354457Y-241851D01*
X354235Y-241943D01*
X353504Y-242504D01*
X352943Y-243235D01*
X352729Y-243750D01*
X356000D01*
Y-246250D01*
X352729D01*
X352943Y-246765D01*
X353504Y-247496D01*
X352791Y-248425D01*
X350776D01*
Y-248713D01*
X328776D01*
X310198Y-230136D01*
X310641Y-229239D01*
X311000Y-229287D01*
X362500D01*
X363610Y-229141D01*
X364643Y-228712D01*
X365500Y-229135D01*
D02*
G37*
G36*
X265561Y-119439D02*
X265634Y-119500D01*
Y-120500D01*
X265561Y-120561D01*
X264780Y-121512D01*
X264200Y-122597D01*
X263842Y-123775D01*
X263722Y-125000D01*
X263842Y-126225D01*
X264200Y-127403D01*
X264780Y-128488D01*
X265561Y-129439D01*
X265634Y-129500D01*
Y-130500D01*
X265561Y-130561D01*
X264780Y-131512D01*
X264200Y-132597D01*
X263842Y-133775D01*
X263722Y-135000D01*
X263842Y-136225D01*
X264200Y-137403D01*
X264780Y-138488D01*
X265561Y-139439D01*
X265634Y-139500D01*
Y-140500D01*
X265561Y-140561D01*
X264780Y-141512D01*
X264200Y-142597D01*
X263842Y-143775D01*
X263722Y-145000D01*
X263842Y-146225D01*
X264200Y-147403D01*
X264780Y-148488D01*
X265561Y-149439D01*
X265634Y-149500D01*
Y-150500D01*
X265561Y-150561D01*
X264780Y-151512D01*
X264200Y-152597D01*
X263842Y-153775D01*
X263722Y-155000D01*
X263842Y-156225D01*
X264200Y-157403D01*
X264780Y-158488D01*
X265561Y-159439D01*
X265634Y-159500D01*
Y-160500D01*
X265561Y-160561D01*
X264780Y-161512D01*
X264200Y-162597D01*
X263842Y-163775D01*
X263722Y-165000D01*
X263842Y-166225D01*
X264200Y-167403D01*
X264780Y-168488D01*
X265561Y-169439D01*
X265634Y-169500D01*
Y-170500D01*
X265561Y-170561D01*
X264780Y-171512D01*
X264200Y-172597D01*
X263842Y-173775D01*
X263722Y-175000D01*
X263842Y-176225D01*
X264200Y-177403D01*
X264780Y-178488D01*
X265561Y-179439D01*
X266512Y-180220D01*
X267313Y-180648D01*
X267383Y-181507D01*
X267325Y-181698D01*
X266970Y-181970D01*
X266289Y-182858D01*
X265920Y-183750D01*
X270000D01*
Y-186250D01*
X265920D01*
X266289Y-187142D01*
X266970Y-188030D01*
X267325Y-188302D01*
X267383Y-188493D01*
X267313Y-189352D01*
X266512Y-189780D01*
X265561Y-190561D01*
X265025Y-191213D01*
X255000D01*
X253890Y-191359D01*
X252857Y-191788D01*
X251969Y-192469D01*
X227969Y-216469D01*
X227288Y-217357D01*
X226859Y-218390D01*
X226713Y-219500D01*
Y-238224D01*
X223224Y-241713D01*
X197500D01*
X196390Y-241859D01*
X195357Y-242288D01*
X194469Y-242969D01*
X160630Y-276807D01*
X146465D01*
Y-275693D01*
X136862D01*
Y-286496D01*
X137377D01*
Y-290251D01*
X134510Y-293118D01*
X133370D01*
Y-291882D01*
X124861D01*
X124534Y-291631D01*
X124146Y-291050D01*
X124271Y-290750D01*
X122250D01*
Y-292771D01*
X122765Y-292557D01*
X123630Y-293684D01*
Y-301819D01*
X125630D01*
Y-301900D01*
X131370D01*
Y-301819D01*
X133370D01*
Y-301187D01*
X135473D01*
X135516Y-301205D01*
X136626Y-301351D01*
X137735Y-301205D01*
X137778Y-301187D01*
X138630D01*
Y-301819D01*
Y-308118D01*
X139465D01*
Y-309329D01*
X135647Y-313147D01*
X135006Y-313983D01*
X134603Y-314956D01*
X134466Y-316000D01*
X134466Y-316000D01*
Y-327121D01*
X134466Y-327121D01*
X134603Y-328165D01*
X135006Y-329138D01*
X135647Y-329974D01*
X138468Y-332794D01*
Y-333935D01*
X140998D01*
X141323Y-333978D01*
X141647Y-333935D01*
X141942D01*
X142056Y-334085D01*
X142665Y-334693D01*
X142795Y-334863D01*
X143526Y-335424D01*
X144378Y-335776D01*
X145291Y-335897D01*
X149095D01*
X150008Y-335776D01*
X150860Y-335424D01*
X151591Y-334863D01*
X159682Y-326771D01*
X161590D01*
X161980Y-327715D01*
X162777Y-328753D01*
X162833Y-329609D01*
X146326Y-346116D01*
X145724Y-346900D01*
X145346Y-347812D01*
X145218Y-348791D01*
Y-396764D01*
X145218Y-396764D01*
X145218D01*
X145346Y-397743D01*
X145724Y-398655D01*
X146326Y-399438D01*
X154437Y-407550D01*
X155221Y-408151D01*
X155866Y-408418D01*
X156133Y-408529D01*
X157112Y-408658D01*
X175325D01*
X176304Y-408529D01*
X176669Y-408378D01*
X177593Y-408760D01*
X178023Y-409797D01*
X178824Y-410842D01*
X179869Y-411643D01*
X181085Y-412147D01*
X182390Y-412319D01*
X183695Y-412147D01*
X184912Y-411643D01*
X185956Y-410842D01*
X186758Y-409797D01*
X187261Y-408581D01*
X187279Y-408449D01*
X187773Y-407956D01*
X187859Y-407967D01*
X188418Y-407893D01*
X189462Y-408937D01*
X191212Y-407186D01*
X191420Y-407200D01*
X192047Y-407681D01*
X192310Y-407790D01*
Y-406089D01*
X193081Y-405318D01*
X193338Y-405060D01*
X194810D01*
Y-407790D01*
X195073Y-407681D01*
X195700Y-407200D01*
X196181Y-406573D01*
X196481Y-405849D01*
X196497Y-405845D01*
X197829Y-406021D01*
X198230Y-406422D01*
X198319Y-407095D01*
X198822Y-408312D01*
X199624Y-409356D01*
X200668Y-410157D01*
X201885Y-410661D01*
X203190Y-410833D01*
X204495Y-410661D01*
X205712Y-410157D01*
X206756Y-409356D01*
X207557Y-408312D01*
X208061Y-407095D01*
X208233Y-405790D01*
X208475Y-405401D01*
Y-405401D01*
X208475Y-405401D01*
X210201Y-405265D01*
X211885Y-404861D01*
X213485Y-404199D01*
X214961Y-403294D01*
X216277Y-402169D01*
X217402Y-400853D01*
X218307Y-399377D01*
X218969Y-397777D01*
X219373Y-396093D01*
X219509Y-394367D01*
X219373Y-392641D01*
X218969Y-390957D01*
X218307Y-389358D01*
X217402Y-387881D01*
X216616Y-386962D01*
X217035Y-386053D01*
X224796D01*
X225775Y-385925D01*
X226687Y-385547D01*
X227471Y-384946D01*
X227471Y-384946D01*
X227471Y-384946D01*
X232250Y-380166D01*
X232851Y-379383D01*
X233229Y-378471D01*
X233358Y-377492D01*
X233358Y-377492D01*
X233358Y-377492D01*
Y-377492D01*
Y-353208D01*
X233229Y-352229D01*
X232851Y-351317D01*
X232250Y-350534D01*
X217675Y-335958D01*
X218057Y-335034D01*
X221000D01*
X221112Y-335020D01*
X222955D01*
X223614Y-335772D01*
X223452Y-337000D01*
X223642Y-338436D01*
X224196Y-339774D01*
X225077Y-340923D01*
X226226Y-341804D01*
X227564Y-342358D01*
X229000Y-342547D01*
X229718Y-343177D01*
Y-343656D01*
X229847Y-344635D01*
X230224Y-345547D01*
X230825Y-346331D01*
X236741Y-352246D01*
Y-367818D01*
X236741Y-367818D01*
X236741D01*
X236870Y-368797D01*
X237247Y-369709D01*
X237848Y-370493D01*
X241211Y-373855D01*
X241157Y-374405D01*
X241273Y-375581D01*
X241616Y-376712D01*
X242173Y-377754D01*
X242655Y-378342D01*
X242173Y-378929D01*
X241616Y-379972D01*
X241273Y-381103D01*
X241157Y-382279D01*
X241273Y-383455D01*
X241616Y-384586D01*
X242173Y-385629D01*
X242655Y-386216D01*
X242173Y-386803D01*
X241616Y-387846D01*
X241273Y-388977D01*
X241157Y-390153D01*
X241273Y-391329D01*
X241616Y-392460D01*
X242173Y-393502D01*
X242923Y-394416D01*
X243837Y-395166D01*
X243947Y-395677D01*
X243692Y-396010D01*
X243374Y-396777D01*
X254998D01*
X254680Y-396010D01*
X254425Y-395677D01*
X254536Y-395166D01*
X255449Y-394416D01*
X256199Y-393502D01*
X256756Y-392460D01*
X257099Y-391329D01*
X257215Y-390153D01*
X257099Y-388977D01*
X256756Y-387846D01*
X256199Y-386803D01*
X255717Y-386216D01*
X256199Y-385629D01*
X256756Y-384586D01*
X257099Y-383455D01*
X257215Y-382279D01*
X257099Y-381103D01*
X257048Y-380934D01*
X280211Y-357772D01*
X280812Y-356988D01*
X281190Y-356076D01*
X281190Y-356076D01*
X281190Y-356076D01*
X281319Y-355097D01*
Y-342245D01*
X289569Y-333995D01*
X293358D01*
Y-326595D01*
Y-318095D01*
X293084D01*
Y-316599D01*
X292930Y-315424D01*
X292476Y-314330D01*
X291755Y-313390D01*
X291236Y-312871D01*
X291179Y-312439D01*
X290625Y-311101D01*
X289744Y-309952D01*
X288595Y-309071D01*
X287257Y-308516D01*
X285821Y-308327D01*
X284385Y-308516D01*
X283047Y-309071D01*
X281898Y-309952D01*
X281017Y-311101D01*
X280463Y-312439D01*
X280274Y-313875D01*
X280463Y-315311D01*
X281017Y-316649D01*
X281438Y-317198D01*
X280996Y-318095D01*
X277125D01*
Y-288869D01*
X276979Y-287759D01*
X276551Y-286725D01*
X275870Y-285838D01*
X274894Y-284862D01*
X275231Y-283920D01*
X276745Y-283771D01*
X278422Y-283262D01*
X279969Y-282436D01*
X281324Y-281324D01*
X282436Y-279969D01*
X283262Y-278422D01*
X283771Y-276745D01*
X283943Y-275000D01*
X283771Y-273255D01*
X283262Y-271578D01*
X282436Y-270031D01*
X281324Y-268676D01*
X279969Y-267564D01*
X278422Y-266738D01*
X276745Y-266229D01*
X275000Y-266057D01*
X273255Y-266229D01*
X271578Y-266738D01*
X270031Y-267564D01*
X268676Y-268676D01*
X267564Y-270031D01*
X266738Y-271578D01*
X266229Y-273255D01*
X266080Y-274769D01*
X265604Y-274939D01*
X264787Y-274363D01*
Y-245591D01*
X264787Y-245591D01*
Y-244409D01*
X264787Y-244409D01*
Y-236485D01*
X265599Y-235902D01*
X265845Y-235986D01*
X265861Y-236109D01*
X266289Y-237142D01*
X266970Y-238030D01*
X267858Y-238711D01*
X268750Y-239080D01*
Y-235000D01*
X270000D01*
Y-233750D01*
X274080D01*
X273711Y-232858D01*
X273030Y-231970D01*
X272675Y-231698D01*
X272617Y-231507D01*
X272628Y-231368D01*
X273518Y-230911D01*
X273752Y-231052D01*
Y-231248D01*
X276394D01*
X276836Y-232145D01*
X276289Y-232858D01*
X275920Y-233750D01*
X284080D01*
X283711Y-232858D01*
X283164Y-232145D01*
X283606Y-231248D01*
X286248D01*
Y-218752D01*
X286052D01*
X285538Y-217894D01*
X285800Y-217403D01*
X286158Y-216225D01*
X286278Y-215000D01*
X286158Y-213775D01*
X285800Y-212597D01*
X285220Y-211512D01*
X284439Y-210561D01*
X284366Y-210500D01*
Y-209500D01*
X284439Y-209439D01*
X285220Y-208488D01*
X285800Y-207403D01*
X286158Y-206225D01*
X286278Y-205000D01*
X286158Y-203775D01*
X285800Y-202597D01*
X285220Y-201512D01*
X284439Y-200561D01*
X284366Y-200500D01*
Y-199500D01*
X284439Y-199439D01*
X285220Y-198488D01*
X285800Y-197403D01*
X286158Y-196225D01*
X286278Y-195000D01*
X286158Y-193775D01*
X285800Y-192597D01*
X285220Y-191512D01*
X284439Y-190561D01*
X284366Y-190500D01*
Y-189500D01*
X284439Y-189439D01*
X285220Y-188488D01*
X285800Y-187403D01*
X286158Y-186225D01*
X286278Y-185000D01*
X286158Y-183775D01*
X285800Y-182597D01*
X285220Y-181512D01*
X284439Y-180561D01*
X284366Y-180500D01*
Y-179500D01*
X284439Y-179439D01*
X284565Y-179287D01*
X286224D01*
X289213Y-182276D01*
Y-219500D01*
X289213Y-219500D01*
X289213D01*
X289359Y-220609D01*
X289788Y-221643D01*
X290469Y-222531D01*
X323969Y-256031D01*
X324354Y-256327D01*
X324857Y-256712D01*
X325890Y-257141D01*
X327000Y-257287D01*
X350776D01*
Y-257575D01*
X365500D01*
Y-442500D01*
X364500Y-443500D01*
X363500Y-442500D01*
X344805Y-442518D01*
X344610Y-441538D01*
X345192Y-441297D01*
X346100Y-440600D01*
X346797Y-439692D01*
X347187Y-438750D01*
X338813D01*
X339203Y-439692D01*
X339900Y-440600D01*
X340808Y-441297D01*
X341398Y-441541D01*
X341204Y-442522D01*
X312970Y-442550D01*
X312587Y-441626D01*
X335730Y-418484D01*
X336653Y-418866D01*
Y-423846D01*
X336784D01*
X337298Y-424704D01*
X337108Y-425060D01*
X336745Y-426256D01*
X336623Y-427500D01*
X336745Y-428744D01*
X337108Y-429940D01*
X337698Y-431043D01*
X338491Y-432009D01*
X339457Y-432802D01*
X340132Y-433163D01*
X340213Y-434160D01*
X339900Y-434400D01*
X339203Y-435308D01*
X338813Y-436250D01*
X347187D01*
X346797Y-435308D01*
X346100Y-434400D01*
X345787Y-434160D01*
X345868Y-433163D01*
X346543Y-432802D01*
X347509Y-432009D01*
X348302Y-431043D01*
X348892Y-429940D01*
X349255Y-428744D01*
X349377Y-427500D01*
X349255Y-426256D01*
X348892Y-425060D01*
X348702Y-424704D01*
X349216Y-423846D01*
X349346D01*
Y-411154D01*
X338910D01*
Y-395732D01*
X339041Y-394737D01*
X338852Y-393301D01*
X338298Y-391963D01*
X337417Y-390814D01*
X336268Y-389933D01*
X334930Y-389378D01*
X333494Y-389189D01*
X333286Y-389217D01*
X332535Y-388557D01*
Y-336277D01*
X333304Y-335274D01*
X333858Y-333936D01*
X334048Y-332500D01*
X333858Y-331064D01*
X333304Y-329726D01*
X332423Y-328577D01*
X331274Y-327696D01*
X329936Y-327142D01*
X328500Y-326953D01*
X328286Y-326981D01*
X327535Y-326321D01*
Y-296405D01*
X327804Y-296198D01*
X328686Y-295049D01*
X329240Y-293711D01*
X329429Y-292275D01*
X329240Y-290839D01*
X328686Y-289501D01*
X327804Y-288352D01*
X326656Y-287471D01*
X325318Y-286917D01*
X323882Y-286728D01*
X322446Y-286917D01*
X321108Y-287471D01*
X319959Y-288352D01*
X319077Y-289501D01*
X318523Y-290839D01*
X318334Y-292275D01*
X318523Y-293711D01*
X319077Y-295049D01*
X319465Y-295554D01*
Y-397829D01*
X305829Y-411466D01*
X257186D01*
Y-399901D01*
X255638D01*
X255221Y-399277D01*
X243152D01*
X242735Y-399901D01*
X241186D01*
Y-411466D01*
X228500D01*
X228500Y-411466D01*
X227456Y-411603D01*
X226483Y-412006D01*
X225647Y-412647D01*
X220730Y-417565D01*
X147038D01*
Y-429565D01*
Y-437457D01*
X120147D01*
X119764Y-436533D01*
X140625Y-415672D01*
X141266Y-414837D01*
X141346Y-414645D01*
X141369Y-414615D01*
X141797Y-413581D01*
X141943Y-412472D01*
Y-373668D01*
X141943Y-373668D01*
X141943Y-373668D01*
Y-373668D01*
X141943D01*
X141943Y-373668D01*
X141797Y-372559D01*
X141369Y-371525D01*
X140688Y-370637D01*
X103424Y-333374D01*
X102536Y-332693D01*
X101502Y-332264D01*
X100393Y-332118D01*
X95269D01*
X94713Y-331287D01*
X94858Y-330936D01*
X95047Y-329500D01*
X94858Y-328064D01*
X94304Y-326726D01*
X93423Y-325577D01*
X92274Y-324696D01*
X90936Y-324142D01*
X89500Y-323953D01*
X88064Y-324142D01*
X86726Y-324696D01*
X85577Y-325577D01*
X85473Y-325713D01*
X83500D01*
X82390Y-325859D01*
X81357Y-326288D01*
X80469Y-326969D01*
X66957Y-340481D01*
X66276Y-341368D01*
X66240Y-341455D01*
X65380Y-341811D01*
X64083Y-341640D01*
X62786Y-341811D01*
X61577Y-342312D01*
X61130Y-342655D01*
X60683Y-342312D01*
X59474Y-341811D01*
X58177Y-341640D01*
X56880Y-341811D01*
X55672Y-342312D01*
X55225Y-342655D01*
X54777Y-342312D01*
X53569Y-341811D01*
X52272Y-341640D01*
X50975Y-341811D01*
X49766Y-342312D01*
X49319Y-342655D01*
X48872Y-342312D01*
X47663Y-341811D01*
X46366Y-341640D01*
X45069Y-341811D01*
X43861Y-342312D01*
X43413Y-342655D01*
X42966Y-342312D01*
X41758Y-341811D01*
X40461Y-341640D01*
X39164Y-341811D01*
X37955Y-342312D01*
X37508Y-342655D01*
X37061Y-342312D01*
X35852Y-341811D01*
X34555Y-341640D01*
X33258Y-341811D01*
X32050Y-342312D01*
X31602Y-342655D01*
X31155Y-342312D01*
X29947Y-341811D01*
X28650Y-341640D01*
X27353Y-341811D01*
X26144Y-342312D01*
X25697Y-342655D01*
X25250Y-342312D01*
X24041Y-341811D01*
X22744Y-341640D01*
X22087Y-341727D01*
X21335Y-341068D01*
Y-339227D01*
X27776Y-332787D01*
X61000D01*
X62110Y-332641D01*
X63143Y-332212D01*
X64031Y-331531D01*
X98654Y-296908D01*
X99551Y-297350D01*
X99466Y-298000D01*
X99466Y-298000D01*
Y-298780D01*
X99077Y-299077D01*
X98196Y-300226D01*
X97642Y-301564D01*
X97452Y-303000D01*
X97642Y-304436D01*
X98196Y-305774D01*
X99077Y-306923D01*
X100226Y-307804D01*
X101564Y-308358D01*
X103000Y-308547D01*
X103299Y-308508D01*
X103500Y-308535D01*
X104544Y-308397D01*
X105517Y-307994D01*
X105754Y-307812D01*
X105774Y-307804D01*
X106923Y-306923D01*
X107804Y-305774D01*
X108358Y-304436D01*
X108547Y-303000D01*
X108358Y-301564D01*
X107804Y-300226D01*
X107535Y-299875D01*
Y-299671D01*
X116720Y-290486D01*
X117701Y-290681D01*
X117943Y-291265D01*
X118504Y-291996D01*
X119235Y-292557D01*
X119750Y-292771D01*
Y-289500D01*
X121000D01*
Y-288250D01*
X124271D01*
X124057Y-287735D01*
X123496Y-287004D01*
X122765Y-286443D01*
X122181Y-286201D01*
X121986Y-285220D01*
X125045Y-282161D01*
X125968Y-282544D01*
Y-284496D01*
X127520D01*
Y-281094D01*
X128770D01*
Y-279844D01*
X131571D01*
Y-277693D01*
X130820D01*
X130437Y-276769D01*
X141171Y-266035D01*
X161500D01*
X161500Y-266035D01*
X162544Y-265897D01*
X163517Y-265494D01*
X164353Y-264853D01*
X181353Y-247853D01*
X181994Y-247017D01*
X182397Y-246044D01*
X182535Y-245000D01*
Y-186500D01*
X182535Y-186500D01*
X182535Y-186500D01*
Y-186500D01*
X182535D01*
X182535Y-186500D01*
X182397Y-185456D01*
X181994Y-184483D01*
X181716Y-184120D01*
X181353Y-183647D01*
X181353Y-183647D01*
X168664Y-170958D01*
X169047Y-170035D01*
X207000D01*
X207000Y-170035D01*
X208044Y-169897D01*
X209017Y-169494D01*
X209853Y-168853D01*
X259671Y-119035D01*
X265228D01*
X265561Y-119439D01*
D02*
G37*
G36*
X45253Y-42853D02*
X46089Y-43494D01*
X47062Y-43897D01*
X48106Y-44034D01*
X48106Y-44034D01*
X73072D01*
X73744Y-44776D01*
X73722Y-45000D01*
X73842Y-46225D01*
X74200Y-47403D01*
X74780Y-48488D01*
X75561Y-49439D01*
X75634Y-49500D01*
Y-50500D01*
X75561Y-50561D01*
X74780Y-51512D01*
X74200Y-52597D01*
X73842Y-53775D01*
X73722Y-55000D01*
X73744Y-55225D01*
X73072Y-55966D01*
X70500D01*
X70500Y-55966D01*
X69456Y-56103D01*
X68483Y-56506D01*
X67647Y-57147D01*
X61172Y-63622D01*
X60248Y-63240D01*
Y-56752D01*
X60052D01*
X59538Y-55894D01*
X59800Y-55403D01*
X60158Y-54225D01*
X60278Y-53000D01*
X60158Y-51775D01*
X59800Y-50597D01*
X59220Y-49512D01*
X58439Y-48561D01*
X57488Y-47780D01*
X56403Y-47200D01*
X55225Y-46842D01*
X54000Y-46722D01*
X52775Y-46842D01*
X51597Y-47200D01*
X50512Y-47780D01*
X50296Y-47957D01*
X45850D01*
X45447Y-47904D01*
X36593D01*
X35929Y-47991D01*
X35429Y-47125D01*
X35901Y-46510D01*
X36291Y-45568D01*
X32104D01*
Y-43069D01*
X36291D01*
X35901Y-42127D01*
X35204Y-41219D01*
X34426Y-40622D01*
X34747Y-39675D01*
X42075D01*
X45253Y-42853D01*
D02*
G37*
G36*
X336653Y-50846D02*
X336784D01*
X337298Y-51704D01*
X337108Y-52060D01*
X336745Y-53256D01*
X336623Y-54500D01*
X336745Y-55744D01*
X337108Y-56940D01*
X337698Y-58043D01*
X338491Y-59009D01*
X339031Y-59453D01*
X339072Y-59503D01*
X340045Y-60302D01*
X340029Y-61301D01*
X339900Y-61400D01*
X339203Y-62308D01*
X338813Y-63250D01*
X343000D01*
Y-65750D01*
X338813D01*
X339203Y-66692D01*
X339900Y-67600D01*
X340808Y-68297D01*
X341775Y-68697D01*
X341970Y-69678D01*
X340804Y-70843D01*
X340516Y-70723D01*
Y-70723D01*
X340516Y-70723D01*
X336898D01*
X336864Y-70705D01*
X335591Y-70319D01*
X334268Y-70189D01*
X319616D01*
Y-66104D01*
X319264D01*
X318882Y-65180D01*
X325531Y-58531D01*
X325827Y-58146D01*
X326212Y-57643D01*
X326641Y-56609D01*
X326787Y-55500D01*
Y-46787D01*
X336653D01*
Y-50846D01*
D02*
G37*
G36*
X155412Y-384377D02*
X155675Y-384268D01*
X156540Y-384500D01*
X156734Y-384968D01*
X157536Y-386012D01*
X158523Y-386770D01*
X158627Y-387764D01*
X158306Y-388140D01*
X157402Y-389616D01*
X156739Y-391216D01*
X156335Y-392899D01*
X156199Y-394625D01*
X156335Y-396352D01*
X156662Y-397716D01*
X155790Y-398204D01*
X152782Y-395197D01*
Y-385250D01*
X152912Y-385136D01*
Y-381647D01*
X155412D01*
Y-384377D01*
D02*
G37*
G36*
X225793Y-354775D02*
Y-368313D01*
X224962Y-368869D01*
X224715Y-368767D01*
X223280Y-368578D01*
X221844Y-368767D01*
X220506Y-369321D01*
X220061Y-369662D01*
X219004Y-368606D01*
X218845Y-367398D01*
X218833Y-367367D01*
X218840Y-367358D01*
Y-363633D01*
Y-360904D01*
X218577Y-361013D01*
X218258Y-361257D01*
X217515Y-360588D01*
X218307Y-359297D01*
X218969Y-357697D01*
X219373Y-356013D01*
X219509Y-354287D01*
X219373Y-352561D01*
X218969Y-350878D01*
X218307Y-349278D01*
X217402Y-347802D01*
X217373Y-347768D01*
X218108Y-347090D01*
X225793Y-354775D01*
D02*
G37*
G36*
X130000Y-6500D02*
X130500Y-32500D01*
X155500Y-33000D01*
X194000Y-32500D01*
X206500Y-33000D01*
X210500D01*
X210013Y-6714D01*
X210714Y-6000D01*
X305630D01*
Y-8592D01*
X304683Y-8913D01*
X304368Y-8503D01*
X303637Y-7942D01*
X303122Y-7729D01*
Y-10999D01*
Y-14270D01*
X303637Y-14056D01*
X304368Y-13495D01*
X304683Y-13085D01*
X305630Y-13406D01*
Y-15819D01*
X307630D01*
Y-15900D01*
X313370D01*
Y-15819D01*
X315370D01*
Y-15385D01*
X317425D01*
Y-15925D01*
Y-19427D01*
X317196Y-19726D01*
X316642Y-21064D01*
X316453Y-22500D01*
X316642Y-23936D01*
X317196Y-25274D01*
X318077Y-26423D01*
X319226Y-27304D01*
X320564Y-27858D01*
X322000Y-28047D01*
X323436Y-27858D01*
X324774Y-27304D01*
X325923Y-26423D01*
X326804Y-25274D01*
X327358Y-23936D01*
X327548Y-22500D01*
X327358Y-21064D01*
X326804Y-19726D01*
X326575Y-19427D01*
Y-15925D01*
Y-6776D01*
X326575D01*
Y-6707D01*
X327282Y-6000D01*
X329425D01*
Y-6776D01*
X329425D01*
Y-15925D01*
Y-22224D01*
X329718D01*
X330160Y-23121D01*
X329696Y-23726D01*
X329142Y-25064D01*
X328953Y-26500D01*
X329142Y-27936D01*
X329696Y-29274D01*
X330577Y-30423D01*
X331726Y-31304D01*
X333064Y-31858D01*
X334500Y-32048D01*
X335936Y-31858D01*
X337274Y-31304D01*
X338423Y-30423D01*
X339304Y-29274D01*
X339858Y-27936D01*
X340048Y-26500D01*
X339858Y-25064D01*
X339304Y-23726D01*
X338534Y-22723D01*
Y-22224D01*
X338575D01*
Y-15925D01*
Y-15385D01*
X341130D01*
Y-15819D01*
X343130D01*
Y-15900D01*
X348870D01*
Y-15819D01*
X350870D01*
Y-6000D01*
X365500D01*
Y-22344D01*
X364649Y-22697D01*
X364553Y-22729D01*
X363996Y-22004D01*
X363265Y-21443D01*
X362750Y-21229D01*
Y-24500D01*
Y-27771D01*
X363265Y-27557D01*
X363996Y-26996D01*
X364553Y-26270D01*
X364649Y-26303D01*
X365500Y-26656D01*
Y-105630D01*
X364900D01*
Y-108500D01*
X362400D01*
Y-105630D01*
X362319D01*
Y-103630D01*
X352382D01*
Y-113370D01*
X353564D01*
Y-118925D01*
X353276D01*
Y-128075D01*
X362013D01*
X362213Y-128276D01*
Y-171252D01*
X354752D01*
Y-178383D01*
X353828Y-178766D01*
X306531Y-131469D01*
X305643Y-130788D01*
X304609Y-130359D01*
X303500Y-130213D01*
X285074D01*
X284837Y-129923D01*
X284546Y-129309D01*
X285220Y-128488D01*
X285800Y-127403D01*
X286158Y-126225D01*
X286278Y-125000D01*
X286158Y-123775D01*
X285800Y-122597D01*
X285220Y-121512D01*
X284439Y-120561D01*
X284366Y-120500D01*
Y-119500D01*
X284439Y-119439D01*
X285220Y-118488D01*
X285800Y-117403D01*
X286158Y-116225D01*
X286278Y-115000D01*
X286158Y-113775D01*
X285800Y-112597D01*
X285220Y-111512D01*
X284439Y-110561D01*
X284366Y-110500D01*
Y-109500D01*
X284439Y-109439D01*
X285220Y-108488D01*
X285800Y-107403D01*
X286158Y-106225D01*
X286278Y-105000D01*
X286158Y-103775D01*
X285800Y-102597D01*
X285220Y-101512D01*
X284439Y-100561D01*
X284366Y-100500D01*
Y-99500D01*
X284439Y-99439D01*
X285220Y-98488D01*
X285800Y-97403D01*
X286158Y-96225D01*
X286278Y-95000D01*
X286158Y-93775D01*
X285800Y-92597D01*
X285220Y-91512D01*
X284439Y-90561D01*
X284366Y-90500D01*
Y-89500D01*
X284439Y-89439D01*
X285220Y-88488D01*
X285800Y-87403D01*
X286158Y-86225D01*
X286278Y-85000D01*
X286227Y-84475D01*
X286945Y-83779D01*
X287000Y-83787D01*
X288109Y-83641D01*
X289143Y-83212D01*
X290031Y-82531D01*
X293031Y-79531D01*
X293712Y-78643D01*
X294141Y-77609D01*
X294287Y-76500D01*
Y-75276D01*
X297692Y-71871D01*
X298616Y-72253D01*
Y-83104D01*
X306270D01*
X306520Y-83238D01*
X307792Y-83624D01*
X309116Y-83754D01*
X334268D01*
X335591Y-83624D01*
X336864Y-83238D01*
X336898Y-83220D01*
X340516D01*
Y-83220D01*
X341045Y-82902D01*
X341672Y-83238D01*
X342945Y-83624D01*
X344268Y-83754D01*
X345591Y-83624D01*
X346864Y-83238D01*
X348036Y-82611D01*
X349064Y-81768D01*
X355441Y-75390D01*
X355565Y-75353D01*
X356737Y-74726D01*
X357765Y-73883D01*
X358609Y-72855D01*
X359236Y-71682D01*
X359622Y-70410D01*
X359752Y-69087D01*
Y-58855D01*
X359633Y-57651D01*
X359622Y-57532D01*
X359236Y-56260D01*
X358609Y-55087D01*
X358145Y-54523D01*
X357765Y-54059D01*
X353617Y-49911D01*
X352589Y-49068D01*
X351417Y-48441D01*
X350144Y-48055D01*
X350026Y-48043D01*
X349346Y-47976D01*
Y-38154D01*
X336653D01*
Y-38213D01*
X325000D01*
X324403Y-37739D01*
X324384Y-37553D01*
X323927Y-36045D01*
X323184Y-34655D01*
X322184Y-33437D01*
X320966Y-32438D01*
X320513Y-32196D01*
X320423Y-32077D01*
X319274Y-31196D01*
X317936Y-30642D01*
X316500Y-30452D01*
X315064Y-30642D01*
X313726Y-31196D01*
X312577Y-32077D01*
X312487Y-32196D01*
X312034Y-32438D01*
X310816Y-33437D01*
X306247Y-38006D01*
X298616D01*
Y-38217D01*
X286289D01*
X285800Y-37403D01*
X286158Y-36225D01*
X286278Y-35000D01*
X286158Y-33775D01*
X285800Y-32597D01*
X285220Y-31512D01*
X284439Y-30561D01*
X284248Y-30404D01*
X284248Y-29248D01*
X284248D01*
Y-26250D01*
X275752D01*
Y-29248D01*
X275752D01*
Y-29927D01*
X275045Y-30634D01*
X274500D01*
X274439Y-30561D01*
X273488Y-29780D01*
X272687Y-29352D01*
X272617Y-28493D01*
X272675Y-28302D01*
X273030Y-28030D01*
X273711Y-27142D01*
X274080Y-26250D01*
X265920D01*
X266289Y-27142D01*
X266970Y-28030D01*
X267325Y-28302D01*
X267383Y-28493D01*
X267313Y-29352D01*
X266512Y-29780D01*
X265561Y-30561D01*
X264780Y-31512D01*
X264200Y-32597D01*
X263842Y-33775D01*
X263722Y-35000D01*
X263842Y-36225D01*
X264200Y-37403D01*
X264780Y-38488D01*
X265561Y-39439D01*
Y-39501D01*
X264704Y-40204D01*
X263860Y-41232D01*
X263234Y-42404D01*
X262848Y-43677D01*
X262717Y-45000D01*
X262848Y-46323D01*
X263234Y-47596D01*
X263860Y-48768D01*
X264704Y-49796D01*
X265561Y-50499D01*
Y-50561D01*
X264780Y-51512D01*
X264200Y-52597D01*
X263842Y-53775D01*
X263722Y-55000D01*
X263842Y-56225D01*
X264200Y-57403D01*
X264780Y-58488D01*
X265561Y-59439D01*
X265634Y-59500D01*
Y-60500D01*
X265561Y-60561D01*
X264780Y-61512D01*
X264200Y-62597D01*
X263842Y-63775D01*
X263722Y-65000D01*
X263769Y-65477D01*
X263097Y-66218D01*
X232784D01*
X232022Y-65632D01*
X230805Y-65129D01*
X229500Y-64957D01*
X228195Y-65129D01*
X226978Y-65632D01*
X225934Y-66434D01*
X196684Y-95684D01*
X195882Y-96728D01*
X195379Y-97945D01*
X195370Y-98014D01*
X195142Y-98564D01*
X194952Y-100000D01*
X195142Y-101436D01*
X195696Y-102774D01*
X196577Y-103923D01*
X197726Y-104804D01*
X199064Y-105358D01*
X200500Y-105547D01*
X201936Y-105358D01*
X203274Y-104804D01*
X204423Y-103923D01*
X205304Y-102774D01*
X205328Y-102717D01*
X206319Y-102586D01*
X206577Y-102923D01*
X207726Y-103804D01*
X209064Y-104358D01*
X210500Y-104548D01*
X211936Y-104358D01*
X213274Y-103804D01*
X214423Y-102923D01*
X215304Y-101774D01*
X215858Y-100436D01*
X215883Y-100249D01*
X222350Y-93782D01*
X263097D01*
X263769Y-94523D01*
X263722Y-95000D01*
X263842Y-96225D01*
X264200Y-97403D01*
X264780Y-98488D01*
X265561Y-99439D01*
X265634Y-99500D01*
Y-100500D01*
X265561Y-100561D01*
X264780Y-101512D01*
X264200Y-102597D01*
X263842Y-103775D01*
X263722Y-105000D01*
X263784Y-105629D01*
X263112Y-106370D01*
X258652D01*
X257924Y-106465D01*
X248000D01*
X248000Y-106465D01*
X246956Y-106603D01*
X245983Y-107006D01*
X245147Y-107647D01*
X245147Y-107647D01*
X200829Y-151965D01*
X162810D01*
X162484Y-151567D01*
X161570Y-150818D01*
X160528Y-150261D01*
X160493Y-150250D01*
X160314Y-149266D01*
X161073Y-148684D01*
X161714Y-147848D01*
X162032Y-147081D01*
X150566D01*
X150884Y-147848D01*
X151525Y-148684D01*
X152285Y-149266D01*
X152105Y-150250D01*
X152071Y-150261D01*
X151028Y-150818D01*
X150115Y-151567D01*
X149365Y-152481D01*
X148808Y-153524D01*
X148465Y-154655D01*
X148349Y-155831D01*
X148465Y-157007D01*
X148808Y-158138D01*
X149365Y-159180D01*
X150115Y-160094D01*
X150403Y-160331D01*
Y-161331D01*
X150115Y-161567D01*
X149365Y-162481D01*
X148808Y-163523D01*
X148606Y-164188D01*
X147636Y-164431D01*
X95797Y-112592D01*
X95220Y-111512D01*
X94439Y-110561D01*
X94366Y-110500D01*
Y-109500D01*
X94439Y-109439D01*
X95220Y-108488D01*
D01*
D01*
X96031Y-108436D01*
X97578Y-109262D01*
X99255Y-109771D01*
X101000Y-109943D01*
X102745Y-109771D01*
X104422Y-109262D01*
X105968Y-108436D01*
X107324Y-107324D01*
X108436Y-105968D01*
X109262Y-104422D01*
X109771Y-102745D01*
X109943Y-101000D01*
X109771Y-99255D01*
X109262Y-97578D01*
X108436Y-96031D01*
X107324Y-94676D01*
X105968Y-93564D01*
X104422Y-92738D01*
X102745Y-92229D01*
X101000Y-92057D01*
X99255Y-92229D01*
X97578Y-92738D01*
X96780Y-93164D01*
X95856Y-92781D01*
X95800Y-92597D01*
X95220Y-91512D01*
X94439Y-90561D01*
X94366Y-90500D01*
Y-89500D01*
X94439Y-89439D01*
X95220Y-88488D01*
X95800Y-87403D01*
X96158Y-86225D01*
X96278Y-85000D01*
X96182Y-84024D01*
X108853Y-71353D01*
X108853Y-71353D01*
X109494Y-70517D01*
X109897Y-69544D01*
X109897Y-69544D01*
X109897Y-69544D01*
Y-69544D01*
X110035Y-68500D01*
X110035Y-68500D01*
Y-47000D01*
X110035Y-47000D01*
X110035Y-47000D01*
Y-47000D01*
X110035D01*
X110035Y-47000D01*
X109897Y-45956D01*
X109730Y-45553D01*
X109494Y-44983D01*
X108853Y-44147D01*
X108853Y-44147D01*
X101853Y-37147D01*
X101017Y-36506D01*
X100044Y-36103D01*
X99000Y-35965D01*
X99000Y-35965D01*
X96928D01*
X96256Y-35225D01*
X96278Y-35000D01*
X96158Y-33775D01*
X95800Y-32597D01*
X95220Y-31512D01*
X94439Y-30561D01*
X94248Y-30404D01*
X94248Y-29248D01*
X94248D01*
Y-26250D01*
X85752D01*
Y-29248D01*
X85752D01*
Y-29927D01*
X85045Y-30634D01*
X84500D01*
X84439Y-30561D01*
X83488Y-29780D01*
X82687Y-29352D01*
X82617Y-28493D01*
X82675Y-28302D01*
X83030Y-28030D01*
X83711Y-27142D01*
X84080Y-26250D01*
X75920D01*
X76289Y-27142D01*
X76970Y-28030D01*
X77325Y-28302D01*
X77383Y-28493D01*
X77313Y-29352D01*
X76512Y-29780D01*
X75561Y-30561D01*
X74780Y-31512D01*
X74200Y-32597D01*
X73842Y-33775D01*
X73722Y-35000D01*
X73744Y-35225D01*
X73343Y-35666D01*
X72343Y-35658D01*
X72351Y-35667D01*
X71953Y-35214D01*
X72048Y-34500D01*
X71858Y-33064D01*
X71304Y-31726D01*
X70423Y-30577D01*
X69274Y-29696D01*
X67936Y-29142D01*
X66500Y-28953D01*
X65064Y-29142D01*
X63726Y-29696D01*
X62723Y-30465D01*
X61041D01*
X60975Y-29468D01*
X61414Y-29410D01*
X62265Y-29057D01*
X62996Y-28496D01*
X63557Y-27765D01*
X63771Y-27250D01*
X57229D01*
X57443Y-27765D01*
X57643Y-28026D01*
X56891Y-28686D01*
X55853Y-27647D01*
X55661Y-27500D01*
X55097Y-27067D01*
X55358Y-26436D01*
X55547Y-25000D01*
X55358Y-23564D01*
X54804Y-22226D01*
X54575Y-21927D01*
Y-16925D01*
Y-16385D01*
X58130D01*
Y-16400D01*
X63870D01*
Y-16319D01*
X65870D01*
Y-6615D01*
X66580Y-5912D01*
X130000Y-6500D01*
D02*
G37*
G36*
X56130Y-5815D02*
Y-6382D01*
X56130D01*
Y-8316D01*
X54575D01*
Y-7776D01*
X45425D01*
Y-16925D01*
Y-21927D01*
X45196Y-22226D01*
X45170Y-22288D01*
X44189Y-22483D01*
X42075Y-20369D01*
Y-16925D01*
Y-7776D01*
X32925D01*
Y-8316D01*
X29870D01*
Y-6382D01*
X29870D01*
X29871Y-6278D01*
X30585Y-5578D01*
X56130Y-5815D01*
D02*
G37*
G36*
X133370Y-375444D02*
Y-411516D01*
X113420Y-431465D01*
X101572D01*
X101251Y-430518D01*
X101654Y-430209D01*
X123291Y-408572D01*
X123750Y-408632D01*
X125186Y-408443D01*
X126524Y-407889D01*
X127673Y-407008D01*
X128554Y-405859D01*
X129108Y-404521D01*
X129297Y-403085D01*
X129108Y-401649D01*
X128554Y-400311D01*
X127673Y-399162D01*
X126524Y-398281D01*
X125186Y-397726D01*
X123750Y-397537D01*
X122314Y-397726D01*
X120976Y-398281D01*
X119827Y-399162D01*
X119709Y-399316D01*
X96564Y-422461D01*
X79724D01*
Y-422425D01*
X64276D01*
Y-422965D01*
X60118D01*
Y-422130D01*
X59980D01*
Y-421751D01*
X59980D01*
X59980Y-420793D01*
X64344D01*
Y-421081D01*
X79792D01*
Y-419281D01*
X90736Y-408338D01*
X91032Y-407952D01*
X91417Y-407450D01*
X91644Y-406902D01*
X92360Y-406606D01*
Y-405483D01*
X92546Y-405035D01*
X92716Y-403738D01*
Y-400786D01*
X94860D01*
Y-406434D01*
X95107Y-406331D01*
X95727Y-405856D01*
X96203Y-405235D01*
X96502Y-404513D01*
X96604Y-403738D01*
Y-400936D01*
X97436Y-400381D01*
X98219Y-400705D01*
X99516Y-400876D01*
X105421D01*
X106718Y-400705D01*
X107927Y-400204D01*
X108965Y-399408D01*
X109761Y-398370D01*
X110262Y-397161D01*
X110433Y-395864D01*
X110262Y-394567D01*
X109761Y-393359D01*
X109418Y-392912D01*
X109761Y-392464D01*
X110262Y-391256D01*
X110433Y-389959D01*
X110262Y-388662D01*
X109761Y-387453D01*
X109418Y-387006D01*
X109761Y-386559D01*
X110262Y-385350D01*
X110433Y-384053D01*
X110262Y-382756D01*
X109761Y-381548D01*
X109418Y-381101D01*
X109761Y-380654D01*
X110262Y-379445D01*
X110433Y-378148D01*
X110262Y-376851D01*
X109761Y-375642D01*
X109418Y-375195D01*
X109761Y-374748D01*
X110262Y-373539D01*
X110433Y-372242D01*
X110262Y-370945D01*
X109761Y-369737D01*
X109418Y-369290D01*
X109761Y-368843D01*
X110262Y-367634D01*
X110433Y-366337D01*
X110262Y-365040D01*
X109761Y-363831D01*
X109418Y-363384D01*
X109761Y-362937D01*
X110262Y-361728D01*
X110433Y-360431D01*
X110262Y-359134D01*
X109761Y-357926D01*
X109418Y-357478D01*
X109761Y-357031D01*
X110262Y-355823D01*
X110433Y-354526D01*
X110330Y-353743D01*
X111226Y-353301D01*
X133370Y-375444D01*
D02*
G37*
%LPC*%
G36*
X15250Y-272729D02*
Y-274750D01*
X17271D01*
X17057Y-274235D01*
X16496Y-273504D01*
X15765Y-272943D01*
X15250Y-272729D01*
D02*
G37*
G36*
X12750D02*
X12235Y-272943D01*
X11504Y-273504D01*
X10943Y-274235D01*
X10729Y-274750D01*
X12750D01*
Y-272729D01*
D02*
G37*
G36*
X30250Y-413313D02*
X29308Y-413703D01*
X28400Y-414400D01*
X27703Y-415308D01*
X27313Y-416250D01*
X30250D01*
Y-413313D01*
D02*
G37*
G36*
X290250Y-362729D02*
Y-364750D01*
X292271D01*
X292057Y-364235D01*
X291496Y-363504D01*
X290765Y-362943D01*
X290250Y-362729D01*
D02*
G37*
G36*
X131571Y-282344D02*
X130020D01*
Y-284496D01*
X131571D01*
Y-282344D01*
D02*
G37*
G36*
X257250Y-290229D02*
Y-292250D01*
X259271D01*
X259057Y-291735D01*
X258496Y-291004D01*
X257765Y-290443D01*
X257250Y-290229D01*
D02*
G37*
G36*
X17271Y-277250D02*
X15250D01*
Y-279271D01*
X15765Y-279057D01*
X16496Y-278496D01*
X17057Y-277765D01*
X17271Y-277250D01*
D02*
G37*
G36*
X12750D02*
X10729D01*
X10943Y-277765D01*
X11504Y-278496D01*
X12235Y-279057D01*
X12750Y-279271D01*
Y-277250D01*
D02*
G37*
G36*
X22618Y-263250D02*
X20900D01*
Y-264870D01*
X22618D01*
Y-263250D01*
D02*
G37*
G36*
X284080Y-246250D02*
X281250D01*
Y-249080D01*
X282142Y-248711D01*
X283030Y-248030D01*
X283711Y-247142D01*
X284080Y-246250D01*
D02*
G37*
G36*
X278750D02*
X275920D01*
X276289Y-247142D01*
X276970Y-248030D01*
X277858Y-248711D01*
X278750Y-249080D01*
Y-246250D01*
D02*
G37*
G36*
X271250Y-240920D02*
Y-243750D01*
X274080D01*
X273711Y-242858D01*
X273030Y-241970D01*
X272142Y-241289D01*
X271250Y-240920D01*
D02*
G37*
G36*
X268750D02*
X267858Y-241289D01*
X266970Y-241970D01*
X266289Y-242858D01*
X265920Y-243750D01*
X268750D01*
Y-240920D01*
D02*
G37*
G36*
X221340Y-360904D02*
Y-362384D01*
X222819D01*
X222710Y-362121D01*
X222229Y-361494D01*
X221603Y-361013D01*
X221340Y-360904D01*
D02*
G37*
G36*
X22618Y-259130D02*
X20900D01*
Y-260750D01*
X22618D01*
Y-259130D01*
D02*
G37*
G36*
X274080Y-246250D02*
X271250D01*
Y-249080D01*
X272142Y-248711D01*
X273030Y-248030D01*
X273711Y-247142D01*
X274080Y-246250D01*
D02*
G37*
G36*
X268750D02*
X265920D01*
X266289Y-247142D01*
X266970Y-248030D01*
X267858Y-248711D01*
X268750Y-249080D01*
Y-246250D01*
D02*
G37*
G36*
X33500Y-281953D02*
X32064Y-282142D01*
X30726Y-282696D01*
X29577Y-283577D01*
X28696Y-284726D01*
X28142Y-286064D01*
X27953Y-287500D01*
X28142Y-288936D01*
X28696Y-290274D01*
X29577Y-291423D01*
X30726Y-292304D01*
X32064Y-292858D01*
X33500Y-293047D01*
X34936Y-292858D01*
X36274Y-292304D01*
X37423Y-291423D01*
X38304Y-290274D01*
X38858Y-288936D01*
X39048Y-287500D01*
X38858Y-286064D01*
X38304Y-284726D01*
X37423Y-283577D01*
X36274Y-282696D01*
X34936Y-282142D01*
X33500Y-281953D01*
D02*
G37*
G36*
X131370Y-304400D02*
X129750D01*
Y-306118D01*
X131370D01*
Y-304400D01*
D02*
G37*
G36*
X127250D02*
X125630D01*
Y-306118D01*
X127250D01*
Y-304400D01*
D02*
G37*
G36*
X281971Y-299857D02*
X281456Y-300071D01*
X280725Y-300632D01*
X280164Y-301363D01*
X279950Y-301878D01*
X281971D01*
Y-299857D01*
D02*
G37*
G36*
X15000Y-293453D02*
X13564Y-293642D01*
X12226Y-294196D01*
X11077Y-295077D01*
X10196Y-296226D01*
X9642Y-297564D01*
X9453Y-299000D01*
X9642Y-300436D01*
X10196Y-301774D01*
X11077Y-302923D01*
X12226Y-303804D01*
X13564Y-304358D01*
X15000Y-304548D01*
X16436Y-304358D01*
X17774Y-303804D01*
X18923Y-302923D01*
X19804Y-301774D01*
X20358Y-300436D01*
X20548Y-299000D01*
X20358Y-297564D01*
X19804Y-296226D01*
X18923Y-295077D01*
X17774Y-294196D01*
X16436Y-293642D01*
X15000Y-293453D01*
D02*
G37*
G36*
X241250Y-320729D02*
X240735Y-320943D01*
X240004Y-321504D01*
X239443Y-322235D01*
X239229Y-322750D01*
X241250D01*
Y-320729D01*
D02*
G37*
G36*
X219229Y-310250D02*
X217750D01*
Y-311729D01*
X218013Y-311620D01*
X218640Y-311140D01*
X219121Y-310513D01*
X219229Y-310250D01*
D02*
G37*
G36*
X286492Y-304378D02*
X284471D01*
Y-306399D01*
X284986Y-306185D01*
X285717Y-305624D01*
X286278Y-304893D01*
X286492Y-304378D01*
D02*
G37*
G36*
X281971D02*
X279950D01*
X280164Y-304893D01*
X280725Y-305624D01*
X281456Y-306185D01*
X281971Y-306399D01*
Y-304378D01*
D02*
G37*
G36*
X284471Y-299857D02*
Y-301878D01*
X286492D01*
X286278Y-301363D01*
X285717Y-300632D01*
X284986Y-300071D01*
X284471Y-299857D01*
D02*
G37*
G36*
X287750Y-362729D02*
X287235Y-362943D01*
X286504Y-363504D01*
X285943Y-364235D01*
X285729Y-364750D01*
X287750D01*
Y-362729D01*
D02*
G37*
G36*
X222819Y-364883D02*
X221340D01*
Y-366363D01*
X221603Y-366254D01*
X222229Y-365773D01*
X222710Y-365146D01*
X222819Y-364883D01*
D02*
G37*
G36*
X266370Y-293882D02*
X264750D01*
Y-295600D01*
X266370D01*
Y-293882D01*
D02*
G37*
G36*
X262250D02*
X260630D01*
Y-295600D01*
X262250D01*
Y-293882D01*
D02*
G37*
G36*
X259271Y-294750D02*
X257250D01*
Y-296771D01*
X257765Y-296557D01*
X258496Y-295996D01*
X259057Y-295265D01*
X259271Y-294750D01*
D02*
G37*
G36*
X292271Y-367250D02*
X290250D01*
Y-369271D01*
X290765Y-369057D01*
X291496Y-368496D01*
X292057Y-367765D01*
X292271Y-367250D01*
D02*
G37*
G36*
X287750D02*
X285729D01*
X285943Y-367765D01*
X286504Y-368496D01*
X287235Y-369057D01*
X287750Y-369271D01*
Y-367250D01*
D02*
G37*
G36*
X206370Y-293882D02*
X204750D01*
Y-295600D01*
X206370D01*
Y-293882D01*
D02*
G37*
G36*
X268750Y-20920D02*
X267858Y-21289D01*
X266970Y-21970D01*
X266289Y-22858D01*
X265920Y-23750D01*
X268750D01*
Y-20920D01*
D02*
G37*
G36*
X94248Y-20752D02*
X91250D01*
Y-23750D01*
X94248D01*
Y-20752D01*
D02*
G37*
G36*
X271250Y-20920D02*
Y-23750D01*
X274080D01*
X273711Y-22858D01*
X273030Y-21970D01*
X272142Y-21289D01*
X271250Y-20920D01*
D02*
G37*
G36*
X284248Y-20752D02*
X281250D01*
Y-23750D01*
X284248D01*
Y-20752D01*
D02*
G37*
G36*
X278750D02*
X275752D01*
Y-23750D01*
X278750D01*
Y-20752D01*
D02*
G37*
G36*
X61750Y-22729D02*
Y-24750D01*
X63771D01*
X63557Y-24235D01*
X62996Y-23504D01*
X62265Y-22943D01*
X61750Y-22729D01*
D02*
G37*
G36*
X59250D02*
X58735Y-22943D01*
X58004Y-23504D01*
X57443Y-24235D01*
X57229Y-24750D01*
X59250D01*
Y-22729D01*
D02*
G37*
G36*
X78750Y-20920D02*
X77858Y-21289D01*
X76970Y-21970D01*
X76289Y-22858D01*
X75920Y-23750D01*
X78750D01*
Y-20920D01*
D02*
G37*
G36*
X88750Y-20752D02*
X85752D01*
Y-23750D01*
X88750D01*
Y-20752D01*
D02*
G37*
G36*
X81250Y-20920D02*
Y-23750D01*
X84080D01*
X83711Y-22858D01*
X83030Y-21970D01*
X82142Y-21289D01*
X81250Y-20920D01*
D02*
G37*
G36*
X360250Y-21229D02*
X359735Y-21443D01*
X359004Y-22004D01*
X358443Y-22735D01*
X358229Y-23250D01*
X360250D01*
Y-21229D01*
D02*
G37*
G36*
X344750Y-18400D02*
X343130D01*
Y-20118D01*
X344750D01*
Y-18400D01*
D02*
G37*
G36*
X313370D02*
X311750D01*
Y-20118D01*
X313370D01*
Y-18400D01*
D02*
G37*
G36*
X348870D02*
X347250D01*
Y-20118D01*
X348870D01*
Y-18400D01*
D02*
G37*
G36*
X300622Y-7729D02*
X300107Y-7942D01*
X299376Y-8503D01*
X298815Y-9234D01*
X298601Y-9749D01*
X300622D01*
Y-7729D01*
D02*
G37*
G36*
Y-12249D02*
X298601D01*
X298815Y-12764D01*
X299376Y-13495D01*
X300107Y-14056D01*
X300622Y-14270D01*
Y-12249D01*
D02*
G37*
G36*
X27870Y-18900D02*
X26250D01*
Y-20618D01*
X27870D01*
Y-18900D01*
D02*
G37*
G36*
X23750D02*
X22130D01*
Y-20618D01*
X23750D01*
Y-18900D01*
D02*
G37*
G36*
X59750D02*
X58130D01*
Y-20618D01*
X59750D01*
Y-18900D01*
D02*
G37*
G36*
X309250Y-18400D02*
X307630D01*
Y-20118D01*
X309250D01*
Y-18400D01*
D02*
G37*
G36*
X63870Y-18900D02*
X62250D01*
Y-20618D01*
X63870D01*
Y-18900D01*
D02*
G37*
G36*
X29750Y-24229D02*
Y-26250D01*
X31771D01*
X31557Y-25735D01*
X30996Y-25004D01*
X30265Y-24443D01*
X29750Y-24229D01*
D02*
G37*
G36*
X336750Y-198400D02*
X335130D01*
Y-200118D01*
X336750D01*
Y-198400D01*
D02*
G37*
G36*
X354600Y-235130D02*
X352882D01*
Y-236750D01*
X354600D01*
Y-235130D01*
D02*
G37*
G36*
X340870Y-198400D02*
X339250D01*
Y-200118D01*
X340870D01*
Y-198400D01*
D02*
G37*
G36*
X11639Y-146428D02*
X8889D01*
Y-149178D01*
X11639D01*
Y-146428D01*
D02*
G37*
G36*
X31360Y-150082D02*
X30144Y-151297D01*
X31290Y-152442D01*
X32505Y-151227D01*
X31360Y-150082D01*
D02*
G37*
G36*
X281250Y-240920D02*
Y-243750D01*
X284080D01*
X283711Y-242858D01*
X283030Y-241970D01*
X282142Y-241289D01*
X281250Y-240920D01*
D02*
G37*
G36*
X278750D02*
X277858Y-241289D01*
X276970Y-241970D01*
X276289Y-242858D01*
X275920Y-243750D01*
X278750D01*
Y-240920D01*
D02*
G37*
G36*
X274080Y-236250D02*
X271250D01*
Y-239080D01*
X272142Y-238711D01*
X273030Y-238030D01*
X273711Y-237142D01*
X274080Y-236250D01*
D02*
G37*
G36*
X284080D02*
X281250D01*
Y-239080D01*
X282142Y-238711D01*
X283030Y-238030D01*
X283711Y-237142D01*
X284080Y-236250D01*
D02*
G37*
G36*
X278750D02*
X275920D01*
X276289Y-237142D01*
X276970Y-238030D01*
X277858Y-238711D01*
X278750Y-239080D01*
Y-236250D01*
D02*
G37*
G36*
X164220Y-119831D02*
X148378D01*
Y-131831D01*
X148740D01*
X149254Y-132688D01*
X148808Y-133523D01*
X148465Y-134654D01*
X148349Y-135831D01*
X148465Y-137007D01*
X148808Y-138138D01*
X149365Y-139180D01*
X150115Y-140094D01*
X151028Y-140844D01*
X152071Y-141401D01*
X152105Y-141411D01*
X152285Y-142395D01*
X151525Y-142978D01*
X150884Y-143813D01*
X150566Y-144581D01*
X162032D01*
X161714Y-143813D01*
X161073Y-142978D01*
X160314Y-142395D01*
X160493Y-141411D01*
X160528Y-141401D01*
X161570Y-140844D01*
X162484Y-140094D01*
X163233Y-139180D01*
X163791Y-138138D01*
X164134Y-137007D01*
X164250Y-135831D01*
X164134Y-134654D01*
X163791Y-133523D01*
X163344Y-132688D01*
X163858Y-131831D01*
X164220D01*
Y-119831D01*
D02*
G37*
G36*
X27250Y-28750D02*
X25229D01*
X25443Y-29265D01*
X26004Y-29996D01*
X26735Y-30557D01*
X27250Y-30771D01*
Y-28750D01*
D02*
G37*
G36*
X30250Y-77729D02*
Y-79750D01*
X32271D01*
X32057Y-79235D01*
X31496Y-78504D01*
X30765Y-77943D01*
X30250Y-77729D01*
D02*
G37*
G36*
X31771Y-28750D02*
X29750D01*
Y-30771D01*
X30265Y-30557D01*
X30996Y-29996D01*
X31557Y-29265D01*
X31771Y-28750D01*
D02*
G37*
G36*
X27250Y-24229D02*
X26735Y-24443D01*
X26004Y-25004D01*
X25443Y-25735D01*
X25229Y-26250D01*
X27250D01*
Y-24229D01*
D02*
G37*
G36*
X360250Y-25750D02*
X358229D01*
X358443Y-26265D01*
X359004Y-26996D01*
X359735Y-27557D01*
X360250Y-27771D01*
Y-25750D01*
D02*
G37*
G36*
X31360Y-130081D02*
X30144Y-131297D01*
X31290Y-132442D01*
X32505Y-131227D01*
X31360Y-130081D01*
D02*
G37*
G36*
Y-140082D02*
X30144Y-141297D01*
X31290Y-142442D01*
X32505Y-141227D01*
X31360Y-140082D01*
D02*
G37*
G36*
X27750Y-82250D02*
X25729D01*
X25943Y-82765D01*
X26504Y-83496D01*
X27235Y-84057D01*
X27750Y-84271D01*
Y-82250D01*
D02*
G37*
G36*
Y-77729D02*
X27235Y-77943D01*
X26504Y-78504D01*
X25943Y-79235D01*
X25729Y-79750D01*
X27750D01*
Y-77729D01*
D02*
G37*
G36*
X32271Y-82250D02*
X30250D01*
Y-84271D01*
X30765Y-84057D01*
X31496Y-83496D01*
X32057Y-82765D01*
X32271Y-82250D01*
D02*
G37*
%LPD*%
D10*
X25000Y-11350D02*
D03*
Y-17650D02*
D03*
X203500Y-303150D02*
D03*
Y-296850D02*
D03*
X193279Y-303140D02*
D03*
Y-296841D02*
D03*
X248546Y-296736D02*
D03*
Y-303035D02*
D03*
X263500Y-303150D02*
D03*
Y-296850D02*
D03*
X128500Y-296850D02*
D03*
Y-303150D02*
D03*
X143500Y-303150D02*
D03*
Y-296850D02*
D03*
X233500Y-296850D02*
D03*
Y-303150D02*
D03*
X218500Y-296850D02*
D03*
Y-303150D02*
D03*
X158500Y-296850D02*
D03*
Y-303150D02*
D03*
X169254Y-302882D02*
D03*
Y-296583D02*
D03*
X61000Y-11350D02*
D03*
Y-17650D02*
D03*
X338000Y-197150D02*
D03*
Y-190850D02*
D03*
X348000Y-190850D02*
D03*
Y-197150D02*
D03*
X310500Y-10850D02*
D03*
Y-17150D02*
D03*
X346000Y-10850D02*
D03*
Y-17150D02*
D03*
D11*
X51727Y-123773D02*
D03*
X47273Y-128227D02*
D03*
X51727Y-93773D02*
D03*
X47273Y-98227D02*
D03*
X51727Y-103773D02*
D03*
X47273Y-108227D02*
D03*
X51727Y-113773D02*
D03*
X47273Y-118227D02*
D03*
X51727Y-133773D02*
D03*
X47273Y-138227D02*
D03*
D12*
X34273Y-111227D02*
D03*
X38727Y-106773D02*
D03*
X34273Y-121227D02*
D03*
X38727Y-116773D02*
D03*
X34273Y-141227D02*
D03*
X38727Y-136773D02*
D03*
X34273Y-131227D02*
D03*
X38727Y-126773D02*
D03*
X34273Y-151227D02*
D03*
X38727Y-146773D02*
D03*
D13*
X279558Y-322345D02*
D03*
Y-326045D02*
D03*
Y-329745D02*
D03*
X288258D02*
D03*
Y-322345D02*
D03*
D14*
X169819Y-355819D02*
D03*
X183181Y-369181D02*
D03*
X193319Y-379319D02*
D03*
X206681Y-392681D02*
D03*
D15*
X169819Y-392181D02*
D03*
X183181Y-378819D02*
D03*
X193319Y-369181D02*
D03*
X206681Y-355819D02*
D03*
D16*
X163335Y-369046D02*
D03*
X165145Y-370855D02*
D03*
X166954Y-372665D02*
D03*
X161665Y-377954D02*
D03*
X159855Y-376145D02*
D03*
X158046Y-374335D02*
D03*
X213165Y-379954D02*
D03*
X211355Y-378145D02*
D03*
X209546Y-376335D02*
D03*
X214835Y-371046D02*
D03*
X216645Y-372855D02*
D03*
X218454Y-374665D02*
D03*
D17*
X183546Y-397665D02*
D03*
X185355Y-395855D02*
D03*
X187165Y-394046D02*
D03*
X192454Y-399335D02*
D03*
X190645Y-401145D02*
D03*
X188835Y-402954D02*
D03*
X193454Y-350835D02*
D03*
X191645Y-352645D02*
D03*
X189835Y-354454D02*
D03*
X184546Y-349165D02*
D03*
X186355Y-347355D02*
D03*
X188165Y-345546D02*
D03*
D18*
X219776Y-323260D02*
D03*
Y-327000D02*
D03*
Y-330740D02*
D03*
X229224D02*
D03*
Y-323260D02*
D03*
X249397Y-323373D02*
D03*
Y-327113D02*
D03*
Y-330853D02*
D03*
X258846D02*
D03*
Y-323373D02*
D03*
D19*
X68850Y-427000D02*
D03*
X75150D02*
D03*
X68850Y-435500D02*
D03*
X75150D02*
D03*
X68918Y-416507D02*
D03*
X75217D02*
D03*
X361650Y-253000D02*
D03*
X355350D02*
D03*
X357850Y-123500D02*
D03*
X364150D02*
D03*
X15350D02*
D03*
X21650D02*
D03*
X14350Y-253500D02*
D03*
X20650D02*
D03*
D20*
X22744Y-349605D02*
D03*
X28650D02*
D03*
X34555D02*
D03*
X40461D02*
D03*
X46366D02*
D03*
X52272D02*
D03*
X58177D02*
D03*
X64083D02*
D03*
X69988D02*
D03*
X75894D02*
D03*
X81799D02*
D03*
X87705D02*
D03*
X93610D02*
D03*
Y-400786D02*
D03*
X87705D02*
D03*
X81799D02*
D03*
X75894D02*
D03*
X69988D02*
D03*
X64083D02*
D03*
X58177D02*
D03*
X52272D02*
D03*
X46366D02*
D03*
X40461D02*
D03*
X34555D02*
D03*
X28650D02*
D03*
D21*
X102469Y-354526D02*
D03*
Y-360431D02*
D03*
Y-366337D02*
D03*
Y-372242D02*
D03*
Y-378148D02*
D03*
Y-384053D02*
D03*
Y-389959D02*
D03*
Y-395864D02*
D03*
D22*
X22744Y-400786D02*
D03*
D23*
X50000Y-12350D02*
D03*
Y-18650D02*
D03*
X37500Y-12350D02*
D03*
Y-18650D02*
D03*
X322000Y-11350D02*
D03*
Y-17650D02*
D03*
X334000Y-11350D02*
D03*
Y-17650D02*
D03*
D24*
X55150Y-427000D02*
D03*
X48850D02*
D03*
X55011Y-416881D02*
D03*
X48712D02*
D03*
X48850Y-436000D02*
D03*
X55150D02*
D03*
X362150Y-238000D02*
D03*
X355850D02*
D03*
X357350Y-108500D02*
D03*
X363650D02*
D03*
X14350Y-114500D02*
D03*
X20650D02*
D03*
X13350Y-262000D02*
D03*
X19650D02*
D03*
D25*
X128770Y-281094D02*
D03*
X141663D02*
D03*
D26*
X309116Y-74604D02*
D03*
Y-46506D02*
D03*
D27*
X144538Y-329242D02*
D03*
Y-330621D02*
D03*
D28*
X141979Y-329931D02*
D03*
D29*
X153976Y-369629D02*
X157638Y-373291D01*
X153976Y-369629D02*
Y-369576D01*
X187336Y-403158D02*
X187859Y-403680D01*
X186508Y-403158D02*
X187336D01*
X182390Y-407276D02*
X186508Y-403158D01*
X137656Y-412472D02*
Y-373668D01*
X100393Y-336405D02*
X137656Y-373668D01*
X260500Y-276530D02*
X272839Y-288869D01*
Y-324003D02*
Y-288869D01*
Y-324003D02*
X274881Y-326045D01*
X243000Y-301000D02*
X246477Y-297523D01*
X243000Y-312000D02*
Y-301000D01*
Y-312000D02*
X249000Y-318000D01*
Y-323343D02*
Y-318000D01*
X141663Y-292026D02*
Y-281094D01*
X136626Y-297064D02*
X141663Y-292026D01*
X274881Y-326045D02*
X279558D01*
X12023Y-390065D02*
X22744Y-400786D01*
X28650D02*
Y-390610D01*
X17049Y-379009D02*
X28650Y-390610D01*
X17049Y-379009D02*
Y-337451D01*
X69988Y-349605D02*
Y-343512D01*
X83500Y-330000D01*
X81799Y-349605D02*
Y-339770D01*
X85164Y-336405D01*
X100393D01*
X87705Y-405307D02*
Y-400786D01*
X54377Y-416585D02*
X54455Y-416507D01*
X68918D01*
X54198Y-435500D02*
X68350D01*
X76279Y-416733D02*
X87705Y-405307D01*
X260500Y-276530D02*
Y-234000D01*
X269000Y-225500D01*
X90000Y-244500D02*
X90500Y-244000D01*
X90000Y-245000D02*
Y-244500D01*
X280000Y-175000D02*
X288000D01*
X293500Y-180500D01*
Y-219500D02*
Y-180500D01*
X280000Y-165000D02*
X292500D01*
X302000Y-174500D01*
Y-216000D02*
Y-174500D01*
Y-216000D02*
X311000Y-225000D01*
X356500Y-187500D02*
X361000D01*
X303500Y-134500D02*
X356500Y-187500D01*
X280000Y-134500D02*
X303500D01*
X311000Y-225000D02*
X362500D01*
X293500Y-219500D02*
X327000Y-253000D01*
X355000D01*
X361650D02*
Y-238350D01*
X362500Y-225000D02*
X366500Y-221000D01*
Y-126500D01*
X364000Y-124000D02*
X366500Y-126500D01*
X357850Y-123500D02*
Y-108850D01*
X357500Y-108500D02*
X357850Y-108850D01*
X325000Y-42500D02*
X343572D01*
X322500Y-45000D02*
X325000Y-42500D01*
X322500Y-55500D02*
Y-45000D01*
X315500Y-62500D02*
X322500Y-55500D01*
X280000Y-155000D02*
X290500D01*
X327000Y-191500D01*
X338500D01*
X290000Y-73500D02*
X301000Y-62500D01*
X315500D01*
X290000Y-76500D02*
Y-73500D01*
X287000Y-79500D02*
X290000Y-76500D01*
X141663Y-281094D02*
X162406D01*
X197500Y-246000D01*
X225000D01*
X255000Y-195500D02*
X269000D01*
X225500Y-245500D02*
X231000Y-240000D01*
Y-219500D01*
X255000Y-195500D01*
X169254Y-297370D02*
Y-283746D01*
X199500Y-253500D01*
X227000D01*
X235500Y-245000D01*
Y-222000D01*
X257000Y-200500D01*
X263000D01*
X17049Y-337451D02*
X26000Y-328500D01*
X12023Y-390065D02*
Y-335477D01*
X27500Y-320000D01*
X42000D01*
X89500Y-329500D02*
X90500D01*
X99000Y-211000D02*
X111000Y-223000D01*
X42000Y-320000D02*
X65000Y-297000D01*
X65250Y-296750D02*
X111000Y-251000D01*
Y-223000D01*
X26000Y-328500D02*
X61000D01*
X118500Y-271000D01*
X83500Y-330000D02*
X90500D01*
Y-205000D02*
X104500D01*
X118500Y-219000D01*
Y-271000D02*
Y-219000D01*
D30*
X193445Y-399306D02*
X196463D01*
X202947Y-405790D02*
X203190D01*
X196463Y-399306D02*
X202947Y-405790D01*
X220461Y-369039D02*
Y-362705D01*
X188778Y-345546D02*
X192976Y-341348D01*
X188165Y-345546D02*
X188778D01*
X74224Y-69863D02*
X85137D01*
X66608Y-69892D02*
X77252D01*
X88152Y-169956D02*
X91000Y-172804D01*
X66544Y-169956D02*
X88152D01*
X53000Y-183500D02*
X66544Y-169956D01*
X97952Y-209952D02*
X99000Y-211000D01*
X84452Y-209952D02*
X97952D01*
X80500Y-206000D02*
X84452Y-209952D01*
X263495Y-200005D02*
X273995D01*
X263000Y-200500D02*
X263495Y-200005D01*
X273995D02*
X279500Y-194500D01*
X286500Y-80000D02*
X287000Y-79500D01*
X274500Y-80000D02*
X286500D01*
X270500Y-84000D02*
X274500Y-80000D01*
X214061Y-368703D02*
X214835Y-371046D01*
X160065Y-381444D02*
X161665Y-379844D01*
X161067Y-382446D02*
X161102D01*
X160065Y-381444D02*
X161067Y-382446D01*
X219233Y-411405D02*
X232568Y-398070D01*
X160038Y-411405D02*
X219233D01*
X143831Y-395198D02*
X160038Y-411405D01*
X232568Y-398070D02*
X248869D01*
X256981Y-398019D02*
X289000Y-366000D01*
X249977Y-398019D02*
X256981D01*
X31500Y-119000D02*
X34000Y-121500D01*
X31500Y-119000D02*
Y-114000D01*
X34273Y-111227D01*
X39000Y-146500D02*
X47273Y-138227D01*
X39000Y-136500D02*
X47273Y-128227D01*
X39500Y-126000D02*
X47273Y-118227D01*
X39000Y-116500D02*
X47273Y-108227D01*
X38727Y-106773D02*
X47273Y-98227D01*
X38500Y-107000D02*
X38727Y-106773D01*
X60500Y-85000D02*
X80000D01*
X51727Y-93773D02*
X60500Y-85000D01*
X65353Y-100147D02*
X85779D01*
X51727Y-113773D02*
X65353Y-100147D01*
X61000Y-95000D02*
X80000D01*
X60889D02*
X61000D01*
X52227Y-103773D02*
X61000Y-95000D01*
X51727Y-103773D02*
X52227D01*
X51727Y-123773D02*
X70500Y-105000D01*
X51727Y-133773D02*
X75500Y-110000D01*
X70500Y-105000D02*
X80000D01*
X76000Y-109979D02*
X85461D01*
X78277Y-115000D02*
X79500D01*
X31000Y-162277D02*
X78277Y-115000D01*
X31000Y-189000D02*
Y-162277D01*
X74266Y-125500D02*
X79500D01*
X35000Y-164766D02*
X74266Y-125500D01*
X35000Y-197000D02*
Y-164766D01*
X85779Y-100147D02*
X90000Y-95927D01*
Y-95000D01*
X85461Y-109979D02*
X90000Y-105440D01*
Y-105000D01*
X237636Y-333400D02*
X239796Y-331240D01*
X240523Y-367818D02*
Y-350679D01*
X233500Y-343656D02*
X240523Y-350679D01*
X233500Y-343656D02*
Y-302362D01*
X203717Y-275500D02*
X242000D01*
X186950Y-292267D02*
X203717Y-275500D01*
X186950Y-307095D02*
Y-292267D01*
X203448Y-270000D02*
X241500D01*
X183979Y-289469D02*
X203448Y-270000D01*
X183979Y-308347D02*
Y-289469D01*
X197413Y-321045D02*
Y-317558D01*
X186950Y-307095D02*
X197413Y-317558D01*
X193796Y-322595D02*
Y-318163D01*
X183979Y-308347D02*
X193796Y-318163D01*
X190179Y-332929D02*
Y-318888D01*
X180879Y-309588D02*
X190179Y-318888D01*
X180879Y-309588D02*
Y-287621D01*
X187079Y-328666D02*
Y-321556D01*
X176616Y-311094D02*
X187079Y-321556D01*
X176616Y-311094D02*
Y-284384D01*
X157308Y-296808D02*
X158000Y-297500D01*
X153692Y-296808D02*
X157308D01*
X149500Y-301000D02*
X153692Y-296808D01*
X288642Y-367080D02*
X298842Y-356881D01*
X249715Y-382919D02*
X277536Y-355097D01*
X240523Y-367818D02*
X247876Y-375171D01*
X188000Y-374000D02*
Y-367650D01*
X183181Y-374000D02*
Y-369181D01*
Y-375200D02*
Y-374000D01*
X178600Y-376200D02*
X182428Y-375365D01*
X182428D02*
X183181Y-375200D01*
X182428Y-375365D02*
X182428D01*
X216645Y-372855D02*
Y-372855D01*
X220461Y-369039D01*
X208042Y-376335D02*
X209546D01*
X187165Y-394046D02*
X187611D01*
X161665Y-379844D02*
Y-377954D01*
X153607Y-382393D02*
X159855Y-376145D01*
X166954Y-372665D02*
X168289D01*
X165519Y-374100D02*
X166954Y-372665D01*
X189835Y-355500D02*
Y-354454D01*
X183181Y-369181D02*
Y-365919D01*
X189381Y-359719D02*
X190137D01*
X192819Y-362400D01*
Y-369181D02*
Y-362400D01*
X183181Y-382000D02*
X186270Y-385088D01*
X183181Y-382000D02*
Y-378819D01*
X191730Y-385088D02*
X192819Y-378819D01*
X189183Y-385088D02*
X191730D01*
X189183Y-386528D02*
Y-385088D01*
X178600Y-378819D02*
X183181D01*
X178600D02*
Y-376200D01*
X186270Y-385088D02*
X189183D01*
X183181Y-365919D02*
X189381Y-359719D01*
X187611Y-394046D02*
Y-392542D01*
X208042Y-376335D02*
Y-375889D01*
X188900Y-355500D02*
X189835D01*
X188900D02*
Y-354454D01*
X188000Y-367650D02*
X191287D01*
X192819Y-369181D01*
X180488Y-349220D02*
X180511D01*
X180783Y-349492D01*
X184665D01*
X180780Y-341840D02*
X186296Y-347355D01*
X186355D01*
X218454Y-374665D02*
X222262D01*
X223020Y-373906D01*
X220500Y-323000D02*
X223000D01*
X224500Y-324500D01*
Y-327000D02*
Y-324500D01*
Y-327000D02*
X228500Y-331000D01*
X219500Y-323000D02*
X219776D01*
X218500Y-297638D02*
X232862D01*
X233500Y-297000D01*
X246477Y-297523D02*
X248546D01*
X239796Y-331240D02*
X248776D01*
X258224D02*
X260760D01*
X264000Y-328000D01*
X248000Y-302000D02*
X264000D01*
Y-328000D02*
Y-302000D01*
X207500Y-382000D02*
X211355Y-378145D01*
X206500Y-392500D02*
X207500Y-391500D01*
X191645Y-352645D02*
X196000Y-357000D01*
X144538Y-323252D02*
X149500Y-318290D01*
Y-301000D01*
X288258Y-329957D02*
Y-329745D01*
X277536Y-340679D02*
X288258Y-329957D01*
X277536Y-355097D02*
Y-340679D01*
X168289Y-374000D02*
Y-372665D01*
X192819Y-378819D02*
X194923D01*
X175325Y-404876D02*
X182536Y-397665D01*
X157112Y-404876D02*
X175325D01*
X213825Y-379954D02*
X216142Y-382271D01*
X224796D01*
X229575Y-377492D01*
Y-353208D01*
X197413Y-321045D02*
X229575Y-353208D01*
X193454Y-350835D02*
X206196Y-338093D01*
Y-334996D01*
X193796Y-322595D02*
X206196Y-334996D01*
X155175Y-360885D02*
X163335Y-369046D01*
X155175Y-360885D02*
Y-349075D01*
X168608Y-335641D01*
X187467D01*
X190179Y-332929D01*
X167058Y-330733D02*
X185012D01*
X187079Y-328666D01*
X183038Y-433565D02*
Y-432439D01*
X135469Y-329040D02*
X143831Y-337402D01*
X283497Y-302944D02*
X298842Y-318289D01*
Y-356881D02*
Y-318289D01*
X143831Y-395198D02*
Y-337402D01*
X128394Y-308549D02*
X135469Y-315625D01*
Y-329040D02*
Y-315625D01*
X192454Y-399335D02*
X193835D01*
X128394Y-308549D02*
Y-302894D01*
X149000Y-396764D02*
X157112Y-404876D01*
X149000Y-396764D02*
Y-348791D01*
X167058Y-330733D01*
X242000Y-275500D02*
X254000Y-263500D01*
X241500Y-270000D02*
X249000Y-262500D01*
X180879Y-287621D02*
X205000Y-263500D01*
X239500D01*
X245000Y-258000D01*
X176616Y-284384D02*
X202000Y-259000D01*
X236500D01*
X240000Y-255500D01*
X254000Y-263500D02*
Y-233000D01*
X267000Y-220000D01*
X274500D01*
X279500Y-215000D01*
X249000Y-262500D02*
Y-230000D01*
X264000Y-215000D01*
X269500D01*
X245000Y-258000D02*
Y-229000D01*
X264000Y-210000D01*
X275000D01*
X280000Y-205000D01*
X240000Y-255500D02*
Y-227500D01*
X262500Y-205000D01*
X270000D01*
X270500D01*
X218500Y-297638D02*
Y-296500D01*
X225500Y-289500D01*
X280000Y-85500D02*
Y-85000D01*
X275500Y-90000D02*
X280000Y-85500D01*
X219000Y-90000D02*
X275500D01*
X258652Y-110152D02*
X275152D01*
X275000Y-70000D02*
X280000Y-75000D01*
X229500Y-70000D02*
X275000D01*
X22889Y-230428D02*
X34072D01*
X57000Y-207500D01*
Y-184000D01*
X12889Y-230428D02*
X13072D01*
X18000Y-225500D01*
X33500D01*
X53000Y-206000D01*
Y-183500D01*
X22889Y-220428D02*
X33072D01*
X49500Y-204000D01*
Y-181500D01*
X12889Y-220428D02*
X14072D01*
X19000Y-215500D01*
X32500D01*
X45000Y-203000D01*
X22889Y-210428D02*
X32572D01*
X42000Y-201000D01*
X12889Y-210428D02*
X13572D01*
X19000Y-205000D01*
X31500D01*
X39000Y-197500D01*
X22889Y-200428D02*
X31572D01*
X35000Y-197000D01*
X22889Y-190428D02*
X29572D01*
X31000Y-189000D01*
X57000Y-184000D02*
X66000Y-175000D01*
X80000D01*
X91000Y-174000D02*
Y-172804D01*
X49500Y-181500D02*
X66500Y-164500D01*
X79000D01*
X79500Y-165000D01*
X45000Y-203000D02*
Y-179500D01*
X69000Y-155500D01*
X80000D01*
X42000Y-201000D02*
Y-174500D01*
X71500Y-145000D01*
X80000D01*
X39000Y-197500D02*
Y-167000D01*
X71500Y-134500D01*
X79500D01*
X15350Y-123500D02*
Y-115350D01*
X14500Y-114500D02*
X15350Y-115350D01*
X229224Y-336276D02*
Y-330740D01*
X228500Y-337000D02*
X229224Y-336276D01*
X194010Y-404510D02*
X194454D01*
X190645Y-401145D02*
X194010Y-404510D01*
D31*
X85137Y-69863D02*
X90000Y-65000D01*
X27500Y-109000D02*
X66608Y-69892D01*
X214835Y-371080D02*
Y-371046D01*
X162784Y-170784D02*
X178500Y-186500D01*
X148284Y-170784D02*
X162784D01*
X92500Y-115000D02*
X148284Y-170784D01*
X128000Y-186000D02*
X155234D01*
X125000Y-196000D02*
X154066Y-195680D01*
X122500Y-206000D02*
X152480Y-206225D01*
X131358Y-175858D02*
X151053Y-175699D01*
X124000Y-168500D02*
X131358Y-175858D01*
X48106Y-40000D02*
X99000D01*
X43746Y-35640D02*
X48106Y-40000D01*
X31319Y-35640D02*
X43746D01*
X35037Y-35500D02*
X35177Y-35640D01*
X24630Y-42329D02*
X31319Y-35640D01*
X24630Y-59715D02*
Y-42329D01*
X29135Y-64220D02*
X31735D01*
X24630Y-59715D02*
X29135Y-64220D01*
X65696Y-6196D02*
X69500Y-10000D01*
X19804Y-6196D02*
X65696D01*
X16000Y-10000D02*
X19804Y-6196D01*
X27500Y-118500D02*
Y-109000D01*
X22500Y-123500D02*
X27500Y-118500D01*
X328500Y-404209D02*
Y-333500D01*
X304208Y-428500D02*
X328500Y-404209D01*
X207500Y-428500D02*
X304208D01*
X115092Y-435500D02*
X137772Y-412819D01*
X75150Y-435500D02*
X115092D01*
X268738Y-329713D02*
X279442D01*
X203500Y-305000D02*
Y-303788D01*
X194447D02*
X203500D01*
X193021Y-302362D02*
X194447Y-303788D01*
X142152Y-297152D02*
X142500Y-297500D01*
X128986Y-297152D02*
X142152D01*
X128500Y-297638D02*
X128986Y-297152D01*
X188000Y-356289D02*
X189806Y-354483D01*
X214500Y-331000D02*
X221000D01*
X209500Y-326000D02*
X214500Y-331000D01*
X209500Y-326000D02*
Y-311000D01*
X203500Y-305000D02*
X209500Y-311000D01*
X218500Y-307000D02*
Y-302362D01*
X214000Y-325500D02*
Y-311500D01*
Y-325500D02*
X215500Y-327000D01*
X219776D01*
X220000D01*
X165145Y-370855D02*
X170500Y-365500D01*
X181500Y-392000D02*
X185355Y-395855D01*
X143500Y-311000D02*
Y-302362D01*
X138500Y-316000D02*
X143500Y-311000D01*
X138500Y-327121D02*
Y-316000D01*
Y-327121D02*
X141323Y-329944D01*
X128770Y-281317D02*
Y-281094D01*
X203500Y-297638D02*
X208502D01*
X210506Y-299642D01*
Y-303182D02*
Y-299642D01*
Y-303182D02*
X215875Y-308551D01*
X214000Y-311500D02*
X216500Y-309000D01*
X218500Y-307000D01*
X171320Y-323241D02*
Y-305933D01*
X169254Y-303866D02*
X171320Y-305933D01*
X93741Y-413625D02*
Y-399419D01*
X121477Y-288609D02*
X128770Y-281317D01*
X173038Y-423565D02*
Y-423038D01*
X123826Y-302583D02*
X128288D01*
X121477Y-300478D02*
Y-300235D01*
Y-300478D02*
X123500Y-302500D01*
X121477Y-300235D02*
Y-288609D01*
X48712Y-423000D02*
X49712Y-422000D01*
X85366D01*
X93741Y-413625D01*
X48850Y-435150D02*
Y-428000D01*
X48712Y-429500D02*
Y-423000D01*
Y-416881D01*
X69000Y-427000D02*
X69500Y-426500D01*
X55150Y-427000D02*
X68850D01*
X69000D01*
X75000Y-435500D02*
X75150D01*
X223038Y-423565D02*
Y-420962D01*
X228500Y-415500D01*
X307500D01*
X203038Y-433565D02*
X205000Y-431603D01*
Y-431000D01*
X207500Y-428500D01*
X348500Y-197500D02*
X361000D01*
X348000Y-198000D02*
X348500Y-197500D01*
X338000Y-201500D02*
Y-197150D01*
Y-201500D02*
X343500Y-207000D01*
X359500D01*
X45447Y-52947D02*
X45500Y-53000D01*
X338000Y-190500D02*
X338350Y-190850D01*
X348000D01*
X307500Y-415500D02*
X323500Y-399500D01*
Y-293000D01*
X355650Y-245350D02*
X355850D01*
Y-238000D01*
X363650Y-115150D02*
Y-108500D01*
X275152Y-110152D02*
X280000Y-115000D01*
X287500Y-145000D02*
X310500Y-168000D01*
X279500Y-145000D02*
X280000D01*
X287500D01*
X322000Y-22500D02*
Y-18000D01*
X334500Y-26500D02*
Y-17500D01*
X334000Y-17000D02*
X334500Y-17500D01*
X334000Y-11350D02*
X345150D01*
X311850D02*
X322000D01*
X311000Y-10500D02*
X311850Y-11350D01*
X306650Y-17150D02*
X310500D01*
X301604Y-12104D02*
X306650Y-17150D01*
X346000D02*
X354150D01*
X360500Y-23500D01*
X50000Y-24500D02*
Y-18650D01*
X49500Y-25000D02*
X50000Y-24500D01*
X37500Y-18650D02*
Y-18500D01*
X50000Y-12350D02*
X59150D01*
X61000Y-17650D02*
X66350D01*
X69500Y-14500D01*
X24500Y-12000D02*
X24850Y-12350D01*
X37500D01*
X25000Y-24000D02*
X28500Y-27500D01*
X91000Y-154500D02*
X107000Y-170500D01*
X92000Y-146500D02*
X111500Y-166000D01*
X91000Y-135000D02*
X117000Y-161000D01*
X124000Y-168500D02*
Y-157500D01*
X90500Y-124000D02*
X124000Y-157500D01*
X90500Y-165500D02*
X91500D01*
X101500Y-175500D01*
X258500Y-115000D02*
X270000D01*
X248000Y-110500D02*
X259500D01*
X69500Y-14500D02*
Y-10000D01*
X25000Y-18500D02*
X25500Y-19000D01*
X25000Y-24000D02*
Y-18500D01*
Y-17650D01*
X16000Y-14000D02*
Y-10000D01*
X24000Y-17500D02*
X25000Y-18500D01*
X16000Y-14000D02*
X19500Y-17500D01*
X24000D01*
X61000Y-26000D02*
Y-17650D01*
X37500Y-21500D02*
Y-18650D01*
X57000Y-34500D02*
X66500D01*
X53000Y-30500D02*
X57000Y-34500D01*
X46500Y-30500D02*
X53000D01*
X37500Y-21500D02*
X46500Y-30500D01*
X99000Y-40000D02*
X106000Y-47000D01*
Y-68500D02*
Y-47000D01*
X90000Y-84500D02*
X106000Y-68500D01*
X90000Y-56000D02*
Y-55000D01*
X86000Y-60000D02*
X90000Y-56000D01*
X70500Y-60000D02*
X86000D01*
X90000Y-75500D02*
Y-75000D01*
X14350Y-261150D02*
Y-253500D01*
X13500Y-262000D02*
X14350Y-261150D01*
X19650Y-271350D02*
Y-262000D01*
X14500Y-276500D02*
X19650Y-271350D01*
X20650Y-253500D02*
X61000D01*
X71500Y-243000D01*
X85000Y-190000D02*
X89500Y-185500D01*
X71500Y-243000D02*
Y-193000D01*
X74500Y-190000D01*
X85000D01*
X139500Y-262000D02*
X161500D01*
X103500Y-298000D02*
X139500Y-262000D01*
X103500Y-304500D02*
Y-298000D01*
X20650Y-114500D02*
Y-88850D01*
X28500Y-81000D01*
X42000Y-74000D02*
X56500D01*
X70500Y-60000D01*
X260638Y-297638D02*
X265720D01*
X256500Y-293500D02*
X260638Y-297638D01*
X246113Y-327113D02*
X249397D01*
X243500Y-324500D02*
X246113Y-327113D01*
X155299Y-166000D02*
X207000D01*
X258500Y-114500D01*
X153411Y-156000D02*
X202500D01*
X248000Y-110500D01*
X161500Y-262000D02*
X178500Y-245000D01*
Y-186500D01*
X117000Y-175000D02*
X128000Y-186000D01*
X117000Y-175000D02*
Y-161000D01*
X111500Y-182500D02*
Y-166000D01*
Y-182500D02*
X125000Y-196000D01*
X107000Y-190500D02*
Y-170500D01*
Y-190500D02*
X122500Y-206000D01*
X101500Y-194000D02*
Y-175500D01*
Y-194000D02*
X123500Y-216000D01*
X156000D01*
X90000Y-115000D02*
X92500D01*
D32*
X343868Y-54707D02*
X348821D01*
X352969Y-58855D01*
Y-69087D02*
Y-58855D01*
X344268Y-76972D02*
X352152Y-69087D01*
X269500Y-45000D02*
X306291D01*
X309116Y-76972D02*
X334268D01*
D33*
X36593Y-52947D02*
X45447D01*
X41793Y-412208D02*
X44000Y-410000D01*
X41793Y-440793D02*
Y-412208D01*
Y-440793D02*
X43500Y-442500D01*
X333867Y-413214D02*
Y-394737D01*
X304581Y-442500D02*
X333867Y-413214D01*
X193094Y-294627D02*
X206720Y-281000D01*
X183181Y-374000D02*
X188000D01*
Y-367650D02*
Y-356289D01*
X187611Y-388100D02*
X189183Y-386528D01*
X204100Y-375889D02*
X208042D01*
X187611Y-392542D02*
Y-388100D01*
X168289Y-374000D02*
X183181D01*
X202732Y-374521D02*
X204100Y-375889D01*
X193021Y-374521D02*
X202732D01*
X233038Y-439962D02*
Y-433565D01*
X44000Y-410000D02*
X81500D01*
X43500Y-442500D02*
X230500D01*
X233038Y-439962D01*
X45500Y-53000D02*
X53000D01*
X206720Y-281000D02*
X248000D01*
X252000Y-277000D01*
X230500Y-442500D02*
X304581D01*
X200250Y-99250D02*
X229500Y-70000D01*
X211000Y-98000D02*
X219000Y-90000D01*
D34*
X98444Y-427000D02*
X122939Y-402505D01*
X229224Y-323260D02*
Y-317224D01*
X226500Y-314500D02*
X229224Y-317224D01*
X258224Y-322782D02*
Y-317224D01*
X255500Y-314500D02*
X258224Y-317224D01*
X285821Y-313875D02*
X288545Y-316599D01*
Y-322157D02*
Y-316599D01*
X75150Y-427000D02*
X98444D01*
D35*
X207500Y-391500D02*
Y-382000D01*
X170500Y-365500D02*
Y-356500D01*
X171000Y-392000D02*
X181500D01*
X196000Y-357000D02*
X206000D01*
D36*
X144552Y-331588D02*
X145315Y-332351D01*
X144552Y-331588D02*
Y-330853D01*
X144538Y-328980D02*
Y-323252D01*
X145291Y-332367D02*
X149095D01*
X158500Y-322461D02*
Y-302362D01*
X158533Y-323241D02*
X166321D01*
X158478Y-323058D02*
Y-322983D01*
X149095Y-332367D02*
X158478Y-322983D01*
X182536Y-397665D02*
X183546D01*
X213165Y-379954D02*
X213825D01*
D37*
X309116Y-46506D02*
X316500Y-39121D01*
D38*
X275000Y-275000D02*
D03*
X311000Y-188000D02*
D03*
X101000Y-101000D02*
D03*
X65000Y-188000D02*
D03*
X101000Y-275000D02*
D03*
D39*
X280000Y-225000D02*
D03*
Y-25000D02*
D03*
X90000Y-225000D02*
D03*
Y-25000D02*
D03*
X54000Y-63000D02*
D03*
X361000Y-177500D02*
D03*
D40*
X270000Y-225000D02*
D03*
X280000Y-235000D02*
D03*
X270000D02*
D03*
X280000Y-245000D02*
D03*
X270000D02*
D03*
Y-215000D02*
D03*
X280000D02*
D03*
X270000Y-205000D02*
D03*
X280000D02*
D03*
X270000Y-195000D02*
D03*
X280000D02*
D03*
X270000Y-185000D02*
D03*
X280000D02*
D03*
X270000Y-175000D02*
D03*
X280000D02*
D03*
X270000Y-165000D02*
D03*
X280000D02*
D03*
X270000Y-155000D02*
D03*
X280000D02*
D03*
X270000Y-145000D02*
D03*
X280000D02*
D03*
X270000Y-135000D02*
D03*
X280000D02*
D03*
X270000Y-125000D02*
D03*
X280000D02*
D03*
X270000Y-85000D02*
D03*
X280000D02*
D03*
X270000Y-75000D02*
D03*
X280000D02*
D03*
X270000Y-65000D02*
D03*
X280000D02*
D03*
X270000Y-55000D02*
D03*
X280000D02*
D03*
X270000Y-45000D02*
D03*
X280000D02*
D03*
X270000Y-35000D02*
D03*
X280000D02*
D03*
X270000Y-25000D02*
D03*
X280000Y-95000D02*
D03*
X270000D02*
D03*
X280000Y-105000D02*
D03*
X270000D02*
D03*
X280000Y-115000D02*
D03*
X270000D02*
D03*
X80000Y-225000D02*
D03*
X90000Y-235000D02*
D03*
X80000D02*
D03*
X90000Y-245000D02*
D03*
X80000D02*
D03*
Y-215000D02*
D03*
X90000D02*
D03*
X80000Y-205000D02*
D03*
X90000D02*
D03*
X80000Y-195000D02*
D03*
X90000D02*
D03*
X80000Y-185000D02*
D03*
X90000D02*
D03*
X80000Y-175000D02*
D03*
X90000D02*
D03*
X80000Y-165000D02*
D03*
X90000D02*
D03*
X80000Y-155000D02*
D03*
X90000D02*
D03*
X80000Y-145000D02*
D03*
X90000D02*
D03*
X80000Y-135000D02*
D03*
X90000D02*
D03*
X80000Y-125000D02*
D03*
X90000D02*
D03*
X80000Y-85000D02*
D03*
X90000D02*
D03*
X80000Y-75000D02*
D03*
X90000D02*
D03*
X80000Y-65000D02*
D03*
X90000D02*
D03*
X80000Y-55000D02*
D03*
X90000D02*
D03*
X80000Y-45000D02*
D03*
X90000D02*
D03*
X80000Y-35000D02*
D03*
X90000D02*
D03*
X80000Y-25000D02*
D03*
X90000Y-95000D02*
D03*
X80000D02*
D03*
X90000Y-105000D02*
D03*
X80000D02*
D03*
X90000Y-115000D02*
D03*
X80000D02*
D03*
X54000Y-53000D02*
D03*
X344268Y-76972D02*
D03*
X361000Y-187500D02*
D03*
Y-197500D02*
D03*
Y-207500D02*
D03*
D41*
X249186Y-366531D02*
D03*
Y-374405D02*
D03*
Y-382279D02*
D03*
Y-390153D02*
D03*
Y-398027D02*
D03*
D42*
Y-405901D02*
D03*
D43*
X343000Y-44500D02*
D03*
Y-417500D02*
D03*
X31500Y-437500D02*
D03*
X32104Y-64319D02*
D03*
D44*
X343000Y-54500D02*
D03*
Y-64500D02*
D03*
Y-427500D02*
D03*
Y-437500D02*
D03*
X31500Y-427500D02*
D03*
Y-417500D02*
D03*
X32104Y-54318D02*
D03*
Y-44319D02*
D03*
D45*
X334268Y-76972D02*
D03*
D46*
X188500Y-374500D02*
D03*
D47*
X176321Y-323241D02*
D03*
D48*
X171320D02*
D03*
D49*
X166321D02*
D03*
D50*
X156299Y-215831D02*
D03*
Y-205831D02*
D03*
Y-195831D02*
D03*
Y-185831D02*
D03*
Y-175831D02*
D03*
Y-165831D02*
D03*
Y-155831D02*
D03*
Y-145831D02*
D03*
Y-135831D02*
D03*
D51*
Y-125831D02*
D03*
D52*
X168008Y-354287D02*
D03*
X208475Y-394367D02*
D03*
Y-354287D02*
D03*
X167233Y-394625D02*
D03*
D53*
X12889Y-230428D02*
D03*
X22889D02*
D03*
X12889Y-220428D02*
D03*
X22889D02*
D03*
X12889Y-210428D02*
D03*
X22889D02*
D03*
X12889Y-200428D02*
D03*
X22889D02*
D03*
X12889Y-190428D02*
D03*
X22889D02*
D03*
X12889Y-180428D02*
D03*
X22889D02*
D03*
X12889Y-170428D02*
D03*
X22889D02*
D03*
X12889Y-160428D02*
D03*
X22889D02*
D03*
X12889Y-150428D02*
D03*
X22889D02*
D03*
D54*
X233038Y-433565D02*
D03*
Y-423565D02*
D03*
X223038Y-433565D02*
D03*
Y-423565D02*
D03*
X213038Y-433565D02*
D03*
Y-423565D02*
D03*
X203038Y-433565D02*
D03*
Y-423565D02*
D03*
X193038Y-433565D02*
D03*
Y-423565D02*
D03*
X183038Y-433565D02*
D03*
Y-423565D02*
D03*
X173038Y-433565D02*
D03*
Y-423565D02*
D03*
X163038Y-433565D02*
D03*
Y-423565D02*
D03*
X153038Y-433565D02*
D03*
Y-423565D02*
D03*
D55*
X203190Y-405790D02*
D03*
X182390Y-407276D02*
D03*
X154162Y-381647D02*
D03*
X193161Y-340977D02*
D03*
X220090Y-363633D02*
D03*
X213974Y-368703D02*
D03*
X180138Y-341880D02*
D03*
X193560Y-405060D02*
D03*
X161102Y-382446D02*
D03*
X180488Y-349220D02*
D03*
X153976Y-369576D02*
D03*
X216500Y-309000D02*
D03*
D56*
X323882Y-292275D02*
D03*
X301872Y-10999D02*
D03*
X333494Y-394737D02*
D03*
X123750Y-403085D02*
D03*
X238230Y-333281D02*
D03*
X269095Y-329951D02*
D03*
X223280Y-374125D02*
D03*
X226500Y-314500D02*
D03*
X255500D02*
D03*
X285821Y-313875D02*
D03*
X244146Y-312404D02*
D03*
X149452Y-318606D02*
D03*
X283221Y-303128D02*
D03*
X121000Y-289500D02*
D03*
X289000Y-366000D02*
D03*
X48500Y-422500D02*
D03*
X226000Y-289000D02*
D03*
X252000Y-277000D02*
D03*
X328500Y-332500D02*
D03*
X356000Y-245000D02*
D03*
X364500Y-115500D02*
D03*
X310500Y-168000D02*
D03*
X322000Y-22500D02*
D03*
X334500Y-26500D02*
D03*
X361500Y-24500D02*
D03*
X50000Y-25000D02*
D03*
X28500Y-27500D02*
D03*
X66500Y-34500D02*
D03*
X60500Y-26000D02*
D03*
X316500Y-36000D02*
D03*
X210500Y-99000D02*
D03*
X200500Y-100000D02*
D03*
X46000Y-309500D02*
D03*
X19000Y-316000D02*
D03*
X15000Y-299000D02*
D03*
X89500Y-329500D02*
D03*
X14000Y-276000D02*
D03*
X33500Y-287500D02*
D03*
X103000Y-303000D02*
D03*
X29000Y-81000D02*
D03*
X42000Y-74000D02*
D03*
X229000Y-337000D02*
D03*
X256000Y-293500D02*
D03*
X242500Y-324000D02*
D03*
M02*
