%FSLAX25Y25*%
%MOIN*%
G70*
G01*
G75*
G04 Layer_Physical_Order=3*
G04 Layer_Color=16440176*
%ADD10R,0.03740X0.03937*%
%ADD11P,0.04454X4X90.0*%
G04:AMPARAMS|DCode=12|XSize=37.4mil|YSize=39.37mil|CornerRadius=0mil|HoleSize=0mil|Usage=FLASHONLY|Rotation=315.000|XOffset=0mil|YOffset=0mil|HoleType=Round|Shape=Rectangle|*
%AMROTATEDRECTD12*
4,1,4,-0.02714,-0.00070,0.00070,0.02714,0.02714,0.00070,-0.00070,-0.02714,-0.02714,-0.00070,0.0*
%
%ADD12ROTATEDRECTD12*%

%ADD13R,0.04200X0.02500*%
G04:AMPARAMS|DCode=14|XSize=106.3mil|YSize=62.99mil|CornerRadius=0mil|HoleSize=0mil|Usage=FLASHONLY|Rotation=225.000|XOffset=0mil|YOffset=0mil|HoleType=Round|Shape=Rectangle|*
%AMROTATEDRECTD14*
4,1,4,0.01531,0.05985,0.05985,0.01531,-0.01531,-0.05985,-0.05985,-0.01531,0.01531,0.05985,0.0*
%
%ADD14ROTATEDRECTD14*%

G04:AMPARAMS|DCode=15|XSize=106.3mil|YSize=62.99mil|CornerRadius=0mil|HoleSize=0mil|Usage=FLASHONLY|Rotation=315.000|XOffset=0mil|YOffset=0mil|HoleType=Round|Shape=Rectangle|*
%AMROTATEDRECTD15*
4,1,4,-0.05985,0.01531,-0.01531,0.05985,0.05985,-0.01531,0.01531,-0.05985,-0.05985,0.01531,0.0*
%
%ADD15ROTATEDRECTD15*%

G04:AMPARAMS|DCode=16|XSize=15.75mil|YSize=33.47mil|CornerRadius=0mil|HoleSize=0mil|Usage=FLASHONLY|Rotation=135.000|XOffset=0mil|YOffset=0mil|HoleType=Round|Shape=Rectangle|*
%AMROTATEDRECTD16*
4,1,4,0.01740,0.00626,-0.00626,-0.01740,-0.01740,-0.00626,0.00626,0.01740,0.01740,0.00626,0.0*
%
%ADD16ROTATEDRECTD16*%

G04:AMPARAMS|DCode=17|XSize=15.75mil|YSize=33.47mil|CornerRadius=0mil|HoleSize=0mil|Usage=FLASHONLY|Rotation=225.000|XOffset=0mil|YOffset=0mil|HoleType=Round|Shape=Rectangle|*
%AMROTATEDRECTD17*
4,1,4,-0.00626,0.01740,0.01740,-0.00626,0.00626,-0.01740,-0.01740,0.00626,-0.00626,0.01740,0.0*
%
%ADD17ROTATEDRECTD17*%

%ADD18R,0.04331X0.02559*%
%ADD19R,0.03150X0.03150*%
%ADD20O,0.03937X0.09843*%
%ADD21O,0.09843X0.03937*%
%ADD22R,0.03937X0.09843*%
%ADD23R,0.03150X0.03150*%
%ADD24R,0.03937X0.03740*%
%ADD25R,0.03602X0.04803*%
%ADD26R,0.15000X0.11000*%
%ADD27R,0.01024X0.00630*%
%ADD28R,0.01024X0.02008*%
%ADD29C,0.01500*%
%ADD30C,0.02000*%
%ADD31C,0.07500*%
%ADD32C,0.04000*%
%ADD33C,0.03000*%
%ADD34C,0.02500*%
%ADD35C,0.05000*%
%ADD36C,0.01000*%
%ADD37C,0.10000*%
%ADD38C,0.11800*%
%ADD39R,0.06496X0.06496*%
%ADD40C,0.06496*%
%ADD41O,0.10000X0.06000*%
%ADD42R,0.10000X0.05500*%
%ADD43R,0.06693X0.06693*%
%ADD44C,0.06693*%
%ADD45R,0.06496X0.06496*%
%ADD46C,0.28000*%
%ADD47R,0.04000X0.07874*%
%ADD48O,0.04000X0.07874*%
%ADD49O,0.03937X0.07874*%
%ADD50O,0.09843X0.06000*%
%ADD51R,0.09843X0.06000*%
%ADD52C,0.16000*%
%ADD53R,0.06000X0.06000*%
%ADD54R,0.06000X0.06000*%
%ADD55C,0.04000*%
%ADD56C,0.05000*%
%ADD57C,0.04500*%
G36*
X363000Y-6000D02*
X363000D01*
X363000Y-6000D01*
Y-20409D01*
X362750Y-20628D01*
Y-24500D01*
Y-28372D01*
X363000Y-28591D01*
Y-112333D01*
X362735Y-112443D01*
X362004Y-113004D01*
X361443Y-113735D01*
X361229Y-114250D01*
X364500D01*
Y-116750D01*
X361229D01*
X361443Y-117265D01*
X362004Y-117996D01*
X362735Y-118557D01*
X363000Y-118667D01*
Y-171252D01*
X354752D01*
Y-183748D01*
X354948D01*
X355462Y-184606D01*
X355200Y-185097D01*
X354842Y-186275D01*
X354722Y-187500D01*
X354842Y-188725D01*
X355200Y-189903D01*
X355780Y-190988D01*
X356561Y-191939D01*
X356634Y-192000D01*
Y-193000D01*
X356561Y-193061D01*
X355780Y-194012D01*
X355200Y-195097D01*
X354842Y-196275D01*
X354722Y-197500D01*
X354842Y-198725D01*
X355200Y-199903D01*
X355780Y-200988D01*
X356561Y-201939D01*
X357512Y-202720D01*
X358313Y-203148D01*
X358383Y-204007D01*
X358325Y-204198D01*
X357970Y-204470D01*
X357289Y-205358D01*
X356920Y-206250D01*
X361000D01*
Y-207500D01*
X362250D01*
Y-211668D01*
X363000Y-212170D01*
Y-441500D01*
X346791D01*
X346100Y-440600D01*
X346797Y-439692D01*
X347187Y-438750D01*
X338813D01*
X339203Y-439692D01*
X339900Y-440600D01*
X339209Y-441500D01*
X37846D01*
Y-431153D01*
X37716D01*
X37202Y-430296D01*
X37392Y-429940D01*
X37755Y-428744D01*
X37877Y-427500D01*
X37755Y-426256D01*
X37392Y-425060D01*
X36802Y-423957D01*
X36009Y-422991D01*
X35043Y-422198D01*
X34368Y-421837D01*
X34287Y-420840D01*
X34600Y-420600D01*
X35297Y-419692D01*
X35687Y-418750D01*
X27313D01*
X27703Y-419692D01*
X28400Y-420600D01*
X28713Y-420840D01*
X28632Y-421837D01*
X27957Y-422198D01*
X26991Y-422991D01*
X26198Y-423957D01*
X25608Y-425060D01*
X25245Y-426256D01*
X25123Y-427500D01*
X25245Y-428744D01*
X25608Y-429940D01*
X25798Y-430296D01*
X25284Y-431153D01*
X25154D01*
Y-441500D01*
X13000D01*
X10530Y-443970D01*
X9337D01*
X9104Y-443407D01*
X9058Y-442942D01*
X11500Y-440500D01*
Y-304403D01*
X12331Y-303848D01*
X13564Y-304358D01*
X15000Y-304548D01*
X16436Y-304358D01*
X17774Y-303804D01*
X18923Y-302923D01*
X19804Y-301774D01*
X20358Y-300436D01*
X20548Y-299000D01*
X20358Y-297564D01*
X19804Y-296226D01*
X18923Y-295077D01*
X17774Y-294196D01*
X16436Y-293642D01*
X15000Y-293453D01*
X13564Y-293642D01*
X12331Y-294152D01*
X11500Y-293597D01*
Y-280015D01*
X12070Y-279272D01*
X12331Y-279097D01*
X12750Y-279271D01*
Y-276000D01*
Y-272729D01*
X12331Y-272903D01*
X12070Y-272728D01*
X11500Y-271985D01*
Y-236428D01*
X28889D01*
Y-226428D01*
Y-216428D01*
Y-206428D01*
Y-196428D01*
Y-186428D01*
Y-176428D01*
Y-166428D01*
Y-156428D01*
Y-144428D01*
X16889D01*
Y-146428D01*
X14139D01*
Y-150428D01*
X11639D01*
Y-146428D01*
X11500D01*
Y-5500D01*
X131470D01*
Y-27500D01*
X131590Y-28414D01*
X131943Y-29265D01*
X132504Y-29996D01*
X133235Y-30557D01*
X134086Y-30910D01*
X135000Y-31030D01*
X148500D01*
Y-33000D01*
X228500D01*
X230500Y-35000D01*
X234000Y-31500D01*
Y-5500D01*
X362793D01*
X363000Y-6000D01*
D02*
G37*
%LPC*%
G36*
X217750Y-306271D02*
Y-307750D01*
X219229D01*
X219121Y-307487D01*
X218640Y-306860D01*
X218013Y-306380D01*
X217750Y-306271D01*
D02*
G37*
G36*
X103000Y-297452D02*
X101564Y-297642D01*
X100226Y-298196D01*
X99077Y-299077D01*
X98196Y-300226D01*
X97642Y-301564D01*
X97452Y-303000D01*
X97642Y-304436D01*
X98196Y-305774D01*
X99077Y-306923D01*
X100226Y-307804D01*
X101564Y-308358D01*
X103000Y-308547D01*
X104436Y-308358D01*
X105774Y-307804D01*
X106923Y-306923D01*
X107804Y-305774D01*
X108358Y-304436D01*
X108547Y-303000D01*
X108358Y-301564D01*
X107804Y-300226D01*
X106923Y-299077D01*
X105774Y-298196D01*
X104436Y-297642D01*
X103000Y-297452D01*
D02*
G37*
G36*
X215250Y-306271D02*
X214987Y-306380D01*
X214360Y-306860D01*
X213879Y-307487D01*
X213771Y-307750D01*
X215250D01*
Y-306271D01*
D02*
G37*
G36*
X281971Y-299857D02*
X281456Y-300071D01*
X280725Y-300632D01*
X280164Y-301363D01*
X279950Y-301878D01*
X281971D01*
Y-299857D01*
D02*
G37*
G36*
X284471D02*
Y-301878D01*
X286492D01*
X286278Y-301363D01*
X285717Y-300632D01*
X284986Y-300071D01*
X284471Y-299857D01*
D02*
G37*
G36*
X281971Y-304378D02*
X279950D01*
X280164Y-304893D01*
X280725Y-305624D01*
X281456Y-306185D01*
X281971Y-306399D01*
Y-304378D01*
D02*
G37*
G36*
X286492D02*
X284471D01*
Y-306399D01*
X284986Y-306185D01*
X285717Y-305624D01*
X286278Y-304893D01*
X286492Y-304378D01*
D02*
G37*
G36*
X219229Y-310250D02*
X217750D01*
Y-311729D01*
X218013Y-311620D01*
X218640Y-311140D01*
X219121Y-310513D01*
X219229Y-310250D01*
D02*
G37*
G36*
X244146Y-306856D02*
X242710Y-307045D01*
X241373Y-307599D01*
X240224Y-308481D01*
X239342Y-309630D01*
X238788Y-310968D01*
X238599Y-312404D01*
X238788Y-313839D01*
X239342Y-315177D01*
X240224Y-316326D01*
X241373Y-317208D01*
X242710Y-317762D01*
X244146Y-317951D01*
X245582Y-317762D01*
X246920Y-317208D01*
X248069Y-316326D01*
X248951Y-315177D01*
X249039Y-314963D01*
X250031Y-315094D01*
X250142Y-315936D01*
X250696Y-317274D01*
X251577Y-318423D01*
X252726Y-319304D01*
X254064Y-319858D01*
X255500Y-320047D01*
X256936Y-319858D01*
X258274Y-319304D01*
X259423Y-318423D01*
X260304Y-317274D01*
X260858Y-315936D01*
X261048Y-314500D01*
X260858Y-313064D01*
X260304Y-311726D01*
X259423Y-310577D01*
X258274Y-309696D01*
X256936Y-309142D01*
X255500Y-308952D01*
X254064Y-309142D01*
X252726Y-309696D01*
X251577Y-310577D01*
X250696Y-311726D01*
X250607Y-311941D01*
X249616Y-311810D01*
X249505Y-310968D01*
X248951Y-309630D01*
X248069Y-308481D01*
X246920Y-307599D01*
X245582Y-307045D01*
X244146Y-306856D01*
D02*
G37*
G36*
X226500Y-308952D02*
X225064Y-309142D01*
X223726Y-309696D01*
X222577Y-310577D01*
X221696Y-311726D01*
X221142Y-313064D01*
X220953Y-314500D01*
X221142Y-315936D01*
X221696Y-317274D01*
X222577Y-318423D01*
X223726Y-319304D01*
X225064Y-319858D01*
X226500Y-320047D01*
X227936Y-319858D01*
X229274Y-319304D01*
X230423Y-318423D01*
X231304Y-317274D01*
X231858Y-315936D01*
X232048Y-314500D01*
X231858Y-313064D01*
X231304Y-311726D01*
X230423Y-310577D01*
X229274Y-309696D01*
X227936Y-309142D01*
X226500Y-308952D01*
D02*
G37*
G36*
X19000Y-310453D02*
X17564Y-310642D01*
X16226Y-311196D01*
X15077Y-312077D01*
X14196Y-313226D01*
X13642Y-314564D01*
X13453Y-316000D01*
X13642Y-317436D01*
X14196Y-318774D01*
X15077Y-319923D01*
X16226Y-320804D01*
X17564Y-321358D01*
X19000Y-321548D01*
X20436Y-321358D01*
X21774Y-320804D01*
X22923Y-319923D01*
X23804Y-318774D01*
X24358Y-317436D01*
X24547Y-316000D01*
X24358Y-314564D01*
X23804Y-313226D01*
X22923Y-312077D01*
X21774Y-311196D01*
X20436Y-310642D01*
X19000Y-310453D01*
D02*
G37*
G36*
X285821Y-308327D02*
X284385Y-308516D01*
X283047Y-309071D01*
X281898Y-309952D01*
X281017Y-311101D01*
X280463Y-312439D01*
X280274Y-313875D01*
X280463Y-315311D01*
X281017Y-316649D01*
X281898Y-317797D01*
X283047Y-318679D01*
X284385Y-319233D01*
X285821Y-319422D01*
X287257Y-319233D01*
X288595Y-318679D01*
X289744Y-317797D01*
X290625Y-316649D01*
X291179Y-315311D01*
X291369Y-313875D01*
X291179Y-312439D01*
X290625Y-311101D01*
X289744Y-309952D01*
X288595Y-309071D01*
X287257Y-308516D01*
X285821Y-308327D01*
D02*
G37*
G36*
X215250Y-310250D02*
X213771D01*
X213879Y-310513D01*
X214360Y-311140D01*
X214987Y-311620D01*
X215250Y-311729D01*
Y-310250D01*
D02*
G37*
G36*
X46000Y-303953D02*
X44564Y-304142D01*
X43226Y-304696D01*
X42077Y-305577D01*
X41196Y-306726D01*
X40642Y-308064D01*
X40453Y-309500D01*
X40642Y-310936D01*
X41196Y-312274D01*
X42077Y-313423D01*
X43226Y-314304D01*
X44564Y-314858D01*
X46000Y-315048D01*
X47436Y-314858D01*
X48774Y-314304D01*
X49923Y-313423D01*
X50804Y-312274D01*
X51358Y-310936D01*
X51547Y-309500D01*
X51358Y-308064D01*
X50804Y-306726D01*
X49923Y-305577D01*
X48774Y-304696D01*
X47436Y-304142D01*
X46000Y-303953D01*
D02*
G37*
G36*
X171320Y-316261D02*
X170015Y-316433D01*
X168817Y-316929D01*
X167618Y-316432D01*
X166321Y-316261D01*
X165024Y-316432D01*
X163815Y-316933D01*
X162777Y-317729D01*
X161980Y-318767D01*
X161480Y-319976D01*
X161309Y-321273D01*
Y-325210D01*
X161480Y-326507D01*
X161980Y-327715D01*
X162777Y-328753D01*
X163815Y-329550D01*
X165024Y-330050D01*
X166321Y-330221D01*
X167618Y-330050D01*
X168817Y-329553D01*
X170015Y-330049D01*
X171320Y-330221D01*
X172626Y-330049D01*
X173842Y-329546D01*
X174887Y-328744D01*
X175321Y-328178D01*
X179321D01*
Y-318304D01*
X175321D01*
X174887Y-317738D01*
X173842Y-316937D01*
X172626Y-316433D01*
X171320Y-316261D01*
D02*
G37*
G36*
X122250Y-286229D02*
Y-288250D01*
X124271D01*
X124057Y-287735D01*
X123496Y-287004D01*
X122765Y-286443D01*
X122250Y-286229D01*
D02*
G37*
G36*
X101000Y-266057D02*
X99255Y-266229D01*
X97578Y-266738D01*
X96031Y-267564D01*
X94676Y-268676D01*
X93564Y-270031D01*
X92738Y-271578D01*
X92229Y-273255D01*
X92057Y-275000D01*
X92229Y-276745D01*
X92738Y-278422D01*
X93564Y-279969D01*
X94676Y-281324D01*
X96031Y-282436D01*
X97578Y-283262D01*
X99255Y-283771D01*
X101000Y-283943D01*
X102745Y-283771D01*
X104422Y-283262D01*
X105968Y-282436D01*
X107324Y-281324D01*
X108436Y-279969D01*
X109262Y-278422D01*
X109771Y-276745D01*
X109943Y-275000D01*
X109771Y-273255D01*
X109262Y-271578D01*
X108436Y-270031D01*
X107324Y-268676D01*
X105968Y-267564D01*
X104422Y-266738D01*
X102745Y-266229D01*
X101000Y-266057D01*
D02*
G37*
G36*
X257250Y-290229D02*
Y-292250D01*
X259271D01*
X259057Y-291735D01*
X258496Y-291004D01*
X257765Y-290443D01*
X257250Y-290229D01*
D02*
G37*
G36*
X119750Y-286229D02*
X119235Y-286443D01*
X118504Y-287004D01*
X117943Y-287735D01*
X117729Y-288250D01*
X119750D01*
Y-286229D01*
D02*
G37*
G36*
X15250Y-272729D02*
Y-274750D01*
X17271D01*
X17057Y-274235D01*
X16496Y-273504D01*
X15765Y-272943D01*
X15250Y-272729D01*
D02*
G37*
G36*
X268750Y-246250D02*
X265920D01*
X266289Y-247142D01*
X266970Y-248030D01*
X267858Y-248711D01*
X268750Y-249080D01*
Y-246250D01*
D02*
G37*
G36*
X275000Y-266057D02*
X273255Y-266229D01*
X271578Y-266738D01*
X270031Y-267564D01*
X268676Y-268676D01*
X267564Y-270031D01*
X266738Y-271578D01*
X266229Y-273255D01*
X266057Y-275000D01*
X266229Y-276745D01*
X266738Y-278422D01*
X267564Y-279969D01*
X268676Y-281324D01*
X270031Y-282436D01*
X271578Y-283262D01*
X273255Y-283771D01*
X275000Y-283943D01*
X276745Y-283771D01*
X278422Y-283262D01*
X279969Y-282436D01*
X281324Y-281324D01*
X282436Y-279969D01*
X283262Y-278422D01*
X283771Y-276745D01*
X283943Y-275000D01*
X283771Y-273255D01*
X283262Y-271578D01*
X282436Y-270031D01*
X281324Y-268676D01*
X279969Y-267564D01*
X278422Y-266738D01*
X276745Y-266229D01*
X275000Y-266057D01*
D02*
G37*
G36*
X17271Y-277250D02*
X15250D01*
Y-279271D01*
X15765Y-279057D01*
X16496Y-278496D01*
X17057Y-277765D01*
X17271Y-277250D01*
D02*
G37*
G36*
X259271Y-294750D02*
X257250D01*
Y-296771D01*
X257765Y-296557D01*
X258496Y-295996D01*
X259057Y-295265D01*
X259271Y-294750D01*
D02*
G37*
G36*
X226000Y-283453D02*
X224564Y-283642D01*
X223226Y-284196D01*
X222077Y-285077D01*
X221196Y-286226D01*
X220642Y-287564D01*
X220452Y-289000D01*
X220642Y-290436D01*
X221196Y-291774D01*
X222077Y-292923D01*
X223226Y-293804D01*
X224564Y-294358D01*
X226000Y-294548D01*
X227436Y-294358D01*
X228774Y-293804D01*
X229923Y-292923D01*
X230804Y-291774D01*
X231358Y-290436D01*
X231547Y-289000D01*
X231358Y-287564D01*
X230804Y-286226D01*
X229923Y-285077D01*
X228774Y-284196D01*
X227436Y-283642D01*
X226000Y-283453D01*
D02*
G37*
G36*
X323000Y-286453D02*
X321564Y-286642D01*
X320226Y-287196D01*
X319077Y-288077D01*
X318196Y-289226D01*
X317642Y-290564D01*
X317453Y-292000D01*
X317642Y-293436D01*
X318196Y-294774D01*
X319077Y-295923D01*
X320226Y-296804D01*
X321564Y-297358D01*
X323000Y-297548D01*
X324436Y-297358D01*
X325774Y-296804D01*
X326923Y-295923D01*
X327804Y-294774D01*
X328358Y-293436D01*
X328548Y-292000D01*
X328358Y-290564D01*
X327804Y-289226D01*
X326923Y-288077D01*
X325774Y-287196D01*
X324436Y-286642D01*
X323000Y-286453D01*
D02*
G37*
G36*
X254750Y-294750D02*
X252729D01*
X252943Y-295265D01*
X253504Y-295996D01*
X254235Y-296557D01*
X254750Y-296771D01*
Y-294750D01*
D02*
G37*
G36*
X124271Y-290750D02*
X122250D01*
Y-292771D01*
X122765Y-292557D01*
X123496Y-291996D01*
X124057Y-291265D01*
X124271Y-290750D01*
D02*
G37*
G36*
X254750Y-290229D02*
X254235Y-290443D01*
X253504Y-291004D01*
X252943Y-291735D01*
X252729Y-292250D01*
X254750D01*
Y-290229D01*
D02*
G37*
G36*
X33500Y-281953D02*
X32064Y-282142D01*
X30726Y-282696D01*
X29577Y-283577D01*
X28696Y-284726D01*
X28142Y-286064D01*
X27953Y-287500D01*
X28142Y-288936D01*
X28696Y-290274D01*
X29577Y-291423D01*
X30726Y-292304D01*
X32064Y-292858D01*
X33500Y-293047D01*
X34936Y-292858D01*
X36274Y-292304D01*
X37423Y-291423D01*
X38304Y-290274D01*
X38858Y-288936D01*
X39048Y-287500D01*
X38858Y-286064D01*
X38304Y-284726D01*
X37423Y-283577D01*
X36274Y-282696D01*
X34936Y-282142D01*
X33500Y-281953D01*
D02*
G37*
G36*
X119750Y-290750D02*
X117729D01*
X117943Y-291265D01*
X118504Y-291996D01*
X119235Y-292557D01*
X119750Y-292771D01*
Y-290750D01*
D02*
G37*
G36*
X123750Y-397537D02*
X122314Y-397726D01*
X120976Y-398281D01*
X119827Y-399162D01*
X118946Y-400311D01*
X118391Y-401649D01*
X118202Y-403085D01*
X118391Y-404521D01*
X118946Y-405859D01*
X119827Y-407008D01*
X120976Y-407889D01*
X122314Y-408443D01*
X123750Y-408632D01*
X125186Y-408443D01*
X126524Y-407889D01*
X127673Y-407008D01*
X128554Y-405859D01*
X129108Y-404521D01*
X129297Y-403085D01*
X129108Y-401649D01*
X128554Y-400311D01*
X127673Y-399162D01*
X126524Y-398281D01*
X125186Y-397726D01*
X123750Y-397537D01*
D02*
G37*
G36*
X254998Y-399277D02*
X243374D01*
X243392Y-399320D01*
X242836Y-400151D01*
X241186D01*
Y-411651D01*
X257186D01*
Y-400151D01*
X255536D01*
X254980Y-399320D01*
X254998Y-399277D01*
D02*
G37*
G36*
X32750Y-413313D02*
Y-416250D01*
X35687D01*
X35297Y-415308D01*
X34600Y-414400D01*
X33692Y-413703D01*
X32750Y-413313D01*
D02*
G37*
G36*
X153198Y-370375D02*
X151893Y-370547D01*
X150677Y-371051D01*
X149632Y-371852D01*
X148831Y-372897D01*
X148327Y-374113D01*
X148155Y-375418D01*
X148327Y-376724D01*
X148831Y-377940D01*
X149632Y-378984D01*
X150677Y-379786D01*
X151893Y-380290D01*
X153198Y-380462D01*
X154504Y-380290D01*
X154642Y-380233D01*
X154661Y-380279D01*
X155142Y-380905D01*
X155769Y-381386D01*
X156176Y-381555D01*
X156059Y-382446D01*
X156230Y-383751D01*
X156734Y-384968D01*
X157536Y-386012D01*
X158523Y-386770D01*
X158627Y-387764D01*
X158306Y-388140D01*
X157402Y-389616D01*
X156739Y-391216D01*
X156335Y-392899D01*
X156199Y-394625D01*
X156335Y-396352D01*
X156739Y-398035D01*
X157402Y-399635D01*
X158306Y-401111D01*
X159431Y-402428D01*
X160747Y-403552D01*
X162224Y-404457D01*
X163823Y-405120D01*
X165507Y-405524D01*
X167233Y-405659D01*
X168959Y-405524D01*
X170643Y-405120D01*
X172242Y-404457D01*
X173719Y-403552D01*
X175035Y-402428D01*
X176160Y-401111D01*
X177064Y-399635D01*
X177727Y-398035D01*
X178131Y-396352D01*
X178267Y-394625D01*
X178131Y-392899D01*
X177727Y-391216D01*
X177064Y-389616D01*
X176160Y-388140D01*
X175035Y-386823D01*
X173719Y-385699D01*
X172242Y-384794D01*
X170643Y-384132D01*
X168959Y-383727D01*
X167233Y-383592D01*
X166773Y-383628D01*
X166085Y-382902D01*
X166145Y-382446D01*
X165973Y-381141D01*
X165469Y-379925D01*
X164668Y-378880D01*
X163623Y-378079D01*
X162407Y-377575D01*
X161102Y-377403D01*
X160023Y-377545D01*
X159902Y-377253D01*
X159421Y-376626D01*
X158794Y-376145D01*
X158179Y-375890D01*
X158241Y-375418D01*
X158070Y-374113D01*
X157566Y-372897D01*
X156764Y-371852D01*
X155720Y-371051D01*
X154504Y-370547D01*
X153198Y-370375D01*
D02*
G37*
G36*
X287750Y-367250D02*
X285729D01*
X285943Y-367765D01*
X286504Y-368496D01*
X287235Y-369057D01*
X287750Y-369271D01*
Y-367250D01*
D02*
G37*
G36*
X251186Y-360502D02*
X247186D01*
X246010Y-360618D01*
X244879Y-360961D01*
X243837Y-361518D01*
X242923Y-362268D01*
X242173Y-363181D01*
X241616Y-364224D01*
X241273Y-365355D01*
X241157Y-366531D01*
X241273Y-367707D01*
X241616Y-368838D01*
X242173Y-369881D01*
X242655Y-370468D01*
X242173Y-371055D01*
X241616Y-372098D01*
X241273Y-373229D01*
X241157Y-374405D01*
X241273Y-375581D01*
X241616Y-376712D01*
X242173Y-377754D01*
X242655Y-378342D01*
X242173Y-378929D01*
X241616Y-379972D01*
X241273Y-381103D01*
X241157Y-382279D01*
X241273Y-383455D01*
X241616Y-384586D01*
X242173Y-385629D01*
X242655Y-386216D01*
X242173Y-386803D01*
X241616Y-387846D01*
X241273Y-388977D01*
X241157Y-390153D01*
X241273Y-391329D01*
X241616Y-392460D01*
X242173Y-393502D01*
X242923Y-394416D01*
X243837Y-395166D01*
X243947Y-395677D01*
X243692Y-396010D01*
X243374Y-396777D01*
X254998D01*
X254680Y-396010D01*
X254425Y-395677D01*
X254536Y-395166D01*
X255449Y-394416D01*
X256199Y-393502D01*
X256756Y-392460D01*
X257099Y-391329D01*
X257215Y-390153D01*
X257099Y-388977D01*
X256756Y-387846D01*
X256199Y-386803D01*
X255717Y-386216D01*
X256199Y-385629D01*
X256756Y-384586D01*
X257099Y-383455D01*
X257215Y-382279D01*
X257099Y-381103D01*
X256756Y-379972D01*
X256199Y-378929D01*
X255717Y-378342D01*
X256199Y-377754D01*
X256756Y-376712D01*
X257099Y-375581D01*
X257215Y-374405D01*
X257099Y-373229D01*
X256756Y-372098D01*
X256199Y-371055D01*
X255717Y-370468D01*
X256199Y-369881D01*
X256756Y-368838D01*
X257099Y-367707D01*
X257215Y-366531D01*
X257099Y-365355D01*
X256756Y-364224D01*
X256199Y-363181D01*
X255449Y-362268D01*
X254536Y-361518D01*
X253493Y-360961D01*
X252362Y-360618D01*
X251186Y-360502D01*
D02*
G37*
G36*
X333494Y-389189D02*
X332058Y-389378D01*
X330720Y-389933D01*
X329571Y-390814D01*
X328690Y-391963D01*
X328135Y-393301D01*
X327946Y-394737D01*
X328135Y-396173D01*
X328690Y-397511D01*
X329571Y-398659D01*
X330720Y-399541D01*
X332058Y-400095D01*
X333494Y-400284D01*
X334930Y-400095D01*
X336268Y-399541D01*
X337417Y-398659D01*
X338298Y-397511D01*
X338852Y-396173D01*
X339041Y-394737D01*
X338852Y-393301D01*
X338298Y-391963D01*
X337417Y-390814D01*
X336268Y-389933D01*
X334930Y-389378D01*
X333494Y-389189D01*
D02*
G37*
G36*
X30250Y-413313D02*
X29308Y-413703D01*
X28400Y-414400D01*
X27703Y-415308D01*
X27313Y-416250D01*
X30250D01*
Y-413313D01*
D02*
G37*
G36*
X47250Y-423750D02*
X45229D01*
X45443Y-424265D01*
X46004Y-424996D01*
X46735Y-425557D01*
X47250Y-425771D01*
Y-423750D01*
D02*
G37*
G36*
X349346Y-411154D02*
X336653D01*
Y-423846D01*
X336784D01*
X337298Y-424704D01*
X337108Y-425060D01*
X336745Y-426256D01*
X336623Y-427500D01*
X336745Y-428744D01*
X337108Y-429940D01*
X337698Y-431043D01*
X338491Y-432009D01*
X339457Y-432802D01*
X340132Y-433163D01*
X340213Y-434160D01*
X339900Y-434400D01*
X339203Y-435308D01*
X338813Y-436250D01*
X347187D01*
X346797Y-435308D01*
X346100Y-434400D01*
X345787Y-434160D01*
X345868Y-433163D01*
X346543Y-432802D01*
X347509Y-432009D01*
X348302Y-431043D01*
X348892Y-429940D01*
X349255Y-428744D01*
X349377Y-427500D01*
X349255Y-426256D01*
X348892Y-425060D01*
X348702Y-424704D01*
X349216Y-423846D01*
X349346D01*
Y-411154D01*
D02*
G37*
G36*
X229038Y-417565D02*
X147038D01*
Y-429565D01*
Y-439565D01*
X239038D01*
Y-427565D01*
X237038D01*
Y-424815D01*
X233038D01*
Y-423565D01*
X231788D01*
Y-419565D01*
X229038D01*
Y-417565D01*
D02*
G37*
G36*
X51771Y-423750D02*
X49750D01*
Y-425771D01*
X50265Y-425557D01*
X50996Y-424996D01*
X51557Y-424265D01*
X51771Y-423750D01*
D02*
G37*
G36*
X49750Y-419229D02*
Y-421250D01*
X51771D01*
X51557Y-420735D01*
X50996Y-420004D01*
X50265Y-419443D01*
X49750Y-419229D01*
D02*
G37*
G36*
X47250D02*
X46735Y-419443D01*
X46004Y-420004D01*
X45443Y-420735D01*
X45229Y-421250D01*
X47250D01*
Y-419229D01*
D02*
G37*
G36*
X237038Y-419565D02*
X234288D01*
Y-422315D01*
X237038D01*
Y-419565D01*
D02*
G37*
G36*
X292271Y-367250D02*
X290250D01*
Y-369271D01*
X290765Y-369057D01*
X291496Y-368496D01*
X292057Y-367765D01*
X292271Y-367250D01*
D02*
G37*
G36*
X241250Y-325250D02*
X239229D01*
X239443Y-325765D01*
X240004Y-326496D01*
X240735Y-327057D01*
X241250Y-327271D01*
Y-325250D01*
D02*
G37*
G36*
X270345Y-326681D02*
Y-328701D01*
X272365D01*
X272152Y-328186D01*
X271591Y-327455D01*
X270860Y-326894D01*
X270345Y-326681D01*
D02*
G37*
G36*
X267845D02*
X267330Y-326894D01*
X266599Y-327455D01*
X266038Y-328186D01*
X265824Y-328701D01*
X267845D01*
Y-326681D01*
D02*
G37*
G36*
X245771Y-325250D02*
X243750D01*
Y-327271D01*
X244265Y-327057D01*
X244996Y-326496D01*
X245557Y-325765D01*
X245771Y-325250D01*
D02*
G37*
G36*
X243750Y-320729D02*
Y-322750D01*
X245771D01*
X245557Y-322235D01*
X244996Y-321504D01*
X244265Y-320943D01*
X243750Y-320729D01*
D02*
G37*
G36*
X241250D02*
X240735Y-320943D01*
X240004Y-321504D01*
X239443Y-322235D01*
X239229Y-322750D01*
X241250D01*
Y-320729D01*
D02*
G37*
G36*
X149452Y-313058D02*
X148017Y-313247D01*
X146679Y-313801D01*
X145530Y-314683D01*
X144648Y-315832D01*
X144094Y-317170D01*
X143905Y-318606D01*
X144094Y-320041D01*
X144648Y-321379D01*
X145530Y-322528D01*
X146679Y-323410D01*
X148017Y-323964D01*
X149452Y-324153D01*
X150888Y-323964D01*
X152226Y-323410D01*
X153375Y-322528D01*
X154257Y-321379D01*
X154811Y-320041D01*
X155000Y-318606D01*
X154811Y-317170D01*
X154257Y-315832D01*
X153375Y-314683D01*
X152226Y-313801D01*
X150888Y-313247D01*
X149452Y-313058D01*
D02*
G37*
G36*
X238230Y-327734D02*
X236795Y-327923D01*
X235457Y-328477D01*
X234308Y-329359D01*
X233426Y-330508D01*
X232872Y-331846D01*
X232860Y-331938D01*
X231936Y-332320D01*
X231774Y-332196D01*
X230436Y-331642D01*
X229000Y-331452D01*
X227564Y-331642D01*
X226226Y-332196D01*
X225077Y-333077D01*
X224196Y-334226D01*
X223642Y-335564D01*
X223452Y-337000D01*
X223642Y-338436D01*
X224196Y-339774D01*
X225077Y-340923D01*
X226226Y-341804D01*
X227564Y-342358D01*
X229000Y-342547D01*
X230436Y-342358D01*
X231774Y-341804D01*
X232923Y-340923D01*
X233804Y-339774D01*
X234358Y-338436D01*
X234370Y-338344D01*
X235294Y-337961D01*
X235457Y-338086D01*
X236795Y-338640D01*
X238230Y-338829D01*
X239666Y-338640D01*
X241004Y-338086D01*
X242153Y-337204D01*
X243035Y-336055D01*
X243589Y-334717D01*
X243778Y-333281D01*
X243589Y-331846D01*
X243035Y-330508D01*
X242153Y-329359D01*
X241004Y-328477D01*
X239666Y-327923D01*
X238230Y-327734D01*
D02*
G37*
G36*
X187765Y-336067D02*
X186460Y-336239D01*
X185243Y-336743D01*
X184199Y-337544D01*
X183397Y-338589D01*
X182894Y-339805D01*
X182724Y-341091D01*
X182316Y-341144D01*
X181586Y-341447D01*
X180959Y-341928D01*
X180478Y-342554D01*
X180176Y-343284D01*
X180073Y-344067D01*
X180094Y-344229D01*
X179183Y-344349D01*
X177967Y-344852D01*
X176922Y-345654D01*
X176539Y-346154D01*
X175544Y-346258D01*
X174494Y-345361D01*
X173017Y-344456D01*
X171418Y-343793D01*
X169734Y-343389D01*
X168008Y-343253D01*
X166282Y-343389D01*
X164598Y-343793D01*
X162999Y-344456D01*
X161522Y-345361D01*
X160206Y-346485D01*
X159081Y-347802D01*
X158177Y-349278D01*
X157514Y-350878D01*
X157110Y-352561D01*
X156974Y-354287D01*
X157110Y-356013D01*
X157514Y-357697D01*
X158177Y-359297D01*
X159081Y-360773D01*
X160206Y-362090D01*
X161522Y-363214D01*
X162999Y-364119D01*
X164598Y-364781D01*
X166282Y-365186D01*
X168008Y-365321D01*
X169734Y-365186D01*
X171418Y-364781D01*
X173017Y-364119D01*
X174445Y-363244D01*
X175090Y-364008D01*
X174984Y-364129D01*
X173746Y-365982D01*
X172760Y-367980D01*
X172044Y-370091D01*
X171609Y-372276D01*
X171464Y-374500D01*
X171609Y-376724D01*
X172044Y-378909D01*
X172760Y-381020D01*
X173746Y-383018D01*
X174984Y-384871D01*
X176453Y-386547D01*
X178129Y-388016D01*
X179982Y-389254D01*
X181980Y-390240D01*
X184091Y-390956D01*
X186276Y-391391D01*
X188500Y-391536D01*
X190724Y-391391D01*
X192909Y-390956D01*
X195020Y-390240D01*
X197018Y-389254D01*
X197939Y-388639D01*
X198660Y-389332D01*
X198644Y-389358D01*
X197981Y-390957D01*
X197577Y-392641D01*
X197441Y-394367D01*
X197577Y-396093D01*
X197617Y-396258D01*
X197050Y-397082D01*
X196695Y-397129D01*
X195478Y-397633D01*
X194434Y-398434D01*
X193632Y-399478D01*
X193129Y-400695D01*
X193005Y-401638D01*
X192553Y-401825D01*
X191926Y-402306D01*
X191445Y-402933D01*
X191405Y-403029D01*
X190495Y-402652D01*
X189189Y-402480D01*
X187884Y-402652D01*
X186668Y-403156D01*
X185623Y-403957D01*
X184822Y-405001D01*
X184318Y-406218D01*
X184146Y-407523D01*
X184318Y-408828D01*
X184822Y-410045D01*
X185623Y-411089D01*
X186668Y-411891D01*
X187884Y-412394D01*
X189189Y-412566D01*
X190495Y-412394D01*
X191711Y-411891D01*
X192755Y-411089D01*
X193557Y-410045D01*
X194061Y-408828D01*
X194232Y-407523D01*
X194295Y-407441D01*
X194849Y-407368D01*
X195579Y-407066D01*
X196135Y-406639D01*
X196695Y-406871D01*
X198000Y-407043D01*
X199305Y-406871D01*
X200522Y-406367D01*
X201566Y-405566D01*
X202367Y-404522D01*
X202402Y-404438D01*
X203353Y-404129D01*
X203466Y-404199D01*
X205065Y-404861D01*
X206749Y-405265D01*
X208475Y-405401D01*
X210201Y-405265D01*
X211885Y-404861D01*
X213485Y-404199D01*
X214961Y-403294D01*
X216277Y-402169D01*
X217402Y-400853D01*
X218307Y-399377D01*
X218969Y-397777D01*
X219373Y-396093D01*
X219509Y-394367D01*
X219373Y-392641D01*
X218969Y-390957D01*
X218307Y-389358D01*
X217402Y-387881D01*
X216277Y-386565D01*
X214961Y-385440D01*
X213485Y-384536D01*
X211885Y-383873D01*
X210201Y-383469D01*
X208475Y-383333D01*
X206749Y-383469D01*
X205065Y-383873D01*
X203466Y-384536D01*
X203379Y-384589D01*
X202686Y-383868D01*
X203254Y-383018D01*
X204240Y-381020D01*
X204956Y-378909D01*
X205391Y-376724D01*
X205537Y-374500D01*
X205391Y-372276D01*
X204956Y-370091D01*
X204240Y-367980D01*
X203254Y-365982D01*
X202295Y-364547D01*
X202989Y-363826D01*
X203466Y-364119D01*
X205065Y-364781D01*
X206749Y-365186D01*
X208475Y-365321D01*
X209502Y-365241D01*
X210190Y-365966D01*
X210115Y-366535D01*
X210287Y-367840D01*
X210791Y-369057D01*
X211593Y-370101D01*
X212637Y-370902D01*
X213853Y-371406D01*
X215159Y-371578D01*
X216464Y-371406D01*
X216986Y-371190D01*
X217015Y-371259D01*
X217495Y-371886D01*
X218071Y-372328D01*
X217921Y-372690D01*
X217732Y-374125D01*
X217921Y-375561D01*
X218475Y-376899D01*
X219357Y-378048D01*
X220506Y-378930D01*
X221844Y-379484D01*
X223280Y-379673D01*
X224715Y-379484D01*
X226053Y-378930D01*
X227202Y-378048D01*
X228084Y-376899D01*
X228638Y-375561D01*
X228827Y-374125D01*
X228638Y-372690D01*
X228084Y-371352D01*
X227202Y-370203D01*
X226053Y-369321D01*
X224715Y-368767D01*
X223280Y-368578D01*
X222444Y-368688D01*
X222256Y-368233D01*
X221775Y-367607D01*
X221148Y-367126D01*
X220418Y-366824D01*
X220201Y-366540D01*
X220202Y-366535D01*
X220030Y-365230D01*
X219526Y-364013D01*
X218725Y-362969D01*
X217680Y-362168D01*
X217381Y-362043D01*
X217147Y-361071D01*
X217402Y-360773D01*
X218307Y-359297D01*
X218969Y-357697D01*
X219373Y-356013D01*
X219509Y-354287D01*
X219373Y-352561D01*
X218969Y-350878D01*
X218307Y-349278D01*
X217402Y-347802D01*
X216277Y-346485D01*
X214961Y-345361D01*
X213485Y-344456D01*
X211885Y-343793D01*
X210201Y-343389D01*
X208475Y-343253D01*
X206749Y-343389D01*
X205065Y-343793D01*
X203466Y-344456D01*
X201990Y-345361D01*
X200673Y-346485D01*
X199548Y-347802D01*
X198644Y-349278D01*
X197981Y-350878D01*
X197577Y-352561D01*
X197441Y-354287D01*
X197577Y-356013D01*
X197981Y-357697D01*
X198644Y-359297D01*
X199018Y-359908D01*
X198297Y-360601D01*
X197018Y-359746D01*
X195020Y-358760D01*
X192909Y-358044D01*
X190724Y-357609D01*
X188500Y-357464D01*
X186276Y-357609D01*
X184091Y-358044D01*
X181980Y-358760D01*
X179982Y-359746D01*
X178129Y-360984D01*
X177774Y-361295D01*
X177010Y-360650D01*
X177839Y-359297D01*
X178502Y-357697D01*
X178906Y-356013D01*
X179002Y-354799D01*
X179697Y-354236D01*
X180063Y-354207D01*
X180488Y-354263D01*
X181794Y-354091D01*
X183010Y-353587D01*
X184054Y-352786D01*
X184856Y-351742D01*
X185360Y-350525D01*
X185531Y-349220D01*
X185360Y-347915D01*
X184856Y-346698D01*
X184760Y-346574D01*
X185238Y-346207D01*
X185664Y-345652D01*
X186460Y-345982D01*
X187765Y-346154D01*
X189070Y-345982D01*
X190286Y-345478D01*
X191331Y-344677D01*
X192132Y-343632D01*
X192636Y-342416D01*
X192808Y-341110D01*
X192636Y-339805D01*
X192132Y-338589D01*
X191331Y-337544D01*
X190286Y-336743D01*
X189070Y-336239D01*
X187765Y-336067D01*
D02*
G37*
G36*
X290250Y-362729D02*
Y-364750D01*
X292271D01*
X292057Y-364235D01*
X291496Y-363504D01*
X290765Y-362943D01*
X290250Y-362729D01*
D02*
G37*
G36*
X287750D02*
X287235Y-362943D01*
X286504Y-363504D01*
X285943Y-364235D01*
X285729Y-364750D01*
X287750D01*
Y-362729D01*
D02*
G37*
G36*
X328500Y-326953D02*
X327064Y-327142D01*
X325726Y-327696D01*
X324577Y-328577D01*
X323696Y-329726D01*
X323142Y-331064D01*
X322953Y-332500D01*
X323142Y-333936D01*
X323696Y-335274D01*
X324577Y-336423D01*
X325726Y-337304D01*
X327064Y-337858D01*
X328500Y-338048D01*
X329936Y-337858D01*
X331274Y-337304D01*
X332423Y-336423D01*
X333304Y-335274D01*
X333858Y-333936D01*
X334048Y-332500D01*
X333858Y-331064D01*
X333304Y-329726D01*
X332423Y-328577D01*
X331274Y-327696D01*
X329936Y-327142D01*
X328500Y-326953D01*
D02*
G37*
G36*
X272365Y-331201D02*
X270345D01*
Y-333222D01*
X270860Y-333008D01*
X271591Y-332447D01*
X272152Y-331716D01*
X272365Y-331201D01*
D02*
G37*
G36*
X267845D02*
X265824D01*
X266038Y-331716D01*
X266599Y-332447D01*
X267330Y-333008D01*
X267845Y-333222D01*
Y-331201D01*
D02*
G37*
G36*
X89500Y-323953D02*
X88064Y-324142D01*
X86726Y-324696D01*
X85577Y-325577D01*
X84696Y-326726D01*
X84142Y-328064D01*
X83952Y-329500D01*
X84142Y-330936D01*
X84696Y-332274D01*
X85577Y-333423D01*
X86726Y-334304D01*
X88064Y-334858D01*
X89500Y-335048D01*
X90936Y-334858D01*
X92274Y-334304D01*
X93423Y-333423D01*
X94304Y-332274D01*
X94858Y-330936D01*
X95047Y-329500D01*
X94858Y-328064D01*
X94304Y-326726D01*
X93423Y-325577D01*
X92274Y-324696D01*
X90936Y-324142D01*
X89500Y-323953D01*
D02*
G37*
G36*
X59250Y-27250D02*
X57229D01*
X57443Y-27765D01*
X58004Y-28496D01*
X58735Y-29057D01*
X59250Y-29271D01*
Y-27250D01*
D02*
G37*
G36*
X50000Y-19453D02*
X48564Y-19642D01*
X47226Y-20196D01*
X46077Y-21077D01*
X45196Y-22226D01*
X44642Y-23564D01*
X44453Y-25000D01*
X44642Y-26436D01*
X45196Y-27774D01*
X46077Y-28923D01*
X47226Y-29804D01*
X48564Y-30358D01*
X50000Y-30547D01*
X51436Y-30358D01*
X52774Y-29804D01*
X53923Y-28923D01*
X54804Y-27774D01*
X55358Y-26436D01*
X55547Y-25000D01*
X55358Y-23564D01*
X54804Y-22226D01*
X53923Y-21077D01*
X52774Y-20196D01*
X51436Y-19642D01*
X50000Y-19453D01*
D02*
G37*
G36*
X284248Y-26250D02*
X275752D01*
Y-29248D01*
X275752D01*
Y-29927D01*
X275045Y-30634D01*
X274500D01*
X274439Y-30561D01*
X273488Y-29780D01*
X272687Y-29352D01*
X272617Y-28493D01*
X272675Y-28302D01*
X273030Y-28030D01*
X273711Y-27142D01*
X274080Y-26250D01*
X265920D01*
X266289Y-27142D01*
X266970Y-28030D01*
X267325Y-28302D01*
X267383Y-28493D01*
X267313Y-29352D01*
X266512Y-29780D01*
X265561Y-30561D01*
X264780Y-31512D01*
X264200Y-32597D01*
X263842Y-33775D01*
X263722Y-35000D01*
X263842Y-36225D01*
X264200Y-37403D01*
X264780Y-38488D01*
X265561Y-39439D01*
X265634Y-39500D01*
Y-40500D01*
X265561Y-40561D01*
X264780Y-41512D01*
X264200Y-42597D01*
X263842Y-43775D01*
X263722Y-45000D01*
X263842Y-46225D01*
X264200Y-47403D01*
X264780Y-48488D01*
X265561Y-49439D01*
X265634Y-49500D01*
Y-50500D01*
X265561Y-50561D01*
X264780Y-51512D01*
X264200Y-52597D01*
X263842Y-53775D01*
X263722Y-55000D01*
X263842Y-56225D01*
X264200Y-57403D01*
X264780Y-58488D01*
X265561Y-59439D01*
X265634Y-59500D01*
Y-60500D01*
X265561Y-60561D01*
X264780Y-61512D01*
X264200Y-62597D01*
X263842Y-63775D01*
X263722Y-65000D01*
X263842Y-66225D01*
X264200Y-67403D01*
X264780Y-68488D01*
X265561Y-69439D01*
X265634Y-69500D01*
Y-70500D01*
X265561Y-70561D01*
X264780Y-71512D01*
X264200Y-72597D01*
X263842Y-73775D01*
X263722Y-75000D01*
X263842Y-76225D01*
X264200Y-77403D01*
X264780Y-78488D01*
X265561Y-79439D01*
X265634Y-79500D01*
Y-80500D01*
X265561Y-80561D01*
X264780Y-81512D01*
X264200Y-82597D01*
X263842Y-83775D01*
X263722Y-85000D01*
X263842Y-86225D01*
X264200Y-87403D01*
X264780Y-88488D01*
X265561Y-89439D01*
X265634Y-89500D01*
Y-90500D01*
X265561Y-90561D01*
X264780Y-91512D01*
X264200Y-92597D01*
X263842Y-93775D01*
X263722Y-95000D01*
X263842Y-96225D01*
X264200Y-97403D01*
X264780Y-98488D01*
X265561Y-99439D01*
X265634Y-99500D01*
Y-100500D01*
X265561Y-100561D01*
X264780Y-101512D01*
X264200Y-102597D01*
X263842Y-103775D01*
X263722Y-105000D01*
X263842Y-106225D01*
X264200Y-107403D01*
X264780Y-108488D01*
X265561Y-109439D01*
X265634Y-109500D01*
Y-110500D01*
X265561Y-110561D01*
X264780Y-111512D01*
X264200Y-112597D01*
X263842Y-113775D01*
X263722Y-115000D01*
X263842Y-116225D01*
X264200Y-117403D01*
X264780Y-118488D01*
X265561Y-119439D01*
X265634Y-119500D01*
Y-120500D01*
X265561Y-120561D01*
X264780Y-121512D01*
X264200Y-122597D01*
X263842Y-123775D01*
X263722Y-125000D01*
X263842Y-126225D01*
X264200Y-127403D01*
X264780Y-128488D01*
X265561Y-129439D01*
X265634Y-129500D01*
Y-130500D01*
X265561Y-130561D01*
X264780Y-131512D01*
X264200Y-132597D01*
X263842Y-133775D01*
X263722Y-135000D01*
X263842Y-136225D01*
X264200Y-137403D01*
X264780Y-138488D01*
X265561Y-139439D01*
X265634Y-139500D01*
Y-140500D01*
X265561Y-140561D01*
X264780Y-141512D01*
X264200Y-142597D01*
X263842Y-143775D01*
X263722Y-145000D01*
X263842Y-146225D01*
X264200Y-147403D01*
X264780Y-148488D01*
X265561Y-149439D01*
X265634Y-149500D01*
Y-150500D01*
X265561Y-150561D01*
X264780Y-151512D01*
X264200Y-152597D01*
X263842Y-153775D01*
X263722Y-155000D01*
X263842Y-156225D01*
X264200Y-157403D01*
X264780Y-158488D01*
X265561Y-159439D01*
X265634Y-159500D01*
Y-160500D01*
X265561Y-160561D01*
X264780Y-161512D01*
X264200Y-162597D01*
X263842Y-163775D01*
X263722Y-165000D01*
X263842Y-166225D01*
X264200Y-167403D01*
X264780Y-168488D01*
X265243Y-169053D01*
X264816Y-169957D01*
X256500D01*
X255195Y-170129D01*
X253978Y-170633D01*
X252934Y-171434D01*
X248434Y-175934D01*
X247633Y-176978D01*
X247129Y-178195D01*
X246957Y-179500D01*
Y-274803D01*
X246642Y-275564D01*
X246452Y-277000D01*
X246642Y-278436D01*
X247196Y-279774D01*
X248077Y-280923D01*
X249226Y-281804D01*
X250564Y-282358D01*
X252000Y-282547D01*
X253436Y-282358D01*
X254774Y-281804D01*
X255923Y-280923D01*
X256804Y-279774D01*
X257358Y-278436D01*
X257547Y-277000D01*
X257358Y-275564D01*
X257043Y-274803D01*
Y-181589D01*
X258589Y-180043D01*
X266296D01*
X266512Y-180220D01*
X267313Y-180648D01*
X267383Y-181507D01*
X267325Y-181698D01*
X266970Y-181970D01*
X266289Y-182858D01*
X265920Y-183750D01*
X270000D01*
Y-186250D01*
X265920D01*
X266289Y-187142D01*
X266970Y-188030D01*
X267325Y-188302D01*
X267383Y-188493D01*
X267313Y-189352D01*
X266512Y-189780D01*
X265561Y-190561D01*
X264780Y-191512D01*
X264200Y-192597D01*
X263842Y-193775D01*
X263722Y-195000D01*
X263842Y-196225D01*
X264200Y-197403D01*
X264780Y-198488D01*
X265561Y-199439D01*
X265634Y-199500D01*
Y-200500D01*
X265561Y-200561D01*
X264780Y-201512D01*
X264200Y-202597D01*
X263842Y-203775D01*
X263722Y-205000D01*
X263842Y-206225D01*
X264200Y-207403D01*
X264780Y-208488D01*
X265561Y-209439D01*
X265634Y-209500D01*
Y-210500D01*
X265561Y-210561D01*
X264780Y-211512D01*
X264200Y-212597D01*
X263842Y-213775D01*
X263722Y-215000D01*
X263842Y-216225D01*
X264200Y-217403D01*
X264780Y-218488D01*
X265561Y-219439D01*
X265634Y-219500D01*
Y-220500D01*
X265561Y-220561D01*
X264780Y-221512D01*
X264200Y-222597D01*
X263842Y-223775D01*
X263722Y-225000D01*
X263842Y-226225D01*
X264200Y-227403D01*
X264780Y-228488D01*
X265561Y-229439D01*
X266512Y-230220D01*
X267313Y-230648D01*
X267383Y-231507D01*
X267325Y-231698D01*
X266970Y-231970D01*
X266289Y-232858D01*
X265920Y-233750D01*
X274080D01*
X273711Y-232858D01*
X273030Y-231970D01*
X272675Y-231698D01*
X272617Y-231507D01*
X272628Y-231368D01*
X273518Y-230911D01*
X273752Y-231052D01*
Y-231248D01*
X276394D01*
X276836Y-232145D01*
X276289Y-232858D01*
X275920Y-233750D01*
X284080D01*
X283711Y-232858D01*
X283164Y-232145D01*
X283606Y-231248D01*
X286248D01*
Y-218752D01*
X286052D01*
X285538Y-217894D01*
X285800Y-217403D01*
X286158Y-216225D01*
X286278Y-215000D01*
X286158Y-213775D01*
X285800Y-212597D01*
X285220Y-211512D01*
X284439Y-210561D01*
X284366Y-210500D01*
Y-209500D01*
X284439Y-209439D01*
X285220Y-208488D01*
X285800Y-207403D01*
X286158Y-206225D01*
X286278Y-205000D01*
X286158Y-203775D01*
X285800Y-202597D01*
X285220Y-201512D01*
X284439Y-200561D01*
X284366Y-200500D01*
Y-199500D01*
X284439Y-199439D01*
X285220Y-198488D01*
X285800Y-197403D01*
X286158Y-196225D01*
X286278Y-195000D01*
X286158Y-193775D01*
X285800Y-192597D01*
X285220Y-191512D01*
X284439Y-190561D01*
X284366Y-190500D01*
Y-189500D01*
X284439Y-189439D01*
X285220Y-188488D01*
X285800Y-187403D01*
X286158Y-186225D01*
X286278Y-185000D01*
X286158Y-183775D01*
X285800Y-182597D01*
X285220Y-181512D01*
X284439Y-180561D01*
X284366Y-180500D01*
Y-179500D01*
X284439Y-179439D01*
X285220Y-178488D01*
X285800Y-177403D01*
X286158Y-176225D01*
X286278Y-175000D01*
X286158Y-173775D01*
X285800Y-172597D01*
X285220Y-171512D01*
X284439Y-170561D01*
X284366Y-170500D01*
Y-169500D01*
X284439Y-169439D01*
X285220Y-168488D01*
X285800Y-167403D01*
X286158Y-166225D01*
X286278Y-165000D01*
X286158Y-163775D01*
X285800Y-162597D01*
X285220Y-161512D01*
X284439Y-160561D01*
X284366Y-160500D01*
Y-159500D01*
X284439Y-159439D01*
X285220Y-158488D01*
X285800Y-157403D01*
X286158Y-156225D01*
X286278Y-155000D01*
X286158Y-153775D01*
X285800Y-152597D01*
X285220Y-151512D01*
X284439Y-150561D01*
X284366Y-150500D01*
Y-149500D01*
X284439Y-149439D01*
X285220Y-148488D01*
X285800Y-147403D01*
X286158Y-146225D01*
X286278Y-145000D01*
X286158Y-143775D01*
X285800Y-142597D01*
X285220Y-141512D01*
X284439Y-140561D01*
X284366Y-140500D01*
Y-139500D01*
X284439Y-139439D01*
X285220Y-138488D01*
X285800Y-137403D01*
X286158Y-136225D01*
X286278Y-135000D01*
X286158Y-133775D01*
X285800Y-132597D01*
X285220Y-131512D01*
X284439Y-130561D01*
X284366Y-130500D01*
Y-129500D01*
X284439Y-129439D01*
X285220Y-128488D01*
X285800Y-127403D01*
X286158Y-126225D01*
X286278Y-125000D01*
X286158Y-123775D01*
X285800Y-122597D01*
X285220Y-121512D01*
X284439Y-120561D01*
X284366Y-120500D01*
Y-119500D01*
X284439Y-119439D01*
X285220Y-118488D01*
X285800Y-117403D01*
X286158Y-116225D01*
X286278Y-115000D01*
X286158Y-113775D01*
X285800Y-112597D01*
X285220Y-111512D01*
X284439Y-110561D01*
X284366Y-110500D01*
Y-109500D01*
X284439Y-109439D01*
X285220Y-108488D01*
X285800Y-107403D01*
X286158Y-106225D01*
X286278Y-105000D01*
X286158Y-103775D01*
X285800Y-102597D01*
X285220Y-101512D01*
X284439Y-100561D01*
X284366Y-100500D01*
Y-99500D01*
X284439Y-99439D01*
X285220Y-98488D01*
X285800Y-97403D01*
X286158Y-96225D01*
X286278Y-95000D01*
X286158Y-93775D01*
X285800Y-92597D01*
X285220Y-91512D01*
X284439Y-90561D01*
X284366Y-90500D01*
Y-89500D01*
X284439Y-89439D01*
X285220Y-88488D01*
X285800Y-87403D01*
X286158Y-86225D01*
X286278Y-85000D01*
X286158Y-83775D01*
X285800Y-82597D01*
X285220Y-81512D01*
X284439Y-80561D01*
X284366Y-80500D01*
Y-79500D01*
X284439Y-79439D01*
X285220Y-78488D01*
X285800Y-77403D01*
X286158Y-76225D01*
X286278Y-75000D01*
X286158Y-73775D01*
X285800Y-72597D01*
X285220Y-71512D01*
X284439Y-70561D01*
X284366Y-70500D01*
Y-69500D01*
X284439Y-69439D01*
X285220Y-68488D01*
X285800Y-67403D01*
X286158Y-66225D01*
X286278Y-65000D01*
X286158Y-63775D01*
X285800Y-62597D01*
X285220Y-61512D01*
X284439Y-60561D01*
X284366Y-60500D01*
Y-59500D01*
X284439Y-59439D01*
X285220Y-58488D01*
X285800Y-57403D01*
X286158Y-56225D01*
X286278Y-55000D01*
X286158Y-53775D01*
X285800Y-52597D01*
X285220Y-51512D01*
X284439Y-50561D01*
X284366Y-50500D01*
Y-49500D01*
X284439Y-49439D01*
X285220Y-48488D01*
X285800Y-47403D01*
X286158Y-46225D01*
X286278Y-45000D01*
X286158Y-43775D01*
X285800Y-42597D01*
X285220Y-41512D01*
X284439Y-40561D01*
X284366Y-40500D01*
Y-39500D01*
X284439Y-39439D01*
X285220Y-38488D01*
X285800Y-37403D01*
X286158Y-36225D01*
X286278Y-35000D01*
X286158Y-33775D01*
X285800Y-32597D01*
X285220Y-31512D01*
X284439Y-30561D01*
X284248Y-30404D01*
X284248Y-29248D01*
X284248D01*
Y-26250D01*
D02*
G37*
G36*
X63771Y-27250D02*
X61750D01*
Y-29271D01*
X62265Y-29057D01*
X62996Y-28496D01*
X63557Y-27765D01*
X63771Y-27250D01*
D02*
G37*
G36*
X27250Y-24229D02*
X26735Y-24443D01*
X26004Y-25004D01*
X25443Y-25735D01*
X25229Y-26250D01*
X27250D01*
Y-24229D01*
D02*
G37*
G36*
X360250Y-25750D02*
X358229D01*
X358443Y-26265D01*
X359004Y-26996D01*
X359735Y-27557D01*
X360250Y-27771D01*
Y-25750D01*
D02*
G37*
G36*
X322000Y-16952D02*
X320564Y-17142D01*
X319226Y-17696D01*
X318077Y-18577D01*
X317196Y-19726D01*
X316642Y-21064D01*
X316453Y-22500D01*
X316642Y-23936D01*
X317196Y-25274D01*
X318077Y-26423D01*
X319226Y-27304D01*
X320564Y-27858D01*
X322000Y-28047D01*
X323436Y-27858D01*
X324774Y-27304D01*
X325923Y-26423D01*
X326804Y-25274D01*
X327358Y-23936D01*
X327548Y-22500D01*
X327358Y-21064D01*
X326804Y-19726D01*
X325923Y-18577D01*
X324774Y-17696D01*
X323436Y-17142D01*
X322000Y-16952D01*
D02*
G37*
G36*
X94248Y-26250D02*
X85752D01*
Y-29248D01*
X85752D01*
Y-29927D01*
X85045Y-30634D01*
X84500D01*
X84439Y-30561D01*
X83488Y-29780D01*
X82687Y-29352D01*
X82617Y-28493D01*
X82675Y-28302D01*
X83030Y-28030D01*
X83711Y-27142D01*
X84080Y-26250D01*
X75920D01*
X76289Y-27142D01*
X76970Y-28030D01*
X77325Y-28302D01*
X77383Y-28493D01*
X77313Y-29352D01*
X76512Y-29780D01*
X75561Y-30561D01*
X74780Y-31512D01*
X74200Y-32597D01*
X73842Y-33775D01*
X73722Y-35000D01*
X73842Y-36225D01*
X74200Y-37403D01*
X74780Y-38488D01*
X75561Y-39439D01*
X75634Y-39500D01*
Y-40500D01*
X75561Y-40561D01*
X74780Y-41512D01*
X74200Y-42597D01*
X73842Y-43775D01*
X73722Y-45000D01*
X73842Y-46225D01*
X74200Y-47403D01*
X74780Y-48488D01*
X75561Y-49439D01*
X75634Y-49500D01*
Y-50500D01*
X75561Y-50561D01*
X74780Y-51512D01*
X74200Y-52597D01*
X73842Y-53775D01*
X73722Y-55000D01*
X73842Y-56225D01*
X74200Y-57403D01*
X74780Y-58488D01*
X75561Y-59439D01*
X75634Y-59500D01*
Y-60500D01*
X75561Y-60561D01*
X74780Y-61512D01*
X74200Y-62597D01*
X73842Y-63775D01*
X73722Y-65000D01*
X73842Y-66225D01*
X74200Y-67403D01*
X74780Y-68488D01*
X75561Y-69439D01*
X75634Y-69500D01*
Y-70500D01*
X75561Y-70561D01*
X74780Y-71512D01*
X74200Y-72597D01*
X73842Y-73775D01*
X73722Y-75000D01*
X73842Y-76225D01*
X74200Y-77403D01*
X74780Y-78488D01*
X75561Y-79439D01*
X75634Y-79500D01*
Y-80500D01*
X75561Y-80561D01*
X74780Y-81512D01*
X74200Y-82597D01*
X73842Y-83775D01*
X73722Y-85000D01*
X73842Y-86225D01*
X74200Y-87403D01*
X74780Y-88488D01*
X75561Y-89439D01*
X75634Y-89500D01*
Y-90500D01*
X75561Y-90561D01*
X74780Y-91512D01*
X74200Y-92597D01*
X73842Y-93775D01*
X73722Y-95000D01*
X73842Y-96225D01*
X74200Y-97403D01*
X74780Y-98488D01*
X75561Y-99439D01*
X75634Y-99500D01*
Y-100500D01*
X75561Y-100561D01*
X74780Y-101512D01*
X74200Y-102597D01*
X73842Y-103775D01*
X73722Y-105000D01*
X73842Y-106225D01*
X74200Y-107403D01*
X74780Y-108488D01*
X75561Y-109439D01*
X75634Y-109500D01*
Y-110500D01*
X75561Y-110561D01*
X74780Y-111512D01*
X74200Y-112597D01*
X73842Y-113775D01*
X73722Y-115000D01*
X73842Y-116225D01*
X74200Y-117403D01*
X74780Y-118488D01*
X75561Y-119439D01*
X75634Y-119500D01*
Y-120500D01*
X75561Y-120561D01*
X74780Y-121512D01*
X74200Y-122597D01*
X73842Y-123775D01*
X73722Y-125000D01*
X73842Y-126225D01*
X74200Y-127403D01*
X74780Y-128488D01*
X75561Y-129439D01*
X75634Y-129500D01*
Y-130500D01*
X75561Y-130561D01*
X74780Y-131512D01*
X74200Y-132597D01*
X73842Y-133775D01*
X73722Y-135000D01*
X73842Y-136225D01*
X74200Y-137403D01*
X74780Y-138488D01*
X75561Y-139439D01*
X75634Y-139500D01*
Y-140500D01*
X75561Y-140561D01*
X74780Y-141512D01*
X74200Y-142597D01*
X73842Y-143775D01*
X73722Y-145000D01*
X73842Y-146225D01*
X74200Y-147403D01*
X74780Y-148488D01*
X75561Y-149439D01*
X75634Y-149500D01*
Y-150500D01*
X75561Y-150561D01*
X74780Y-151512D01*
X74200Y-152597D01*
X73842Y-153775D01*
X73722Y-155000D01*
X73842Y-156225D01*
X74200Y-157403D01*
X74780Y-158488D01*
X75561Y-159439D01*
X75634Y-159500D01*
Y-160500D01*
X75561Y-160561D01*
X74780Y-161512D01*
X74200Y-162597D01*
X73842Y-163775D01*
X73722Y-165000D01*
X73842Y-166225D01*
X74200Y-167403D01*
X74780Y-168488D01*
X75561Y-169439D01*
X75634Y-169500D01*
Y-170500D01*
X75561Y-170561D01*
X74780Y-171512D01*
X74200Y-172597D01*
X73842Y-173775D01*
X73722Y-175000D01*
X73842Y-176225D01*
X74200Y-177403D01*
X74780Y-178488D01*
X75561Y-179439D01*
X75634Y-179500D01*
Y-180500D01*
X75561Y-180561D01*
X74780Y-181512D01*
X74200Y-182597D01*
X73856Y-183729D01*
X73616Y-183753D01*
X72777Y-183670D01*
X72436Y-183031D01*
X71324Y-181676D01*
X69968Y-180564D01*
X68422Y-179738D01*
X66745Y-179229D01*
X65000Y-179057D01*
X63255Y-179229D01*
X61578Y-179738D01*
X60031Y-180564D01*
X58676Y-181676D01*
X57564Y-183031D01*
X56738Y-184578D01*
X56229Y-186255D01*
X56057Y-188000D01*
X56229Y-189745D01*
X56738Y-191422D01*
X57564Y-192968D01*
X58676Y-194324D01*
X60031Y-195436D01*
X61578Y-196262D01*
X63255Y-196771D01*
X65000Y-196943D01*
X66745Y-196771D01*
X68422Y-196262D01*
X69968Y-195436D01*
X71324Y-194324D01*
X72436Y-192968D01*
X73262Y-191422D01*
X73771Y-189745D01*
X73846Y-188987D01*
X74524Y-188625D01*
X74819Y-188535D01*
X75561Y-189439D01*
X75634Y-189500D01*
Y-190500D01*
X75561Y-190561D01*
X74780Y-191512D01*
X74200Y-192597D01*
X73842Y-193775D01*
X73722Y-195000D01*
X73842Y-196225D01*
X74200Y-197403D01*
X74780Y-198488D01*
X75561Y-199439D01*
X75634Y-199500D01*
Y-200500D01*
X75561Y-200561D01*
X74780Y-201512D01*
X74200Y-202597D01*
X73842Y-203775D01*
X73722Y-205000D01*
X73842Y-206225D01*
X74200Y-207403D01*
X74780Y-208488D01*
X75561Y-209439D01*
X75634Y-209500D01*
Y-210500D01*
X75561Y-210561D01*
X74780Y-211512D01*
X74200Y-212597D01*
X73842Y-213775D01*
X73722Y-215000D01*
X73842Y-216225D01*
X74200Y-217403D01*
X74780Y-218488D01*
X75561Y-219439D01*
X75634Y-219500D01*
Y-220500D01*
X75561Y-220561D01*
X74780Y-221512D01*
X74200Y-222597D01*
X73842Y-223775D01*
X73722Y-225000D01*
X73842Y-226225D01*
X74200Y-227403D01*
X74780Y-228488D01*
X75561Y-229439D01*
X75634Y-229500D01*
Y-230500D01*
X75561Y-230561D01*
X74780Y-231512D01*
X74200Y-232597D01*
X73842Y-233775D01*
X73722Y-235000D01*
X73842Y-236225D01*
X74200Y-237403D01*
X74780Y-238488D01*
X75561Y-239439D01*
X75634Y-239500D01*
Y-240500D01*
X75561Y-240561D01*
X74780Y-241512D01*
X74200Y-242597D01*
X73842Y-243775D01*
X73722Y-245000D01*
X73842Y-246225D01*
X74200Y-247403D01*
X74780Y-248488D01*
X75561Y-249439D01*
X76512Y-250220D01*
X77597Y-250800D01*
X78775Y-251158D01*
X80000Y-251278D01*
X81225Y-251158D01*
X82403Y-250800D01*
X83488Y-250220D01*
X84439Y-249439D01*
X84500Y-249366D01*
X85500D01*
X85561Y-249439D01*
X86512Y-250220D01*
X87597Y-250800D01*
X88775Y-251158D01*
X90000Y-251278D01*
X91225Y-251158D01*
X92403Y-250800D01*
X93488Y-250220D01*
X94439Y-249439D01*
X95220Y-248488D01*
X95800Y-247403D01*
X96158Y-246225D01*
X96278Y-245000D01*
X96158Y-243775D01*
X95800Y-242597D01*
X95220Y-241512D01*
X94439Y-240561D01*
X94366Y-240500D01*
Y-239500D01*
X94439Y-239439D01*
X95220Y-238488D01*
X95800Y-237403D01*
X96158Y-236225D01*
X96278Y-235000D01*
X96158Y-233775D01*
X95800Y-232597D01*
X95538Y-232106D01*
X96052Y-231248D01*
X96248D01*
Y-218752D01*
X96052D01*
X95538Y-217894D01*
X95800Y-217403D01*
X96158Y-216225D01*
X96278Y-215000D01*
X96158Y-213775D01*
X95800Y-212597D01*
X95220Y-211512D01*
X94439Y-210561D01*
X94366Y-210500D01*
Y-209500D01*
X94439Y-209439D01*
X95220Y-208488D01*
X95800Y-207403D01*
X96158Y-206225D01*
X96278Y-205000D01*
X96158Y-203775D01*
X95800Y-202597D01*
X95220Y-201512D01*
X94439Y-200561D01*
X94366Y-200500D01*
Y-199500D01*
X94439Y-199439D01*
X95220Y-198488D01*
X95800Y-197403D01*
X96158Y-196225D01*
X96278Y-195000D01*
X96158Y-193775D01*
X95800Y-192597D01*
X95220Y-191512D01*
X94439Y-190561D01*
X94366Y-190500D01*
Y-189500D01*
X94439Y-189439D01*
X95220Y-188488D01*
X95800Y-187403D01*
X96158Y-186225D01*
X96278Y-185000D01*
X96158Y-183775D01*
X95800Y-182597D01*
X95220Y-181512D01*
X94439Y-180561D01*
X94366Y-180500D01*
Y-179500D01*
X94439Y-179439D01*
X95220Y-178488D01*
X95800Y-177403D01*
X96158Y-176225D01*
X96278Y-175000D01*
X96158Y-173775D01*
X95800Y-172597D01*
X95220Y-171512D01*
X94439Y-170561D01*
X94366Y-170500D01*
Y-169500D01*
X94439Y-169439D01*
X95220Y-168488D01*
X95800Y-167403D01*
X96158Y-166225D01*
X96278Y-165000D01*
X96158Y-163775D01*
X95800Y-162597D01*
X95220Y-161512D01*
X94439Y-160561D01*
X94366Y-160500D01*
Y-159500D01*
X94439Y-159439D01*
X95220Y-158488D01*
X95800Y-157403D01*
X96158Y-156225D01*
X96278Y-155000D01*
X96158Y-153775D01*
X95800Y-152597D01*
X95220Y-151512D01*
X94439Y-150561D01*
X94366Y-150500D01*
Y-149500D01*
X94439Y-149439D01*
X95220Y-148488D01*
X95800Y-147403D01*
X96158Y-146225D01*
X96278Y-145000D01*
X96158Y-143775D01*
X95800Y-142597D01*
X95220Y-141512D01*
X94439Y-140561D01*
X94366Y-140500D01*
Y-139500D01*
X94439Y-139439D01*
X95220Y-138488D01*
X95800Y-137403D01*
X96158Y-136225D01*
X96278Y-135000D01*
X96158Y-133775D01*
X95800Y-132597D01*
X95220Y-131512D01*
X94439Y-130561D01*
X94366Y-130500D01*
Y-129500D01*
X94439Y-129439D01*
X95220Y-128488D01*
X95800Y-127403D01*
X96158Y-126225D01*
X96278Y-125000D01*
X96158Y-123775D01*
X95800Y-122597D01*
X95220Y-121512D01*
X94439Y-120561D01*
X94366Y-120500D01*
Y-119500D01*
X94439Y-119439D01*
X95220Y-118488D01*
X95800Y-117403D01*
X96158Y-116225D01*
X96278Y-115000D01*
X96158Y-113775D01*
X95800Y-112597D01*
X95220Y-111512D01*
X94439Y-110561D01*
X94366Y-110500D01*
Y-109500D01*
X94439Y-109439D01*
X95220Y-108488D01*
D01*
D01*
X96031Y-108436D01*
X97578Y-109262D01*
X99255Y-109771D01*
X101000Y-109943D01*
X102745Y-109771D01*
X104422Y-109262D01*
X105968Y-108436D01*
X107324Y-107324D01*
X108436Y-105968D01*
X109262Y-104422D01*
X109771Y-102745D01*
X109943Y-101000D01*
X109771Y-99255D01*
X109262Y-97578D01*
X108436Y-96031D01*
X107324Y-94676D01*
X105968Y-93564D01*
X104422Y-92738D01*
X102745Y-92229D01*
X101000Y-92057D01*
X99255Y-92229D01*
X97578Y-92738D01*
X96780Y-93164D01*
X95856Y-92781D01*
X95800Y-92597D01*
X95220Y-91512D01*
X94439Y-90561D01*
X94366Y-90500D01*
Y-89500D01*
X94439Y-89439D01*
X95220Y-88488D01*
X95800Y-87403D01*
X96158Y-86225D01*
X96278Y-85000D01*
X96158Y-83775D01*
X95800Y-82597D01*
X95220Y-81512D01*
X94439Y-80561D01*
X94366Y-80500D01*
Y-79500D01*
X94439Y-79439D01*
X95220Y-78488D01*
X95800Y-77403D01*
X96158Y-76225D01*
X96278Y-75000D01*
X96158Y-73775D01*
X95800Y-72597D01*
X95220Y-71512D01*
X94439Y-70561D01*
X94366Y-70500D01*
Y-69500D01*
X94439Y-69439D01*
X95220Y-68488D01*
X95800Y-67403D01*
X96158Y-66225D01*
X96278Y-65000D01*
X96158Y-63775D01*
X95800Y-62597D01*
X95220Y-61512D01*
X94439Y-60561D01*
X94366Y-60500D01*
Y-59500D01*
X94439Y-59439D01*
X95220Y-58488D01*
X95800Y-57403D01*
X96158Y-56225D01*
X96278Y-55000D01*
X96158Y-53775D01*
X95800Y-52597D01*
X95220Y-51512D01*
X94439Y-50561D01*
X94366Y-50500D01*
Y-49500D01*
X94439Y-49439D01*
X95220Y-48488D01*
X95800Y-47403D01*
X96158Y-46225D01*
X96278Y-45000D01*
X96158Y-43775D01*
X95800Y-42597D01*
X95220Y-41512D01*
X94439Y-40561D01*
X94366Y-40500D01*
Y-39500D01*
X94439Y-39439D01*
X95220Y-38488D01*
X95800Y-37403D01*
X96158Y-36225D01*
X96278Y-35000D01*
X96158Y-33775D01*
X95800Y-32597D01*
X95220Y-31512D01*
X94439Y-30561D01*
X94248Y-30404D01*
X94248Y-29248D01*
X94248D01*
Y-26250D01*
D02*
G37*
G36*
X316500Y-30452D02*
X315064Y-30642D01*
X313726Y-31196D01*
X312577Y-32077D01*
X311696Y-33226D01*
X311142Y-34564D01*
X310952Y-36000D01*
X311142Y-37436D01*
X311696Y-38774D01*
X312577Y-39923D01*
X313726Y-40804D01*
X315064Y-41358D01*
X316500Y-41548D01*
X317936Y-41358D01*
X319274Y-40804D01*
X320423Y-39923D01*
X321304Y-38774D01*
X321858Y-37436D01*
X322047Y-36000D01*
X321858Y-34564D01*
X321304Y-33226D01*
X320423Y-32077D01*
X319274Y-31196D01*
X317936Y-30642D01*
X316500Y-30452D01*
D02*
G37*
G36*
X33354Y-40132D02*
Y-43069D01*
X36291D01*
X35901Y-42127D01*
X35204Y-41219D01*
X34296Y-40522D01*
X33354Y-40132D01*
D02*
G37*
G36*
X30854D02*
X29912Y-40522D01*
X29004Y-41219D01*
X28307Y-42127D01*
X27917Y-43069D01*
X30854D01*
Y-40132D01*
D02*
G37*
G36*
X66500Y-28953D02*
X65064Y-29142D01*
X63726Y-29696D01*
X62577Y-30577D01*
X61696Y-31726D01*
X61142Y-33064D01*
X60953Y-34500D01*
X61142Y-35936D01*
X61696Y-37274D01*
X62577Y-38423D01*
X63726Y-39304D01*
X65064Y-39858D01*
X66500Y-40047D01*
X67936Y-39858D01*
X69274Y-39304D01*
X70423Y-38423D01*
X71304Y-37274D01*
X71858Y-35936D01*
X72048Y-34500D01*
X71858Y-33064D01*
X71304Y-31726D01*
X70423Y-30577D01*
X69274Y-29696D01*
X67936Y-29142D01*
X66500Y-28953D01*
D02*
G37*
G36*
X31771Y-28750D02*
X29750D01*
Y-30771D01*
X30265Y-30557D01*
X30996Y-29996D01*
X31557Y-29265D01*
X31771Y-28750D01*
D02*
G37*
G36*
X27250D02*
X25229D01*
X25443Y-29265D01*
X26004Y-29996D01*
X26735Y-30557D01*
X27250Y-30771D01*
Y-28750D01*
D02*
G37*
G36*
X334500Y-20953D02*
X333064Y-21142D01*
X331726Y-21696D01*
X330577Y-22577D01*
X329696Y-23726D01*
X329142Y-25064D01*
X328953Y-26500D01*
X329142Y-27936D01*
X329696Y-29274D01*
X330577Y-30423D01*
X331726Y-31304D01*
X333064Y-31858D01*
X334500Y-32048D01*
X335936Y-31858D01*
X337274Y-31304D01*
X338423Y-30423D01*
X339304Y-29274D01*
X339858Y-27936D01*
X340048Y-26500D01*
X339858Y-25064D01*
X339304Y-23726D01*
X338423Y-22577D01*
X337274Y-21696D01*
X335936Y-21142D01*
X334500Y-20953D01*
D02*
G37*
G36*
X29750Y-24229D02*
Y-26250D01*
X31771D01*
X31557Y-25735D01*
X30996Y-25004D01*
X30265Y-24443D01*
X29750Y-24229D01*
D02*
G37*
G36*
X360250Y-21229D02*
X359735Y-21443D01*
X359004Y-22004D01*
X358443Y-22735D01*
X358229Y-23250D01*
X360250D01*
Y-21229D01*
D02*
G37*
G36*
X284248Y-20752D02*
X281250D01*
Y-23750D01*
X284248D01*
Y-20752D01*
D02*
G37*
G36*
X278750D02*
X275752D01*
Y-23750D01*
X278750D01*
Y-20752D01*
D02*
G37*
G36*
X300622Y-12249D02*
X298601D01*
X298815Y-12764D01*
X299376Y-13495D01*
X300107Y-14056D01*
X300622Y-14270D01*
Y-12249D01*
D02*
G37*
G36*
X303122Y-7729D02*
Y-9749D01*
X305142D01*
X304929Y-9234D01*
X304368Y-8503D01*
X303637Y-7942D01*
X303122Y-7729D01*
D02*
G37*
G36*
X300622D02*
X300107Y-7942D01*
X299376Y-8503D01*
X298815Y-9234D01*
X298601Y-9749D01*
X300622D01*
Y-7729D01*
D02*
G37*
G36*
X305142Y-12249D02*
X303122D01*
Y-14270D01*
X303637Y-14056D01*
X304368Y-13495D01*
X304929Y-12764D01*
X305142Y-12249D01*
D02*
G37*
G36*
X271250Y-20920D02*
Y-23750D01*
X274080D01*
X273711Y-22858D01*
X273030Y-21970D01*
X272142Y-21289D01*
X271250Y-20920D01*
D02*
G37*
G36*
X78750D02*
X77858Y-21289D01*
X76970Y-21970D01*
X76289Y-22858D01*
X75920Y-23750D01*
X78750D01*
Y-20920D01*
D02*
G37*
G36*
X61750Y-22729D02*
Y-24750D01*
X63771D01*
X63557Y-24235D01*
X62996Y-23504D01*
X62265Y-22943D01*
X61750Y-22729D01*
D02*
G37*
G36*
X59250D02*
X58735Y-22943D01*
X58004Y-23504D01*
X57443Y-24235D01*
X57229Y-24750D01*
X59250D01*
Y-22729D01*
D02*
G37*
G36*
X81250Y-20920D02*
Y-23750D01*
X84080D01*
X83711Y-22858D01*
X83030Y-21970D01*
X82142Y-21289D01*
X81250Y-20920D01*
D02*
G37*
G36*
X268750D02*
X267858Y-21289D01*
X266970Y-21970D01*
X266289Y-22858D01*
X265920Y-23750D01*
X268750D01*
Y-20920D01*
D02*
G37*
G36*
X94248Y-20752D02*
X91250D01*
Y-23750D01*
X94248D01*
Y-20752D01*
D02*
G37*
G36*
X88750D02*
X85752D01*
Y-23750D01*
X88750D01*
Y-20752D01*
D02*
G37*
G36*
X357250Y-241729D02*
Y-243750D01*
X359271D01*
X359057Y-243235D01*
X358496Y-242504D01*
X357765Y-241943D01*
X357250Y-241729D01*
D02*
G37*
G36*
X354750D02*
X354235Y-241943D01*
X353504Y-242504D01*
X352943Y-243235D01*
X352729Y-243750D01*
X354750D01*
Y-241729D01*
D02*
G37*
G36*
X281250Y-240920D02*
Y-243750D01*
X284080D01*
X283711Y-242858D01*
X283030Y-241970D01*
X282142Y-241289D01*
X281250Y-240920D01*
D02*
G37*
G36*
X268750Y-236250D02*
X265920D01*
X266289Y-237142D01*
X266970Y-238030D01*
X267858Y-238711D01*
X268750Y-239080D01*
Y-236250D01*
D02*
G37*
G36*
X284080D02*
X281250D01*
Y-239080D01*
X282142Y-238711D01*
X283030Y-238030D01*
X283711Y-237142D01*
X284080Y-236250D01*
D02*
G37*
G36*
X278750D02*
X275920D01*
X276289Y-237142D01*
X276970Y-238030D01*
X277858Y-238711D01*
X278750Y-239080D01*
Y-236250D01*
D02*
G37*
G36*
X274080D02*
X271250D01*
Y-239080D01*
X272142Y-238711D01*
X273030Y-238030D01*
X273711Y-237142D01*
X274080Y-236250D01*
D02*
G37*
G36*
X278750Y-240920D02*
X277858Y-241289D01*
X276970Y-241970D01*
X276289Y-242858D01*
X275920Y-243750D01*
X278750D01*
Y-240920D01*
D02*
G37*
G36*
X284080Y-246250D02*
X281250D01*
Y-249080D01*
X282142Y-248711D01*
X283030Y-248030D01*
X283711Y-247142D01*
X284080Y-246250D01*
D02*
G37*
G36*
X278750D02*
X275920D01*
X276289Y-247142D01*
X276970Y-248030D01*
X277858Y-248711D01*
X278750Y-249080D01*
Y-246250D01*
D02*
G37*
G36*
X274080D02*
X271250D01*
Y-249080D01*
X272142Y-248711D01*
X273030Y-248030D01*
X273711Y-247142D01*
X274080Y-246250D01*
D02*
G37*
G36*
X354750D02*
X352729D01*
X352943Y-246765D01*
X353504Y-247496D01*
X354235Y-248057D01*
X354750Y-248271D01*
Y-246250D01*
D02*
G37*
G36*
X271250Y-240920D02*
Y-243750D01*
X274080D01*
X273711Y-242858D01*
X273030Y-241970D01*
X272142Y-241289D01*
X271250Y-240920D01*
D02*
G37*
G36*
X268750D02*
X267858Y-241289D01*
X266970Y-241970D01*
X266289Y-242858D01*
X265920Y-243750D01*
X268750D01*
Y-240920D01*
D02*
G37*
G36*
X359271Y-246250D02*
X357250D01*
Y-248271D01*
X357765Y-248057D01*
X358496Y-247496D01*
X359057Y-246765D01*
X359271Y-246250D01*
D02*
G37*
G36*
X162032Y-147081D02*
X150566D01*
X150884Y-147848D01*
X151525Y-148684D01*
X152285Y-149266D01*
X152105Y-150250D01*
X152071Y-150261D01*
X151028Y-150818D01*
X150115Y-151567D01*
X149365Y-152481D01*
X148808Y-153524D01*
X148465Y-154655D01*
X148349Y-155831D01*
X148465Y-157007D01*
X148808Y-158138D01*
X149365Y-159180D01*
X150115Y-160094D01*
X150403Y-160331D01*
Y-161331D01*
X150115Y-161567D01*
X149365Y-162481D01*
X148808Y-163523D01*
X148465Y-164655D01*
X148349Y-165831D01*
X148465Y-167007D01*
X148808Y-168138D01*
X149365Y-169180D01*
X150115Y-170094D01*
X150403Y-170331D01*
Y-171331D01*
X150115Y-171567D01*
X149365Y-172481D01*
X148808Y-173523D01*
X148465Y-174654D01*
X148349Y-175831D01*
X148465Y-177007D01*
X148808Y-178138D01*
X149365Y-179180D01*
X150115Y-180094D01*
X150403Y-180331D01*
Y-181331D01*
X150115Y-181568D01*
X149365Y-182481D01*
X148808Y-183523D01*
X148465Y-184654D01*
X148349Y-185831D01*
X148465Y-187007D01*
X148808Y-188138D01*
X149365Y-189180D01*
X150115Y-190094D01*
X150403Y-190331D01*
Y-191331D01*
X150115Y-191568D01*
X149365Y-192481D01*
X148808Y-193524D01*
X148465Y-194655D01*
X148349Y-195831D01*
X148465Y-197007D01*
X148808Y-198138D01*
X149365Y-199180D01*
X150115Y-200094D01*
X150403Y-200331D01*
Y-201331D01*
X150115Y-201568D01*
X149365Y-202481D01*
X148808Y-203523D01*
X148465Y-204655D01*
X148349Y-205831D01*
X148465Y-207007D01*
X148808Y-208138D01*
X149365Y-209180D01*
X150115Y-210094D01*
X150403Y-210331D01*
Y-211331D01*
X150115Y-211567D01*
X149365Y-212481D01*
X148808Y-213524D01*
X148465Y-214654D01*
X148349Y-215831D01*
X148465Y-217007D01*
X148808Y-218138D01*
X149365Y-219180D01*
X150115Y-220094D01*
X151028Y-220844D01*
X152071Y-221401D01*
X153202Y-221744D01*
X154378Y-221860D01*
X158221D01*
X159397Y-221744D01*
X160528Y-221401D01*
X161570Y-220844D01*
X162484Y-220094D01*
X163233Y-219180D01*
X163791Y-218138D01*
X164134Y-217007D01*
X164250Y-215831D01*
X164134Y-214654D01*
X163791Y-213524D01*
X163233Y-212481D01*
X162484Y-211567D01*
X162195Y-211331D01*
Y-210331D01*
X162484Y-210094D01*
X163233Y-209180D01*
X163791Y-208138D01*
X164134Y-207007D01*
X164250Y-205831D01*
X164134Y-204655D01*
X163791Y-203523D01*
X163233Y-202481D01*
X162484Y-201568D01*
X162195Y-201331D01*
Y-200331D01*
X162484Y-200094D01*
X163233Y-199180D01*
X163791Y-198138D01*
X164134Y-197007D01*
X164250Y-195831D01*
X164134Y-194655D01*
X163791Y-193524D01*
X163233Y-192481D01*
X162484Y-191568D01*
X162195Y-191331D01*
Y-190331D01*
X162484Y-190094D01*
X163233Y-189180D01*
X163791Y-188138D01*
X164134Y-187007D01*
X164250Y-185831D01*
X164134Y-184654D01*
X163791Y-183523D01*
X163233Y-182481D01*
X162484Y-181568D01*
X162195Y-181331D01*
Y-180331D01*
X162484Y-180094D01*
X163233Y-179180D01*
X163791Y-178138D01*
X164134Y-177007D01*
X164250Y-175831D01*
X164134Y-174654D01*
X163791Y-173523D01*
X163233Y-172481D01*
X162484Y-171567D01*
X162195Y-171331D01*
Y-170331D01*
X162484Y-170094D01*
X163233Y-169180D01*
X163791Y-168138D01*
X164134Y-167007D01*
X164250Y-165831D01*
X164134Y-164655D01*
X163791Y-163523D01*
X163233Y-162481D01*
X162484Y-161567D01*
X162195Y-161331D01*
Y-160331D01*
X162484Y-160094D01*
X163233Y-159180D01*
X163791Y-158138D01*
X164134Y-157007D01*
X164250Y-155831D01*
X164134Y-154655D01*
X163791Y-153524D01*
X163233Y-152481D01*
X162484Y-151567D01*
X161570Y-150818D01*
X160528Y-150261D01*
X160493Y-150250D01*
X160314Y-149266D01*
X161073Y-148684D01*
X161714Y-147848D01*
X162032Y-147081D01*
D02*
G37*
G36*
X344268Y-70693D02*
X343043Y-70814D01*
X341865Y-71171D01*
X341374Y-71434D01*
X340516Y-70920D01*
Y-70723D01*
X328020D01*
Y-83220D01*
X340516D01*
Y-83023D01*
X341374Y-82509D01*
X341865Y-82772D01*
X343043Y-83129D01*
X344268Y-83250D01*
X345493Y-83129D01*
X346671Y-82772D01*
X347756Y-82192D01*
X348707Y-81411D01*
X349488Y-80460D01*
X350068Y-79374D01*
X350426Y-78196D01*
X350546Y-76972D01*
X350426Y-75747D01*
X350068Y-74569D01*
X349488Y-73484D01*
X348707Y-72532D01*
X347756Y-71751D01*
X346671Y-71171D01*
X345493Y-70814D01*
X344268Y-70693D01*
D02*
G37*
G36*
X36291Y-45568D02*
X27917D01*
X28307Y-46510D01*
X29004Y-47418D01*
X29317Y-47659D01*
X29236Y-48656D01*
X28561Y-49016D01*
X27595Y-49809D01*
X26802Y-50776D01*
X26212Y-51878D01*
X25849Y-53074D01*
X25727Y-54318D01*
X25849Y-55563D01*
X26212Y-56759D01*
X26402Y-57114D01*
X25888Y-57972D01*
X25758D01*
Y-70665D01*
X36528D01*
X37084Y-71496D01*
X36642Y-72564D01*
X36452Y-74000D01*
X36642Y-75436D01*
X37196Y-76774D01*
X38077Y-77923D01*
X39226Y-78804D01*
X40564Y-79358D01*
X42000Y-79548D01*
X43436Y-79358D01*
X44774Y-78804D01*
X45923Y-77923D01*
X46804Y-76774D01*
X47358Y-75436D01*
X47548Y-74000D01*
X47358Y-72564D01*
X46804Y-71226D01*
X45923Y-70077D01*
X44774Y-69196D01*
X43436Y-68642D01*
X42000Y-68453D01*
X40564Y-68642D01*
X39282Y-69173D01*
X38450Y-68617D01*
Y-57972D01*
X38320D01*
X37806Y-57114D01*
X37996Y-56759D01*
X38359Y-55563D01*
X38481Y-54318D01*
X38359Y-53074D01*
X37996Y-51878D01*
X37406Y-50776D01*
X36613Y-49809D01*
X35647Y-49016D01*
X34972Y-48656D01*
X34891Y-47659D01*
X35204Y-47418D01*
X35901Y-46510D01*
X36291Y-45568D01*
D02*
G37*
G36*
X30250Y-77729D02*
Y-79750D01*
X32271D01*
X32057Y-79235D01*
X31496Y-78504D01*
X30765Y-77943D01*
X30250Y-77729D01*
D02*
G37*
G36*
X54000Y-46722D02*
X52775Y-46842D01*
X51597Y-47200D01*
X50512Y-47780D01*
X49561Y-48561D01*
X48780Y-49512D01*
X48200Y-50597D01*
X47842Y-51775D01*
X47722Y-53000D01*
X47842Y-54225D01*
X48200Y-55403D01*
X48462Y-55894D01*
X47948Y-56752D01*
X47752D01*
Y-69248D01*
X60248D01*
Y-56752D01*
X60052D01*
X59538Y-55894D01*
X59800Y-55403D01*
X60158Y-54225D01*
X60278Y-53000D01*
X60158Y-51775D01*
X59800Y-50597D01*
X59220Y-49512D01*
X58439Y-48561D01*
X57488Y-47780D01*
X56403Y-47200D01*
X55225Y-46842D01*
X54000Y-46722D01*
D02*
G37*
G36*
X349346Y-38154D02*
X336653D01*
Y-50846D01*
X336784D01*
X337298Y-51704D01*
X337108Y-52060D01*
X336745Y-53256D01*
X336623Y-54500D01*
X336745Y-55744D01*
X337108Y-56940D01*
X337698Y-58043D01*
X338491Y-59009D01*
X339457Y-59802D01*
X340132Y-60163D01*
X340213Y-61160D01*
X339900Y-61400D01*
X339203Y-62308D01*
X338813Y-63250D01*
X347187D01*
X346797Y-62308D01*
X346100Y-61400D01*
X345787Y-61160D01*
X345868Y-60163D01*
X346543Y-59802D01*
X347509Y-59009D01*
X348302Y-58043D01*
X348892Y-56940D01*
X349255Y-55744D01*
X349377Y-54500D01*
X349255Y-53256D01*
X348892Y-52060D01*
X348702Y-51704D01*
X349216Y-50846D01*
X349346D01*
Y-38154D01*
D02*
G37*
G36*
X347187Y-65750D02*
X344250D01*
Y-68687D01*
X345192Y-68297D01*
X346100Y-67600D01*
X346797Y-66692D01*
X347187Y-65750D01*
D02*
G37*
G36*
X341750D02*
X338813D01*
X339203Y-66692D01*
X339900Y-67600D01*
X340808Y-68297D01*
X341750Y-68687D01*
Y-65750D01*
D02*
G37*
G36*
X27750Y-77729D02*
X27235Y-77943D01*
X26504Y-78504D01*
X25943Y-79235D01*
X25729Y-79750D01*
X27750D01*
Y-77729D01*
D02*
G37*
G36*
X310500Y-162452D02*
X309064Y-162642D01*
X307726Y-163196D01*
X306577Y-164077D01*
X305696Y-165226D01*
X305142Y-166564D01*
X304953Y-168000D01*
X305142Y-169436D01*
X305696Y-170774D01*
X306577Y-171923D01*
X307726Y-172804D01*
X309064Y-173358D01*
X310500Y-173547D01*
X311936Y-173358D01*
X313274Y-172804D01*
X314423Y-171923D01*
X315304Y-170774D01*
X315858Y-169436D01*
X316048Y-168000D01*
X315858Y-166564D01*
X315304Y-165226D01*
X314423Y-164077D01*
X313274Y-163196D01*
X311936Y-162642D01*
X310500Y-162452D01*
D02*
G37*
G36*
X311000Y-179057D02*
X309255Y-179229D01*
X307578Y-179738D01*
X306031Y-180564D01*
X304676Y-181676D01*
X303564Y-183031D01*
X302738Y-184578D01*
X302229Y-186255D01*
X302057Y-188000D01*
X302229Y-189745D01*
X302738Y-191422D01*
X303564Y-192968D01*
X304676Y-194324D01*
X306031Y-195436D01*
X307578Y-196262D01*
X309255Y-196771D01*
X311000Y-196943D01*
X312745Y-196771D01*
X314422Y-196262D01*
X315968Y-195436D01*
X317324Y-194324D01*
X318436Y-192968D01*
X319262Y-191422D01*
X319771Y-189745D01*
X319943Y-188000D01*
X319771Y-186255D01*
X319262Y-184578D01*
X318436Y-183031D01*
X317324Y-181676D01*
X315968Y-180564D01*
X314422Y-179738D01*
X312745Y-179229D01*
X311000Y-179057D01*
D02*
G37*
G36*
X359750Y-208750D02*
X356920D01*
X357289Y-209642D01*
X357970Y-210530D01*
X358858Y-211211D01*
X359750Y-211580D01*
Y-208750D01*
D02*
G37*
G36*
X164220Y-119831D02*
X148378D01*
Y-131831D01*
X148740D01*
X149254Y-132688D01*
X148808Y-133523D01*
X148465Y-134654D01*
X148349Y-135831D01*
X148465Y-137007D01*
X148808Y-138138D01*
X149365Y-139180D01*
X150115Y-140094D01*
X151028Y-140844D01*
X152071Y-141401D01*
X152105Y-141411D01*
X152285Y-142395D01*
X151525Y-142978D01*
X150884Y-143813D01*
X150566Y-144581D01*
X162032D01*
X161714Y-143813D01*
X161073Y-142978D01*
X160314Y-142395D01*
X160493Y-141411D01*
X160528Y-141401D01*
X161570Y-140844D01*
X162484Y-140094D01*
X163233Y-139180D01*
X163791Y-138138D01*
X164134Y-137007D01*
X164250Y-135831D01*
X164134Y-134654D01*
X163791Y-133523D01*
X163344Y-132688D01*
X163858Y-131831D01*
X164220D01*
Y-119831D01*
D02*
G37*
G36*
X32271Y-82250D02*
X30250D01*
Y-84271D01*
X30765Y-84057D01*
X31496Y-83496D01*
X32057Y-82765D01*
X32271Y-82250D01*
D02*
G37*
G36*
X27750D02*
X25729D01*
X25943Y-82765D01*
X26504Y-83496D01*
X27235Y-84057D01*
X27750Y-84271D01*
Y-82250D01*
D02*
G37*
G36*
X210500Y-93453D02*
X209064Y-93642D01*
X207726Y-94196D01*
X206577Y-95077D01*
X205696Y-96226D01*
X205672Y-96283D01*
X204681Y-96414D01*
X204423Y-96077D01*
X203274Y-95196D01*
X201936Y-94642D01*
X200500Y-94453D01*
X199064Y-94642D01*
X197726Y-95196D01*
X196577Y-96077D01*
X195696Y-97226D01*
X195142Y-98564D01*
X194952Y-100000D01*
X195142Y-101436D01*
X195696Y-102774D01*
X196577Y-103923D01*
X197726Y-104804D01*
X199064Y-105358D01*
X200500Y-105547D01*
X201936Y-105358D01*
X203274Y-104804D01*
X204423Y-103923D01*
X205304Y-102774D01*
X205328Y-102717D01*
X206319Y-102586D01*
X206577Y-102923D01*
X207726Y-103804D01*
X209064Y-104358D01*
X210500Y-104548D01*
X211936Y-104358D01*
X213274Y-103804D01*
X214423Y-102923D01*
X215304Y-101774D01*
X215858Y-100436D01*
X216048Y-99000D01*
X215858Y-97564D01*
X215304Y-96226D01*
X214423Y-95077D01*
X213274Y-94196D01*
X211936Y-93642D01*
X210500Y-93453D01*
D02*
G37*
%LPD*%
D29*
X182641Y-344067D02*
X183099D01*
X222500Y-366000D02*
X223000D01*
Y-367000D02*
Y-366000D01*
X217500Y-373000D02*
Y-372500D01*
Y-371000D01*
X222500Y-366000D01*
X217500Y-372500D02*
X223000Y-367000D01*
D30*
X196329Y-406329D02*
X196500Y-406500D01*
X195701Y-406329D02*
X196329D01*
X193592Y-404221D02*
X195701Y-406329D01*
X193592Y-404221D02*
Y-403592D01*
X191500Y-401500D02*
X193592Y-403592D01*
X203038Y-435462D02*
Y-433565D01*
X154000Y-381000D02*
X154500D01*
X158500Y-377000D02*
X159500D01*
X154500Y-381000D02*
X158500Y-377000D01*
D32*
X252000Y-277000D02*
Y-179500D01*
X256500Y-175000D01*
X270000D01*
D33*
X177830Y-339255D02*
X182641Y-344067D01*
D39*
X280000Y-25000D02*
D03*
X90000D02*
D03*
D40*
X280000Y-235000D02*
D03*
X270000D02*
D03*
X280000Y-245000D02*
D03*
X270000D02*
D03*
Y-185000D02*
D03*
Y-175000D02*
D03*
Y-25000D02*
D03*
X80000D02*
D03*
X361000Y-207500D02*
D03*
D41*
X249186Y-398027D02*
D03*
D44*
X343000Y-64500D02*
D03*
Y-437500D02*
D03*
X31500Y-417500D02*
D03*
X32104Y-44319D02*
D03*
D47*
X176321Y-323241D02*
D03*
D50*
X156299Y-145831D02*
D03*
D53*
X12889Y-150428D02*
D03*
D54*
X233038Y-423565D02*
D03*
X203038Y-433565D02*
D03*
D55*
X183099Y-344067D02*
D03*
X194066Y-404446D02*
D03*
X157281Y-378766D02*
D03*
X216500Y-309000D02*
D03*
X219635Y-369746D02*
D03*
D56*
X301872Y-10999D02*
D03*
X269095Y-329951D02*
D03*
X283221Y-303128D02*
D03*
X121000Y-289500D02*
D03*
X289000Y-366000D02*
D03*
X48500Y-422500D02*
D03*
X252000Y-277000D02*
D03*
X356000Y-245000D02*
D03*
X364500Y-115500D02*
D03*
X361500Y-24500D02*
D03*
X28500Y-27500D02*
D03*
X60500Y-26000D02*
D03*
X14000Y-276000D02*
D03*
X29000Y-81000D02*
D03*
X256000Y-293500D02*
D03*
X242500Y-324000D02*
D03*
D57*
X176321Y-323241D02*
X182843D01*
M02*
