M48
;Layer_Color=9474304
;FILE_FORMAT=2:5
INCH,LZ
;TYPE=PLATED
T1F00S00C0.01500
T2F00S00C0.02500
T3F00S00C0.02800
T4F00S00C0.03800
T5F00S00C0.03803
T6F00S00C0.03937
T7F00S00C0.04000
T8F00S00C0.04567
T9F00S00C0.05080
T10F00S00C0.07000
%
T01
X019356Y-040506
X020319Y-040579
X0213974Y-0368703
X022009Y-0363633
X022328Y-0374125
X0161102Y-0382446
X0154162Y-0381647
X0153976Y-0369576
X018239Y-0407276
X0180488Y-034922
X0180138Y-034188
X0193161Y-0340977
X02165Y-0309
T02
X0166321Y-0323241
X017132
X0176321
T03
X0289Y-0366
X0333494Y-0394737
X012375Y-0403085
X00485Y-04225
X0019Y-0316
X0015Y-0299
X0014Y-0276
X00335Y-02875
X0046Y-03095
X00895Y-03295
X0103Y-0303
X0121Y-02895
X0149452Y-0318606
X02265Y-03145
X0244146Y-0312404
X02425Y-0324
X023823Y-0333281
X0229Y-0337
X0269095Y-0329951
X02555Y-03145
X0256Y-02935
X0252Y-0277
X0226Y-0289
X0283221Y-0303128
X0285821Y-0313875
X0323882Y-0292275
X03285Y-03325
X0356Y-0245
X03645Y-01155
X03105Y-0168
X02105Y-0099
X02005Y-01
X0042Y-0074
X0029Y-0081
X00285Y-00275
X005Y-0025
X00605Y-0026
X00665Y-00345
X03165Y-0036
X0322Y-00225
X03345Y-00265
X0301872Y-0010999
X03615Y-00245
T04
X0193038Y-0433565
X0203038
X0213038
X0223038
X0233038
Y-0423565
X0223038
X0213038
X0203038
X0193038
X0183038
Y-0433565
X0173038
Y-0423565
X0163038
Y-0433565
X0153038
Y-0423565
X0022889Y-0230428
X0012889
Y-0220428
X0022889
Y-0210428
X0012889
Y-0200428
X0022889
Y-0190428
X0012889
Y-0180428
X0022889
Y-0170428
X0012889
Y-0160428
X0022889
Y-0150428
X0012889
T05
X0249186Y-0405901
Y-0398027
Y-0390153
Y-0382279
Y-0374405
Y-0366531
X0156299Y-0215831
Y-0205831
Y-0195831
Y-0185831
Y-0175831
Y-0165831
Y-0155831
Y-0145831
Y-0135831
Y-0125831
T06
X0361Y-02075
Y-01975
Y-01875
Y-01775
X0344268Y-0076972
X0334268
X0054Y-0063
Y-0053
T07
X008Y-0245
Y-0235
Y-0225
X009
Y-0235
Y-0245
Y-0215
X008
X027
Y-0225
X028
Y-0235
X027
Y-0245
X028
Y-0215
Y-0205
X027
Y-0195
X028
Y-0185
X027
Y-0175
X028
Y-0165
X027
Y-0155
X028
Y-0145
X027
Y-0135
X028
Y-0125
X027
Y-0115
Y-0105
Y-0095
Y-0085
X028
Y-0075
X027
Y-0065
X028
Y-0055
X027
X028Y-0095
Y-0105
Y-0115
X009
Y-0125
Y-0135
Y-0145
Y-0155
Y-0165
Y-0175
Y-0185
Y-0195
Y-0205
X008
Y-0195
Y-0185
Y-0175
Y-0165
Y-0155
Y-0145
Y-0135
Y-0125
Y-0115
Y-0105
Y-0095
Y-0085
X009
Y-0075
X008
Y-0065
X009
Y-0055
X008
X009Y-0095
Y-0105
Y-0045
X008
Y-0035
X009
Y-0025
X008
X027
Y-0035
Y-0045
X028
Y-0035
Y-0025
T08
X0343Y-04375
Y-04275
Y-04175
X00315
Y-04275
Y-04375
X0343Y-00645
Y-00545
X0032104Y-0054318
Y-0064319
Y-0044319
X0343Y-00445
T09
X01885Y-03745
X0210975Y-0396867
X0164733Y-0397126
X0165508Y-0351787
X0210975
T10
X0101Y-0275
X0275
X0311Y-0188
X0065
X0101Y-0101
M30
